M48
METRIC,LZ,000.000
;FILE_FORMAT=3:3
;TYPE=PLATED
;Layer: PTH_Through
;EasyEDA v6.5.22, 2023-02-02 12:04:13
;e40c6f2ac48d42a8ab01bc531f02f979,d89026aa57f64e8aa15d5895f5b481f1,10
;Gerber Generator version 0.2
;Holesize 1 = 0.751 mm
T01C0.751
;Holesize 2 = 0.889 mm
T02C0.889
;Holesize 3 = 0.901 mm
T03C0.901
;Holesize 4 = 1.021 mm
T04C1.021
%
G05
G90
T01
X033740Y-002000
X035010Y-002000
X067365Y-001750
X068635Y-001750
X068635Y-014250
X067365Y-014250
X037240Y-002000
X038510Y-002000
X002000Y-012635
X002000Y-011365
T02
X004315Y-001625
X006855Y-001625
X009395Y-001625
X011935Y-001625
T03
X035295Y-013949G85X035295Y-013449
X040955Y-013949G85X040955Y-013449
T04
X030540Y-004190
X028000Y-004190
X025460Y-004190
X025460Y-011810
X028000Y-011810
X030540Y-011810
M30
