M48
METRIC,LZ,000.000
;FILE_FORMAT=3:3
;TYPE=PLATED
;Layer: PTH_Through_Via
;EasyEDA v6.5.22, 2023-02-02 12:04:13
;e40c6f2ac48d42a8ab01bc531f02f979,d89026aa57f64e8aa15d5895f5b481f1,10
;Gerber Generator version 0.2
;Holesize 1 = 0.305 mm
T01C0.305
;Holesize 2 = 0.306 mm
T02C0.306
%
G05
G90
T01
X017374Y-009308
X053625Y-015250
X056375Y-015250
X057625Y-005250
X094375Y-003125
X094375Y-012875
X073500Y-014500
X075375Y-013000
X063925Y-009500
X004625Y-004775
X003000Y-007000
X020250Y-001000
X018933Y-004875
X052000Y-008750
X052625Y-009500
X057250Y-015250
X059750Y-012750
X063125Y-012750
X060500Y-015125
X057625Y-008125
X082375Y-008125
X081375Y-008750
X056625Y-007500
X074250Y-003500
X066750Y-002875
X070125Y-004500
X065875Y-011501
X071250Y-010250
X088375Y-010250
X065125Y-010250
X065875Y-009500
X091375Y-009500
X070319Y-009500
X056625Y-009500
X056625Y-011125
X045875Y-000750
X090375Y-003250
X089375Y-004000
X066500Y-007000
X071125Y-007375
X012750Y-007125
X014875Y-011250
X010625Y-013500
X005633Y-012250
X007375Y-005875
X035000Y-006250
X039000Y-013750
X046250Y-011875
X045625Y-002000
X049548Y-002250
X050750Y-004125
X049125Y-014500
X057250Y-003875
X060058Y-003250
X056250Y-003875
X078375Y-013000
X092375Y-012875
T02
X064125Y-004125
X057625Y-006250
X061925Y-005019
X070500Y-013250
M30
