G04 Layer: TopSilkscreenLayer*
G04 EasyEDA v6.5.22, 2023-02-02 12:04:13*
G04 e40c6f2ac48d42a8ab01bc531f02f979,d89026aa57f64e8aa15d5895f5b481f1,10*
G04 Gerber Generator version 0.2*
G04 Scale: 100 percent, Rotated: No, Reflected: No *
G04 Dimensions in millimeters *
G04 leading zeros omitted , absolute positions ,4 integer and 5 decimal *
%FSLAX45Y45*%
%MOMM*%

%ADD10C,0.2032*%
%ADD11C,0.1500*%
%ADD12C,0.2540*%
%ADD13C,0.1524*%
%ADD14C,0.2030*%
%ADD15C,0.1250*%
%ADD16C,0.2000*%
%ADD17C,0.6000*%
%ADD18C,0.3000*%
%ADD19C,0.0189*%

%LPD*%
D10*
X7695524Y-349163D02*
G01*
X7695524Y-421807D01*
X7690952Y-435523D01*
X7686380Y-440095D01*
X7677236Y-444667D01*
X7668092Y-444667D01*
X7659202Y-440095D01*
X7654630Y-435523D01*
X7650058Y-421807D01*
X7650058Y-412663D01*
X7725496Y-349163D02*
G01*
X7725496Y-444667D01*
X7725496Y-444667D02*
G01*
X7780106Y-444667D01*
X7878150Y-371769D02*
G01*
X7873578Y-362625D01*
X7864434Y-353735D01*
X7855544Y-349163D01*
X7837256Y-349163D01*
X7828112Y-353735D01*
X7818968Y-362625D01*
X7814650Y-371769D01*
X7810078Y-385485D01*
X7810078Y-408091D01*
X7814650Y-421807D01*
X7818968Y-430951D01*
X7828112Y-440095D01*
X7837256Y-444667D01*
X7855544Y-444667D01*
X7864434Y-440095D01*
X7873578Y-430951D01*
X7878150Y-421807D01*
X7953588Y-349163D02*
G01*
X7953588Y-421807D01*
X7949016Y-435523D01*
X7944444Y-440095D01*
X7935554Y-444667D01*
X7926410Y-444667D01*
X7917266Y-440095D01*
X7912694Y-435523D01*
X7908122Y-421807D01*
X7908122Y-412663D01*
X7983560Y-349163D02*
G01*
X7983560Y-444667D01*
X7983560Y-444667D02*
G01*
X8038170Y-444667D01*
X8136468Y-371769D02*
G01*
X8131896Y-362625D01*
X8122752Y-353735D01*
X8113608Y-349163D01*
X8095320Y-349163D01*
X8086430Y-353735D01*
X8077286Y-362625D01*
X8072714Y-371769D01*
X8068142Y-385485D01*
X8068142Y-408091D01*
X8072714Y-421807D01*
X8077286Y-430951D01*
X8086430Y-440095D01*
X8095320Y-444667D01*
X8113608Y-444667D01*
X8122752Y-440095D01*
X8131896Y-430951D01*
X8136468Y-421807D01*
X8211906Y-349163D02*
G01*
X8211906Y-421807D01*
X8207334Y-435523D01*
X8202762Y-440095D01*
X8193618Y-444667D01*
X8184474Y-444667D01*
X8175330Y-440095D01*
X8171012Y-435523D01*
X8166440Y-421807D01*
X8166440Y-412663D01*
X8241878Y-349163D02*
G01*
X8241878Y-444667D01*
X8241878Y-444667D02*
G01*
X8296234Y-444667D01*
X8394532Y-371769D02*
G01*
X8389960Y-362625D01*
X8380816Y-353735D01*
X8371926Y-349163D01*
X8353638Y-349163D01*
X8344494Y-353735D01*
X8335350Y-362625D01*
X8330778Y-371769D01*
X8326460Y-385485D01*
X8326460Y-408091D01*
X8330778Y-421807D01*
X8335350Y-430951D01*
X8344494Y-440095D01*
X8353638Y-444667D01*
X8371926Y-444667D01*
X8380816Y-440095D01*
X8389960Y-430951D01*
X8394532Y-421807D01*
X8469970Y-349163D02*
G01*
X8469970Y-421807D01*
X8465398Y-435523D01*
X8460826Y-440095D01*
X8451682Y-444667D01*
X8442792Y-444667D01*
X8433648Y-440095D01*
X8429076Y-435523D01*
X8424504Y-421807D01*
X8424504Y-412663D01*
X8499942Y-349163D02*
G01*
X8499942Y-444667D01*
X8499942Y-444667D02*
G01*
X8554552Y-444667D01*
X8652596Y-371769D02*
G01*
X8648278Y-362625D01*
X8639134Y-353735D01*
X8629990Y-349163D01*
X8611702Y-349163D01*
X8602812Y-353735D01*
X8593668Y-362625D01*
X8589096Y-371769D01*
X8584524Y-385485D01*
X8584524Y-408091D01*
X8589096Y-421807D01*
X8593668Y-430951D01*
X8602812Y-440095D01*
X8611702Y-444667D01*
X8629990Y-444667D01*
X8639134Y-440095D01*
X8648278Y-430951D01*
X8652596Y-421807D01*
D11*
X3637534Y-1294384D02*
G01*
X3637534Y-1348739D01*
X3641090Y-1359662D01*
X3648456Y-1367028D01*
X3659377Y-1370584D01*
X3666490Y-1370584D01*
X3677411Y-1367028D01*
X3684777Y-1359662D01*
X3688334Y-1348739D01*
X3688334Y-1294384D01*
X3763263Y-1305305D02*
G01*
X3756152Y-1297939D01*
X3745229Y-1294384D01*
X3730497Y-1294384D01*
X3719575Y-1297939D01*
X3712463Y-1305305D01*
X3712463Y-1312418D01*
X3716020Y-1319784D01*
X3719575Y-1323339D01*
X3726941Y-1326895D01*
X3748786Y-1334262D01*
X3756152Y-1337818D01*
X3759708Y-1341628D01*
X3763263Y-1348739D01*
X3763263Y-1359662D01*
X3756152Y-1367028D01*
X3745229Y-1370584D01*
X3730497Y-1370584D01*
X3719575Y-1367028D01*
X3712463Y-1359662D01*
X3787393Y-1294384D02*
G01*
X3787393Y-1370584D01*
X3787393Y-1294384D02*
G01*
X3819906Y-1294384D01*
X3830827Y-1297939D01*
X3834638Y-1301495D01*
X3838193Y-1308862D01*
X3838193Y-1315973D01*
X3834638Y-1323339D01*
X3830827Y-1326895D01*
X3819906Y-1330705D01*
X3787393Y-1330705D02*
G01*
X3819906Y-1330705D01*
X3830827Y-1334262D01*
X3834638Y-1337818D01*
X3838193Y-1345184D01*
X3838193Y-1356105D01*
X3834638Y-1363471D01*
X3830827Y-1367028D01*
X3819906Y-1370584D01*
X3787393Y-1370584D01*
X4529569Y-100015D02*
G01*
X4526013Y-92649D01*
X4518647Y-85283D01*
X4511281Y-81727D01*
X4496803Y-81727D01*
X4489437Y-85283D01*
X4482325Y-92649D01*
X4478515Y-100015D01*
X4474959Y-110937D01*
X4474959Y-128971D01*
X4478515Y-139893D01*
X4482325Y-147259D01*
X4489437Y-154625D01*
X4496803Y-158181D01*
X4511281Y-158181D01*
X4518647Y-154625D01*
X4526013Y-147259D01*
X4529569Y-139893D01*
X4553445Y-96205D02*
G01*
X4560811Y-92649D01*
X4571733Y-81727D01*
X4571733Y-158181D01*
X4599419Y-100015D02*
G01*
X4599419Y-96205D01*
X4602975Y-89093D01*
X4606531Y-85283D01*
X4613897Y-81727D01*
X4628375Y-81727D01*
X4635741Y-85283D01*
X4639297Y-89093D01*
X4643107Y-96205D01*
X4643107Y-103571D01*
X4639297Y-110937D01*
X4632185Y-121859D01*
X4595609Y-158181D01*
X4646663Y-158181D01*
X962591Y-1181862D02*
G01*
X962591Y-1258062D01*
X962591Y-1181862D02*
G01*
X995103Y-1181862D01*
X1006025Y-1185418D01*
X1009835Y-1188973D01*
X1013391Y-1196339D01*
X1013391Y-1203705D01*
X1009835Y-1210818D01*
X1006025Y-1214373D01*
X995103Y-1218184D01*
X962591Y-1218184D01*
X987991Y-1218184D02*
G01*
X1013391Y-1258062D01*
X1037521Y-1196339D02*
G01*
X1044633Y-1192784D01*
X1055555Y-1181862D01*
X1055555Y-1258062D01*
X1549897Y-1181671D02*
G01*
X1549897Y-1258125D01*
X1549897Y-1181671D02*
G01*
X1582663Y-1181671D01*
X1593585Y-1185481D01*
X1597395Y-1189037D01*
X1600951Y-1196403D01*
X1600951Y-1203515D01*
X1597395Y-1210881D01*
X1593585Y-1214437D01*
X1582663Y-1218247D01*
X1549897Y-1218247D01*
X1575551Y-1218247D02*
G01*
X1600951Y-1258125D01*
X1628637Y-1199959D02*
G01*
X1628637Y-1196403D01*
X1632193Y-1189037D01*
X1635749Y-1185481D01*
X1643115Y-1181671D01*
X1657593Y-1181671D01*
X1664959Y-1185481D01*
X1668515Y-1189037D01*
X1672071Y-1196403D01*
X1672071Y-1203515D01*
X1668515Y-1210881D01*
X1661149Y-1221803D01*
X1624827Y-1258125D01*
X1675881Y-1258125D01*
X1975111Y-356753D02*
G01*
X1975111Y-433207D01*
X1975111Y-356753D02*
G01*
X2007623Y-356753D01*
X2018545Y-360309D01*
X2022355Y-364119D01*
X2025911Y-371231D01*
X2025911Y-378597D01*
X2022355Y-385963D01*
X2018545Y-389519D01*
X2007623Y-393075D01*
X1975111Y-393075D01*
X2000511Y-393075D02*
G01*
X2025911Y-433207D01*
X2086363Y-356753D02*
G01*
X2049787Y-407807D01*
X2104397Y-407807D01*
X2086363Y-356753D02*
G01*
X2086363Y-433207D01*
X6112416Y-181813D02*
G01*
X6112416Y-258013D01*
X6112416Y-181813D02*
G01*
X6145182Y-181813D01*
X6156104Y-185369D01*
X6159660Y-188925D01*
X6163470Y-196291D01*
X6163470Y-203657D01*
X6159660Y-210769D01*
X6156104Y-214579D01*
X6145182Y-218135D01*
X6112416Y-218135D01*
X6137816Y-218135D02*
G01*
X6163470Y-258013D01*
X6231034Y-181813D02*
G01*
X6194712Y-181813D01*
X6191156Y-214579D01*
X6194712Y-210769D01*
X6205634Y-207213D01*
X6216556Y-207213D01*
X6227478Y-210769D01*
X6234590Y-218135D01*
X6238400Y-229057D01*
X6238400Y-236423D01*
X6234590Y-247345D01*
X6227478Y-254457D01*
X6216556Y-258013D01*
X6205634Y-258013D01*
X6194712Y-254457D01*
X6191156Y-250901D01*
X6187346Y-243535D01*
X6187376Y-1481772D02*
G01*
X6187376Y-1558226D01*
X6187376Y-1481772D02*
G01*
X6220142Y-1481772D01*
X6231064Y-1485328D01*
X6234874Y-1489138D01*
X6238430Y-1496250D01*
X6238430Y-1503616D01*
X6234874Y-1510982D01*
X6231064Y-1514538D01*
X6220142Y-1518094D01*
X6187376Y-1518094D01*
X6213030Y-1518094D02*
G01*
X6238430Y-1558226D01*
X6305994Y-1492694D02*
G01*
X6302438Y-1485328D01*
X6291516Y-1481772D01*
X6284150Y-1481772D01*
X6273228Y-1485328D01*
X6266116Y-1496250D01*
X6262306Y-1514538D01*
X6262306Y-1532572D01*
X6266116Y-1547304D01*
X6273228Y-1554416D01*
X6284150Y-1558226D01*
X6287960Y-1558226D01*
X6298882Y-1554416D01*
X6305994Y-1547304D01*
X6309550Y-1536382D01*
X6309550Y-1532572D01*
X6305994Y-1521650D01*
X6298882Y-1514538D01*
X6287960Y-1510982D01*
X6284150Y-1510982D01*
X6273228Y-1514538D01*
X6266116Y-1521650D01*
X6262306Y-1532572D01*
X6924997Y-756838D02*
G01*
X6924997Y-833038D01*
X6924997Y-756838D02*
G01*
X6957763Y-756838D01*
X6968685Y-760394D01*
X6972241Y-763950D01*
X6975797Y-771316D01*
X6975797Y-778682D01*
X6972241Y-785794D01*
X6968685Y-789604D01*
X6957763Y-793160D01*
X6924997Y-793160D01*
X6950397Y-793160D02*
G01*
X6975797Y-833038D01*
X7050727Y-756838D02*
G01*
X7014405Y-833038D01*
X6999927Y-756838D02*
G01*
X7050727Y-756838D01*
X3537379Y-494289D02*
G01*
X3537379Y-570743D01*
X3537379Y-494289D02*
G01*
X3570145Y-494289D01*
X3581067Y-497845D01*
X3584877Y-501655D01*
X3588433Y-508767D01*
X3588433Y-516133D01*
X3584877Y-523245D01*
X3581067Y-527055D01*
X3570145Y-530611D01*
X3537379Y-530611D01*
X3563033Y-530611D02*
G01*
X3588433Y-570743D01*
X3630597Y-494289D02*
G01*
X3619675Y-497845D01*
X3616119Y-505211D01*
X3616119Y-512577D01*
X3619675Y-519689D01*
X3627041Y-523245D01*
X3641519Y-527055D01*
X3652441Y-530611D01*
X3659553Y-537977D01*
X3663363Y-545089D01*
X3663363Y-556011D01*
X3659553Y-563377D01*
X3655997Y-566933D01*
X3645075Y-570743D01*
X3630597Y-570743D01*
X3619675Y-566933D01*
X3616119Y-563377D01*
X3612309Y-556011D01*
X3612309Y-545089D01*
X3616119Y-537977D01*
X3623231Y-530611D01*
X3634153Y-527055D01*
X3648885Y-523245D01*
X3655997Y-519689D01*
X3659553Y-512577D01*
X3659553Y-505211D01*
X3655997Y-497845D01*
X3645075Y-494289D01*
X3630597Y-494289D01*
X1525013Y-1006729D02*
G01*
X1525013Y-1083182D01*
X1525013Y-1006729D02*
G01*
X1557779Y-1006729D01*
X1568701Y-1010285D01*
X1572257Y-1014095D01*
X1575813Y-1021206D01*
X1575813Y-1028572D01*
X1572257Y-1035938D01*
X1568701Y-1039495D01*
X1557779Y-1043051D01*
X1525013Y-1043051D01*
X1550413Y-1043051D02*
G01*
X1575813Y-1083182D01*
X1607055Y-1006729D02*
G01*
X1647187Y-1006729D01*
X1625343Y-1035938D01*
X1636265Y-1035938D01*
X1643631Y-1039495D01*
X1647187Y-1043051D01*
X1650743Y-1053972D01*
X1650743Y-1061338D01*
X1647187Y-1072261D01*
X1639821Y-1079372D01*
X1628899Y-1083182D01*
X1617977Y-1083182D01*
X1607055Y-1079372D01*
X1603499Y-1075817D01*
X1599943Y-1068704D01*
X6431714Y-1133952D02*
G01*
X6482768Y-1133952D01*
X6500802Y-1133952D02*
G01*
X6504612Y-1137508D01*
X6508168Y-1133952D01*
X6504612Y-1130142D01*
X6500802Y-1133952D01*
X6431714Y-1106266D02*
G01*
X6508168Y-1106266D01*
X6431714Y-1106266D02*
G01*
X6431714Y-1073500D01*
X6435270Y-1062578D01*
X6439080Y-1059022D01*
X6446192Y-1055212D01*
X6457114Y-1055212D01*
X6464480Y-1059022D01*
X6468036Y-1062578D01*
X6471846Y-1073500D01*
X6471846Y-1106266D01*
X6450002Y-976726D02*
G01*
X6442636Y-980282D01*
X6435270Y-987648D01*
X6431714Y-995014D01*
X6431714Y-1009492D01*
X6435270Y-1016858D01*
X6442636Y-1023970D01*
X6450002Y-1027780D01*
X6460924Y-1031336D01*
X6478958Y-1031336D01*
X6489880Y-1027780D01*
X6497246Y-1023970D01*
X6504612Y-1016858D01*
X6508168Y-1009492D01*
X6508168Y-995014D01*
X6504612Y-987648D01*
X6497246Y-980282D01*
X6489880Y-976726D01*
X6446192Y-952850D02*
G01*
X6442636Y-945484D01*
X6431714Y-934562D01*
X6508168Y-934562D01*
X6431714Y-903320D02*
G01*
X6431714Y-863442D01*
X6460924Y-885032D01*
X6460924Y-874110D01*
X6464480Y-866998D01*
X6468036Y-863442D01*
X6478958Y-859632D01*
X6486324Y-859632D01*
X6497246Y-863442D01*
X6504612Y-870554D01*
X6508168Y-881476D01*
X6508168Y-892398D01*
X6504612Y-903320D01*
X6500802Y-906876D01*
X6493690Y-910686D01*
X1037513Y-632899D02*
G01*
X1030147Y-636709D01*
X1022781Y-643821D01*
X1019225Y-651187D01*
X1019225Y-665665D01*
X1022781Y-673031D01*
X1030147Y-680143D01*
X1037513Y-683953D01*
X1048435Y-687509D01*
X1066469Y-687509D01*
X1077391Y-683953D01*
X1084757Y-680143D01*
X1092123Y-673031D01*
X1095679Y-665665D01*
X1095679Y-651187D01*
X1092123Y-643821D01*
X1084757Y-636709D01*
X1077391Y-632899D01*
X1019225Y-609023D02*
G01*
X1095679Y-609023D01*
X1019225Y-557969D02*
G01*
X1095679Y-557969D01*
X1055547Y-609023D02*
G01*
X1055547Y-557969D01*
X1037513Y-479483D02*
G01*
X1030147Y-483039D01*
X1022781Y-490405D01*
X1019225Y-497771D01*
X1019225Y-512249D01*
X1022781Y-519615D01*
X1030147Y-526727D01*
X1037513Y-530283D01*
X1048435Y-534093D01*
X1066469Y-534093D01*
X1077391Y-530283D01*
X1084757Y-526727D01*
X1092123Y-519615D01*
X1095679Y-512249D01*
X1095679Y-497771D01*
X1092123Y-490405D01*
X1084757Y-483039D01*
X1077391Y-479483D01*
X1066469Y-479483D01*
X1066469Y-497771D02*
G01*
X1066469Y-479483D01*
X1749986Y-56728D02*
G01*
X1749986Y-133182D01*
X1749986Y-56728D02*
G01*
X1782752Y-56728D01*
X1793674Y-60284D01*
X1797230Y-64094D01*
X1800786Y-71206D01*
X1800786Y-82128D01*
X1797230Y-89494D01*
X1793674Y-93050D01*
X1782752Y-96860D01*
X1749986Y-96860D01*
X1824916Y-56728D02*
G01*
X1843204Y-133182D01*
X1861238Y-56728D02*
G01*
X1843204Y-133182D01*
X1861238Y-56728D02*
G01*
X1879526Y-133182D01*
X1897560Y-56728D02*
G01*
X1879526Y-133182D01*
X1921690Y-56728D02*
G01*
X1921690Y-133182D01*
X1921690Y-56728D02*
G01*
X1954456Y-56728D01*
X1965378Y-60284D01*
X1968934Y-64094D01*
X1972490Y-71206D01*
X1972490Y-78572D01*
X1968934Y-85938D01*
X1965378Y-89494D01*
X1954456Y-93050D01*
X1921690Y-93050D01*
X1947090Y-93050D02*
G01*
X1972490Y-133182D01*
X7016691Y-1156726D02*
G01*
X6987481Y-1233180D01*
X7016691Y-1156726D02*
G01*
X7045647Y-1233180D01*
X6998403Y-1207780D02*
G01*
X7034725Y-1207780D01*
X7069777Y-1171204D02*
G01*
X7076889Y-1167648D01*
X7087811Y-1156726D01*
X7087811Y-1233180D01*
X7016691Y-594230D02*
G01*
X6987481Y-670681D01*
X7016691Y-594230D02*
G01*
X7045647Y-670681D01*
X6998403Y-645281D02*
G01*
X7034725Y-645281D01*
X7073333Y-612515D02*
G01*
X7073333Y-608708D01*
X7076889Y-601596D01*
X7080699Y-597783D01*
X7087811Y-594230D01*
X7102289Y-594230D01*
X7109655Y-597783D01*
X7113211Y-601596D01*
X7117021Y-608708D01*
X7117021Y-616074D01*
X7113211Y-623440D01*
X7106099Y-634362D01*
X7069777Y-670681D01*
X7120577Y-670681D01*
X3312495Y-356727D02*
G01*
X3312495Y-433181D01*
X3312495Y-356727D02*
G01*
X3345261Y-356727D01*
X3356183Y-360283D01*
X3359739Y-364093D01*
X3363295Y-371205D01*
X3363295Y-378571D01*
X3359739Y-385937D01*
X3356183Y-389493D01*
X3345261Y-393049D01*
X3312495Y-393049D02*
G01*
X3345261Y-393049D01*
X3356183Y-396859D01*
X3359739Y-400415D01*
X3363295Y-407781D01*
X3363295Y-418703D01*
X3359739Y-425815D01*
X3356183Y-429625D01*
X3345261Y-433181D01*
X3312495Y-433181D01*
X3409269Y-356727D02*
G01*
X3401903Y-360283D01*
X3394791Y-367649D01*
X3390981Y-375015D01*
X3387425Y-385937D01*
X3387425Y-403971D01*
X3390981Y-414893D01*
X3394791Y-422259D01*
X3401903Y-429625D01*
X3409269Y-433181D01*
X3423747Y-433181D01*
X3431113Y-429625D01*
X3438225Y-422259D01*
X3442035Y-414893D01*
X3445591Y-403971D01*
X3445591Y-385937D01*
X3442035Y-375015D01*
X3438225Y-367649D01*
X3431113Y-360283D01*
X3423747Y-356727D01*
X3409269Y-356727D01*
X3491311Y-356727D02*
G01*
X3484199Y-360283D01*
X3476833Y-367649D01*
X3473277Y-375015D01*
X3469467Y-385937D01*
X3469467Y-403971D01*
X3473277Y-414893D01*
X3476833Y-422259D01*
X3484199Y-429625D01*
X3491311Y-433181D01*
X3506043Y-433181D01*
X3513155Y-429625D01*
X3520521Y-422259D01*
X3524077Y-414893D01*
X3527887Y-403971D01*
X3527887Y-385937D01*
X3524077Y-375015D01*
X3520521Y-367649D01*
X3513155Y-360283D01*
X3506043Y-356727D01*
X3491311Y-356727D01*
X3577163Y-356727D02*
G01*
X3577163Y-433181D01*
X3551763Y-356727D02*
G01*
X3602563Y-356727D01*
X6974987Y-131721D02*
G01*
X6974987Y-208175D01*
X6974987Y-208175D02*
G01*
X7018675Y-208175D01*
X6962485Y-1381716D02*
G01*
X6962485Y-1458170D01*
X6962485Y-1381716D02*
G01*
X6995251Y-1381716D01*
X7006173Y-1385272D01*
X7009729Y-1389082D01*
X7013285Y-1396194D01*
X7013285Y-1403560D01*
X7009729Y-1410926D01*
X7006173Y-1414482D01*
X6995251Y-1418038D01*
X6962485Y-1418038D01*
X6987885Y-1418038D02*
G01*
X7013285Y-1458170D01*
X3687493Y-356727D02*
G01*
X3687493Y-433181D01*
X3687493Y-356727D02*
G01*
X3720259Y-356727D01*
X3731181Y-360283D01*
X3734737Y-364093D01*
X3738293Y-371205D01*
X3738293Y-378571D01*
X3734737Y-385937D01*
X3731181Y-389493D01*
X3720259Y-393049D01*
X3687493Y-393049D01*
X3712893Y-393049D02*
G01*
X3738293Y-433181D01*
X3813223Y-367649D02*
G01*
X3806111Y-360283D01*
X3795189Y-356727D01*
X3780457Y-356727D01*
X3769789Y-360283D01*
X3762423Y-367649D01*
X3762423Y-375015D01*
X3765979Y-382127D01*
X3769789Y-385937D01*
X3776901Y-389493D01*
X3798745Y-396859D01*
X3806111Y-400415D01*
X3809667Y-403971D01*
X3813223Y-411337D01*
X3813223Y-422259D01*
X3806111Y-429625D01*
X3795189Y-433181D01*
X3780457Y-433181D01*
X3769789Y-429625D01*
X3762423Y-422259D01*
X3862753Y-356727D02*
G01*
X3862753Y-433181D01*
X3837353Y-356727D02*
G01*
X3888153Y-356727D01*
X49999Y-1369225D02*
G01*
X79209Y-1445679D01*
X108165Y-1369225D02*
G01*
X79209Y-1445679D01*
X132295Y-1369225D02*
G01*
X132295Y-1445679D01*
X132295Y-1369225D02*
G01*
X164807Y-1369225D01*
X175729Y-1372781D01*
X179539Y-1376591D01*
X183095Y-1383703D01*
X183095Y-1391069D01*
X179539Y-1398435D01*
X175729Y-1401991D01*
X164807Y-1405547D01*
X132295Y-1405547D02*
G01*
X164807Y-1405547D01*
X175729Y-1409357D01*
X179539Y-1412913D01*
X183095Y-1420279D01*
X183095Y-1431201D01*
X179539Y-1438313D01*
X175729Y-1442123D01*
X164807Y-1445679D01*
X132295Y-1445679D01*
X236181Y-1369225D02*
G01*
X206971Y-1445679D01*
X236181Y-1369225D02*
G01*
X265391Y-1445679D01*
X217893Y-1420279D02*
G01*
X254469Y-1420279D01*
X314667Y-1369225D02*
G01*
X314667Y-1445679D01*
X289267Y-1369225D02*
G01*
X340067Y-1369225D01*
X367024Y-462523D02*
G01*
X363468Y-455157D01*
X356102Y-447791D01*
X348990Y-444235D01*
X334258Y-444235D01*
X327146Y-447791D01*
X319780Y-455157D01*
X316224Y-462523D01*
X312414Y-473445D01*
X312414Y-491479D01*
X316224Y-502401D01*
X319780Y-509767D01*
X327146Y-517133D01*
X334258Y-520689D01*
X348990Y-520689D01*
X356102Y-517133D01*
X363468Y-509767D01*
X367024Y-502401D01*
X391154Y-458713D02*
G01*
X398266Y-455157D01*
X409188Y-444235D01*
X409188Y-520689D01*
X942019Y-1312511D02*
G01*
X938463Y-1305145D01*
X931097Y-1297779D01*
X923985Y-1294223D01*
X909253Y-1294223D01*
X902141Y-1297779D01*
X894775Y-1305145D01*
X891219Y-1312511D01*
X887409Y-1323433D01*
X887409Y-1341467D01*
X891219Y-1352389D01*
X894775Y-1359755D01*
X902141Y-1367121D01*
X909253Y-1370677D01*
X923985Y-1370677D01*
X931097Y-1367121D01*
X938463Y-1359755D01*
X942019Y-1352389D01*
X969705Y-1312511D02*
G01*
X969705Y-1308701D01*
X973261Y-1301589D01*
X977071Y-1297779D01*
X984183Y-1294223D01*
X998661Y-1294223D01*
X1006027Y-1297779D01*
X1009583Y-1301589D01*
X1013393Y-1308701D01*
X1013393Y-1316067D01*
X1009583Y-1323433D01*
X1002471Y-1334355D01*
X966149Y-1370677D01*
X1016949Y-1370677D01*
X354523Y-975012D02*
G01*
X350967Y-967646D01*
X343601Y-960280D01*
X336489Y-956724D01*
X321757Y-956724D01*
X314645Y-960280D01*
X307279Y-967646D01*
X303723Y-975012D01*
X299913Y-985934D01*
X299913Y-1003968D01*
X303723Y-1014890D01*
X307279Y-1022256D01*
X314645Y-1029622D01*
X321757Y-1033178D01*
X336489Y-1033178D01*
X343601Y-1029622D01*
X350967Y-1022256D01*
X354523Y-1014890D01*
X385765Y-956724D02*
G01*
X425897Y-956724D01*
X404053Y-985934D01*
X414975Y-985934D01*
X422087Y-989490D01*
X425897Y-993046D01*
X429453Y-1003968D01*
X429453Y-1011334D01*
X425897Y-1022256D01*
X418531Y-1029622D01*
X407609Y-1033178D01*
X396687Y-1033178D01*
X385765Y-1029622D01*
X382209Y-1025812D01*
X378653Y-1018700D01*
X4467014Y-1425013D02*
G01*
X4463458Y-1417647D01*
X4456092Y-1410281D01*
X4448980Y-1406725D01*
X4434248Y-1406725D01*
X4427136Y-1410281D01*
X4419770Y-1417647D01*
X4416214Y-1425013D01*
X4412404Y-1435935D01*
X4412404Y-1453969D01*
X4416214Y-1464891D01*
X4419770Y-1472257D01*
X4427136Y-1479623D01*
X4434248Y-1483179D01*
X4448980Y-1483179D01*
X4456092Y-1479623D01*
X4463458Y-1472257D01*
X4467014Y-1464891D01*
X4527466Y-1406725D02*
G01*
X4491144Y-1457779D01*
X4545500Y-1457779D01*
X4527466Y-1406725D02*
G01*
X4527466Y-1483179D01*
X6329512Y-250014D02*
G01*
X6325956Y-242648D01*
X6318590Y-235282D01*
X6311478Y-231726D01*
X6296746Y-231726D01*
X6289634Y-235282D01*
X6282268Y-242648D01*
X6278712Y-250014D01*
X6274902Y-260936D01*
X6274902Y-278970D01*
X6278712Y-289892D01*
X6282268Y-297258D01*
X6289634Y-304624D01*
X6296746Y-308180D01*
X6311478Y-308180D01*
X6318590Y-304624D01*
X6325956Y-297258D01*
X6329512Y-289892D01*
X6353642Y-246204D02*
G01*
X6360754Y-242648D01*
X6371676Y-231726D01*
X6371676Y-308180D01*
X6417650Y-231726D02*
G01*
X6406728Y-235282D01*
X6399362Y-246204D01*
X6395806Y-264492D01*
X6395806Y-275414D01*
X6399362Y-293702D01*
X6406728Y-304624D01*
X6417650Y-308180D01*
X6424762Y-308180D01*
X6435684Y-304624D01*
X6443050Y-293702D01*
X6446606Y-275414D01*
X6446606Y-264492D01*
X6443050Y-246204D01*
X6435684Y-235282D01*
X6424762Y-231726D01*
X6417650Y-231726D01*
X4504568Y-1262514D02*
G01*
X4501012Y-1255148D01*
X4493646Y-1247782D01*
X4486280Y-1244226D01*
X4471802Y-1244226D01*
X4464436Y-1247782D01*
X4457324Y-1255148D01*
X4453514Y-1262514D01*
X4449958Y-1273436D01*
X4449958Y-1291470D01*
X4453514Y-1302392D01*
X4457324Y-1309758D01*
X4464436Y-1317124D01*
X4471802Y-1320680D01*
X4486280Y-1320680D01*
X4493646Y-1317124D01*
X4501012Y-1309758D01*
X4504568Y-1302392D01*
X4572132Y-1244226D02*
G01*
X4535810Y-1244226D01*
X4532254Y-1276992D01*
X4535810Y-1273436D01*
X4546732Y-1269626D01*
X4557654Y-1269626D01*
X4568576Y-1273436D01*
X4575688Y-1280548D01*
X4579498Y-1291470D01*
X4579498Y-1298836D01*
X4575688Y-1309758D01*
X4568576Y-1317124D01*
X4557654Y-1320680D01*
X4546732Y-1320680D01*
X4535810Y-1317124D01*
X4532254Y-1313314D01*
X4528444Y-1306202D01*
X4504568Y-250014D02*
G01*
X4501012Y-242648D01*
X4493646Y-235282D01*
X4486280Y-231726D01*
X4471802Y-231726D01*
X4464436Y-235282D01*
X4457324Y-242648D01*
X4453514Y-250014D01*
X4449958Y-260936D01*
X4449958Y-278970D01*
X4453514Y-289892D01*
X4457324Y-297258D01*
X4464436Y-304624D01*
X4471802Y-308180D01*
X4486280Y-308180D01*
X4493646Y-304624D01*
X4501012Y-297258D01*
X4504568Y-289892D01*
X4572132Y-242648D02*
G01*
X4568576Y-235282D01*
X4557654Y-231726D01*
X4550288Y-231726D01*
X4539366Y-235282D01*
X4532254Y-246204D01*
X4528444Y-264492D01*
X4528444Y-282780D01*
X4532254Y-297258D01*
X4539366Y-304624D01*
X4550288Y-308180D01*
X4554098Y-308180D01*
X4565020Y-304624D01*
X4572132Y-297258D01*
X4575688Y-286336D01*
X4575688Y-282780D01*
X4572132Y-271858D01*
X4565020Y-264492D01*
X4554098Y-260936D01*
X4550288Y-260936D01*
X4539366Y-264492D01*
X4532254Y-271858D01*
X4528444Y-282780D01*
X6167064Y-75016D02*
G01*
X6163508Y-67650D01*
X6156142Y-60284D01*
X6148776Y-56728D01*
X6134298Y-56728D01*
X6126932Y-60284D01*
X6119820Y-67650D01*
X6116010Y-75016D01*
X6112454Y-85938D01*
X6112454Y-103972D01*
X6116010Y-114894D01*
X6119820Y-122260D01*
X6126932Y-129626D01*
X6134298Y-133182D01*
X6148776Y-133182D01*
X6156142Y-129626D01*
X6163508Y-122260D01*
X6167064Y-114894D01*
X6241994Y-56728D02*
G01*
X6205672Y-133182D01*
X6190940Y-56728D02*
G01*
X6241994Y-56728D01*
X6112502Y-1145420D02*
G01*
X6105136Y-1148976D01*
X6097770Y-1156342D01*
X6094214Y-1163708D01*
X6094214Y-1178186D01*
X6097770Y-1185552D01*
X6105136Y-1192664D01*
X6112502Y-1196474D01*
X6123424Y-1200030D01*
X6141458Y-1200030D01*
X6152380Y-1196474D01*
X6159746Y-1192664D01*
X6167112Y-1185552D01*
X6170668Y-1178186D01*
X6170668Y-1163708D01*
X6167112Y-1156342D01*
X6159746Y-1148976D01*
X6152380Y-1145420D01*
X6094214Y-1103256D02*
G01*
X6097770Y-1114178D01*
X6105136Y-1117734D01*
X6112502Y-1117734D01*
X6119614Y-1114178D01*
X6123424Y-1106812D01*
X6126980Y-1092334D01*
X6130536Y-1081412D01*
X6137902Y-1074300D01*
X6145268Y-1070490D01*
X6156190Y-1070490D01*
X6163302Y-1074300D01*
X6167112Y-1077856D01*
X6170668Y-1088778D01*
X6170668Y-1103256D01*
X6167112Y-1114178D01*
X6163302Y-1117734D01*
X6156190Y-1121544D01*
X6145268Y-1121544D01*
X6137902Y-1117734D01*
X6130536Y-1110622D01*
X6126980Y-1099700D01*
X6123424Y-1084968D01*
X6119614Y-1077856D01*
X6112502Y-1074300D01*
X6105136Y-1074300D01*
X6097770Y-1077856D01*
X6094214Y-1088778D01*
X6094214Y-1103256D01*
X5929566Y-1500012D02*
G01*
X5926010Y-1492646D01*
X5918644Y-1485280D01*
X5911278Y-1481724D01*
X5896800Y-1481724D01*
X5889434Y-1485280D01*
X5882322Y-1492646D01*
X5878512Y-1500012D01*
X5874956Y-1510934D01*
X5874956Y-1528968D01*
X5878512Y-1539890D01*
X5882322Y-1547256D01*
X5889434Y-1554622D01*
X5896800Y-1558178D01*
X5911278Y-1558178D01*
X5918644Y-1554622D01*
X5926010Y-1547256D01*
X5929566Y-1539890D01*
X6000686Y-1507124D02*
G01*
X5997130Y-1518046D01*
X5990018Y-1525412D01*
X5979096Y-1528968D01*
X5975286Y-1528968D01*
X5964364Y-1525412D01*
X5957252Y-1518046D01*
X5953442Y-1507124D01*
X5953442Y-1503568D01*
X5957252Y-1492646D01*
X5964364Y-1485280D01*
X5975286Y-1481724D01*
X5979096Y-1481724D01*
X5990018Y-1485280D01*
X5997130Y-1492646D01*
X6000686Y-1507124D01*
X6000686Y-1525412D01*
X5997130Y-1543700D01*
X5990018Y-1554622D01*
X5979096Y-1558178D01*
X5971730Y-1558178D01*
X5960808Y-1554622D01*
X5957252Y-1547256D01*
X6442064Y-550014D02*
G01*
X6438508Y-542648D01*
X6431142Y-535282D01*
X6423776Y-531726D01*
X6409298Y-531726D01*
X6401932Y-535282D01*
X6394820Y-542648D01*
X6391010Y-550014D01*
X6387454Y-560936D01*
X6387454Y-578970D01*
X6391010Y-589892D01*
X6394820Y-597258D01*
X6401932Y-604624D01*
X6409298Y-608180D01*
X6423776Y-608180D01*
X6431142Y-604624D01*
X6438508Y-597258D01*
X6442064Y-589892D01*
X6465940Y-546204D02*
G01*
X6473306Y-542648D01*
X6484228Y-531726D01*
X6484228Y-608180D01*
X6508104Y-546204D02*
G01*
X6515470Y-542648D01*
X6526392Y-531726D01*
X6526392Y-608180D01*
X937414Y-919226D02*
G01*
X937414Y-995679D01*
X937414Y-919226D02*
G01*
X963068Y-919226D01*
X973736Y-922781D01*
X981102Y-930147D01*
X984658Y-937513D01*
X988468Y-948436D01*
X988468Y-966470D01*
X984658Y-977392D01*
X981102Y-984757D01*
X973736Y-992123D01*
X963068Y-995679D01*
X937414Y-995679D01*
X1012344Y-933704D02*
G01*
X1019710Y-930147D01*
X1030632Y-919226D01*
X1030632Y-995679D01*
X637567Y-544225D02*
G01*
X637567Y-620679D01*
X637567Y-620679D02*
G01*
X681255Y-620679D01*
X705131Y-544225D02*
G01*
X705131Y-620679D01*
X705131Y-544225D02*
G01*
X730531Y-544225D01*
X741453Y-547781D01*
X748819Y-555147D01*
X752375Y-562513D01*
X755931Y-573435D01*
X755931Y-591469D01*
X752375Y-602391D01*
X748819Y-609757D01*
X741453Y-617123D01*
X730531Y-620679D01*
X705131Y-620679D01*
X801905Y-544225D02*
G01*
X794539Y-547781D01*
X787427Y-555147D01*
X783617Y-562513D01*
X780061Y-573435D01*
X780061Y-591469D01*
X783617Y-602391D01*
X787427Y-609757D01*
X794539Y-617123D01*
X801905Y-620679D01*
X816383Y-620679D01*
X823749Y-617123D01*
X830861Y-609757D01*
X834671Y-602391D01*
X838227Y-591469D01*
X838227Y-573435D01*
X834671Y-562513D01*
X830861Y-555147D01*
X823749Y-547781D01*
X816383Y-544225D01*
X801905Y-544225D01*
X1187612Y-906724D02*
G01*
X1187612Y-983178D01*
X1187612Y-983178D02*
G01*
X1231046Y-983178D01*
X1255176Y-906724D02*
G01*
X1255176Y-983178D01*
X1279052Y-906724D02*
G01*
X1279052Y-983178D01*
X1279052Y-906724D02*
G01*
X1311818Y-906724D01*
X1322740Y-910280D01*
X1326296Y-914090D01*
X1330106Y-921202D01*
X1330106Y-932124D01*
X1326296Y-939490D01*
X1322740Y-943046D01*
X1311818Y-946856D01*
X1279052Y-946856D01*
X1375826Y-906724D02*
G01*
X1368460Y-910280D01*
X1361348Y-917646D01*
X1357792Y-925012D01*
X1353982Y-935934D01*
X1353982Y-953968D01*
X1357792Y-964890D01*
X1361348Y-972256D01*
X1368460Y-979622D01*
X1375826Y-983178D01*
X1390304Y-983178D01*
X1397670Y-979622D01*
X1405036Y-972256D01*
X1408592Y-964890D01*
X1412148Y-953968D01*
X1412148Y-935934D01*
X1408592Y-925012D01*
X1405036Y-917646D01*
X1397670Y-910280D01*
X1390304Y-906724D01*
X1375826Y-906724D01*
X2462494Y-594227D02*
G01*
X2462494Y-670681D01*
X2462494Y-594227D02*
G01*
X2491704Y-670681D01*
X2520660Y-594227D02*
G01*
X2491704Y-670681D01*
X2520660Y-594227D02*
G01*
X2520660Y-670681D01*
X2544790Y-594227D02*
G01*
X2544790Y-670681D01*
X2623276Y-612515D02*
G01*
X2619466Y-605149D01*
X2612354Y-597783D01*
X2604988Y-594227D01*
X2590510Y-594227D01*
X2583144Y-597783D01*
X2576032Y-605149D01*
X2572222Y-612515D01*
X2568666Y-623437D01*
X2568666Y-641471D01*
X2572222Y-652393D01*
X2576032Y-659759D01*
X2583144Y-667125D01*
X2590510Y-670681D01*
X2604988Y-670681D01*
X2612354Y-667125D01*
X2619466Y-659759D01*
X2623276Y-652393D01*
X1409341Y-56728D02*
G01*
X1401975Y-60284D01*
X1394863Y-67650D01*
X1391053Y-75016D01*
X1387497Y-85938D01*
X1387497Y-103972D01*
X1391053Y-114894D01*
X1394863Y-122260D01*
X1401975Y-129626D01*
X1409341Y-133182D01*
X1423819Y-133182D01*
X1431185Y-129626D01*
X1438297Y-122260D01*
X1442107Y-114894D01*
X1445663Y-103972D01*
X1445663Y-85938D01*
X1442107Y-75016D01*
X1438297Y-67650D01*
X1431185Y-60284D01*
X1423819Y-56728D01*
X1409341Y-56728D01*
X1469793Y-56728D02*
G01*
X1469793Y-133182D01*
X1469793Y-133182D02*
G01*
X1513227Y-133182D01*
X1537357Y-56728D02*
G01*
X1537357Y-133182D01*
X1537357Y-56728D02*
G01*
X1584601Y-56728D01*
X1537357Y-93050D02*
G01*
X1566313Y-93050D01*
X1537357Y-133182D02*
G01*
X1584601Y-133182D01*
X1608477Y-56728D02*
G01*
X1608477Y-133182D01*
X1608477Y-56728D02*
G01*
X1634131Y-56728D01*
X1645053Y-60284D01*
X1652165Y-67650D01*
X1655975Y-75016D01*
X1659531Y-85938D01*
X1659531Y-103972D01*
X1655975Y-114894D01*
X1652165Y-122260D01*
X1645053Y-129626D01*
X1634131Y-133182D01*
X1608477Y-133182D01*
X620816Y-952449D02*
G01*
X618124Y-960170D01*
X618302Y-970409D01*
X620816Y-978311D01*
X626026Y-988550D01*
X638776Y-1001301D01*
X649015Y-1006510D01*
X656917Y-1009025D01*
X667156Y-1009202D01*
X674878Y-1006510D01*
X685116Y-996271D01*
X687809Y-988550D01*
X687631Y-978311D01*
X685116Y-970409D01*
X679907Y-960170D01*
X667156Y-947420D01*
X656917Y-942210D01*
X649015Y-939695D01*
X638776Y-939518D01*
X631055Y-942210D01*
X620816Y-952449D01*
X672363Y-988550D02*
G01*
X703077Y-988369D01*
X673801Y-919939D02*
G01*
X676315Y-912395D01*
X676315Y-896950D01*
X730377Y-951011D01*
X5088458Y-442648D02*
G01*
X5081092Y-435282D01*
X5070170Y-431726D01*
X5055692Y-431726D01*
X5044770Y-435282D01*
X5037404Y-442648D01*
X5037404Y-450014D01*
X5041214Y-457126D01*
X5044770Y-460936D01*
X5052136Y-464492D01*
X5073980Y-471858D01*
X5081092Y-475414D01*
X5084648Y-478970D01*
X5088458Y-486336D01*
X5088458Y-497258D01*
X5081092Y-504624D01*
X5070170Y-508180D01*
X5055692Y-508180D01*
X5044770Y-504624D01*
X5037404Y-497258D01*
X5137734Y-431726D02*
G01*
X5137734Y-508180D01*
X5112334Y-431726D02*
G01*
X5163388Y-431726D01*
X5187264Y-431726D02*
G01*
X5187264Y-508180D01*
X5187264Y-431726D02*
G01*
X5216474Y-508180D01*
X5245430Y-431726D02*
G01*
X5216474Y-508180D01*
X5245430Y-431726D02*
G01*
X5245430Y-508180D01*
X5276672Y-431726D02*
G01*
X5316804Y-431726D01*
X5294960Y-460936D01*
X5305882Y-460936D01*
X5313248Y-464492D01*
X5316804Y-468048D01*
X5320360Y-478970D01*
X5320360Y-486336D01*
X5316804Y-497258D01*
X5309438Y-504624D01*
X5298516Y-508180D01*
X5287594Y-508180D01*
X5276672Y-504624D01*
X5273116Y-500814D01*
X5269560Y-493702D01*
X5348046Y-450014D02*
G01*
X5348046Y-446204D01*
X5351602Y-439092D01*
X5355412Y-435282D01*
X5362524Y-431726D01*
X5377002Y-431726D01*
X5384368Y-435282D01*
X5387924Y-439092D01*
X5391734Y-446204D01*
X5391734Y-453570D01*
X5387924Y-460936D01*
X5380812Y-471858D01*
X5344490Y-508180D01*
X5395290Y-508180D01*
X6199985Y-656727D02*
G01*
X6250785Y-733181D01*
X6250785Y-656727D02*
G01*
X6199985Y-733181D01*
X6274915Y-671205D02*
G01*
X6282281Y-667649D01*
X6293203Y-656727D01*
X6293203Y-733181D01*
X9893216Y-199956D02*
G01*
X9816762Y-199956D01*
X9893216Y-199956D02*
G01*
X9893216Y-247200D01*
X9856894Y-199956D02*
G01*
X9856894Y-229166D01*
X9882294Y-322130D02*
G01*
X9889660Y-315018D01*
X9893216Y-304096D01*
X9893216Y-289364D01*
X9889660Y-278442D01*
X9882294Y-271330D01*
X9874928Y-271330D01*
X9867816Y-274886D01*
X9864006Y-278442D01*
X9860450Y-285808D01*
X9853084Y-307652D01*
X9849528Y-315018D01*
X9845972Y-318574D01*
X9838606Y-322130D01*
X9827684Y-322130D01*
X9820572Y-315018D01*
X9816762Y-304096D01*
X9816762Y-289364D01*
X9820572Y-278442D01*
X9827684Y-271330D01*
X9874928Y-400616D02*
G01*
X9882294Y-397060D01*
X9889660Y-389694D01*
X9893216Y-382582D01*
X9893216Y-368104D01*
X9889660Y-360738D01*
X9882294Y-353372D01*
X9874928Y-349816D01*
X9864006Y-346260D01*
X9845972Y-346260D01*
X9835050Y-349816D01*
X9827684Y-353372D01*
X9820572Y-360738D01*
X9816762Y-368104D01*
X9816762Y-382582D01*
X9820572Y-389694D01*
X9827684Y-397060D01*
X9835050Y-400616D01*
X9791362Y-424746D02*
G01*
X9791362Y-490278D01*
X9893216Y-514154D02*
G01*
X9816762Y-514154D01*
X9893216Y-514154D02*
G01*
X9893216Y-546920D01*
X9889660Y-557842D01*
X9885850Y-561398D01*
X9878738Y-565208D01*
X9871372Y-565208D01*
X9864006Y-561398D01*
X9860450Y-557842D01*
X9856894Y-546920D01*
X9856894Y-514154D02*
G01*
X9856894Y-546920D01*
X9853084Y-557842D01*
X9849528Y-561398D01*
X9842416Y-565208D01*
X9831494Y-565208D01*
X9824128Y-561398D01*
X9820572Y-557842D01*
X9816762Y-546920D01*
X9816762Y-514154D01*
X9893216Y-614484D02*
G01*
X9816762Y-614484D01*
X9893216Y-589084D02*
G01*
X9893216Y-639884D01*
X9878738Y-664014D02*
G01*
X9882294Y-671380D01*
X9893216Y-682302D01*
X9816762Y-682302D01*
X9893216Y-728022D02*
G01*
X9889660Y-717100D01*
X9878738Y-709734D01*
X9860450Y-706178D01*
X9849528Y-706178D01*
X9831494Y-709734D01*
X9820572Y-717100D01*
X9816762Y-728022D01*
X9816762Y-735388D01*
X9820572Y-746056D01*
X9831494Y-753422D01*
X9849528Y-756978D01*
X9860450Y-756978D01*
X9878738Y-753422D01*
X9889660Y-746056D01*
X9893216Y-735388D01*
X9893216Y-728022D01*
X9874928Y-784664D02*
G01*
X9878738Y-784664D01*
X9885850Y-788474D01*
X9889660Y-792030D01*
X9893216Y-799396D01*
X9893216Y-813874D01*
X9889660Y-820986D01*
X9885850Y-824796D01*
X9878738Y-828352D01*
X9871372Y-828352D01*
X9864006Y-824796D01*
X9853084Y-817430D01*
X9816762Y-781108D01*
X9816762Y-831908D01*
X9882294Y-899726D02*
G01*
X9889660Y-895916D01*
X9893216Y-884994D01*
X9893216Y-877882D01*
X9889660Y-866960D01*
X9878738Y-859594D01*
X9860450Y-856038D01*
X9842416Y-856038D01*
X9827684Y-859594D01*
X9820572Y-866960D01*
X9816762Y-877882D01*
X9816762Y-881438D01*
X9820572Y-892360D01*
X9827684Y-899726D01*
X9838606Y-903282D01*
X9842416Y-903282D01*
X9853084Y-899726D01*
X9860450Y-892360D01*
X9864006Y-881438D01*
X9864006Y-877882D01*
X9860450Y-866960D01*
X9853084Y-859594D01*
X9842416Y-856038D01*
X9893216Y-927158D02*
G01*
X9816762Y-927158D01*
X9893216Y-927158D02*
G01*
X9893216Y-952812D01*
X9889660Y-963734D01*
X9882294Y-970846D01*
X9874928Y-974656D01*
X9864006Y-978212D01*
X9845972Y-978212D01*
X9835050Y-974656D01*
X9827684Y-970846D01*
X9820572Y-963734D01*
X9816762Y-952812D01*
X9816762Y-927158D01*
G36*
X6462471Y-1323492D02*
G01*
X6426504Y-1348486D01*
X6498488Y-1349502D01*
G37*
G36*
X1312011Y-551484D02*
G01*
X1286002Y-587502D01*
X1310995Y-623519D01*
G37*
G36*
X1876501Y-201523D02*
G01*
X1875485Y-273507D01*
X1901494Y-237490D01*
G37*
G36*
X1052220Y-786536D02*
G01*
X1052220Y-817016D01*
X1081735Y-817016D01*
X1081735Y-786536D01*
G37*
G36*
X893267Y-786536D02*
G01*
X893267Y-817016D01*
X922782Y-817016D01*
X922782Y-786536D01*
G37*
G36*
X5900013Y-1213104D02*
G01*
X5813094Y-1300022D01*
X5900013Y-1300022D01*
G37*
D12*
X3430541Y-1587398D02*
G01*
X3430541Y-1594398D01*
X3406541Y-1618399D01*
X4221538Y-1618399D01*
X4221538Y-1615396D01*
X4193540Y-1587398D01*
X4193540Y-1218016D02*
G01*
X4193540Y-1587398D01*
X3449540Y-1587398D01*
X3430541Y-1587398D01*
X3430541Y-1231399D01*
X3639428Y-1072398D02*
G01*
X3621539Y-1072398D01*
X3985651Y-1072398D02*
G01*
X3994424Y-1072398D01*
X4963993Y-85023D02*
G01*
X4963993Y-165026D01*
X4853017Y-54038D02*
G01*
X4933015Y-54038D01*
X4853017Y-196004D02*
G01*
X4933015Y-196004D01*
X4795428Y-53456D02*
G01*
X4715428Y-53456D01*
X4684445Y-84439D02*
G01*
X4684445Y-164437D01*
X4795428Y-195417D02*
G01*
X4715428Y-195417D01*
D13*
X1152375Y-1274856D02*
G01*
X1080571Y-1274856D01*
X1080571Y-1175136D01*
X1152375Y-1175136D01*
X1197617Y-1274856D02*
G01*
X1269420Y-1274856D01*
X1269420Y-1175136D01*
X1197617Y-1175136D01*
X1447617Y-1175136D02*
G01*
X1519420Y-1175136D01*
X1519420Y-1274856D01*
X1447617Y-1274856D01*
X1402374Y-1175136D02*
G01*
X1330571Y-1175136D01*
X1330571Y-1274856D01*
X1402374Y-1274856D01*
X1827375Y-449861D02*
G01*
X1755571Y-449861D01*
X1755571Y-350141D01*
X1827375Y-350141D01*
X1872617Y-449861D02*
G01*
X1944420Y-449861D01*
X1944420Y-350141D01*
X1872617Y-350141D01*
X5985108Y-175140D02*
G01*
X6056911Y-175140D01*
X6056911Y-274861D01*
X5985108Y-274861D01*
X5939866Y-175140D02*
G01*
X5868062Y-175140D01*
X5868062Y-274861D01*
X5939866Y-274861D01*
X6272608Y-1362636D02*
G01*
X6344411Y-1362636D01*
X6344411Y-1462356D01*
X6272608Y-1462356D01*
X6227366Y-1362636D02*
G01*
X6155563Y-1362636D01*
X6155563Y-1462356D01*
X6227366Y-1462356D01*
X6777365Y-849858D02*
G01*
X6705561Y-849858D01*
X6705561Y-750138D01*
X6777365Y-750138D01*
X6822607Y-849858D02*
G01*
X6894410Y-849858D01*
X6894410Y-750138D01*
X6822607Y-750138D01*
X3435113Y-487639D02*
G01*
X3506917Y-487639D01*
X3506917Y-587359D01*
X3435113Y-587359D01*
X3389871Y-487639D02*
G01*
X3318068Y-487639D01*
X3318068Y-587359D01*
X3389871Y-587359D01*
X1637357Y-910120D02*
G01*
X1637357Y-981923D01*
X1537637Y-981923D01*
X1537637Y-910120D01*
X1637357Y-864877D02*
G01*
X1637357Y-793074D01*
X1537637Y-793074D01*
X1537637Y-864877D01*
D11*
X6389486Y-1300497D02*
G01*
X6389486Y-1185499D01*
X6534485Y-1185499D01*
X6534485Y-1305499D01*
X6535486Y-1367497D02*
G01*
X6535486Y-1491498D01*
X6390487Y-1491498D01*
X6390487Y-1367497D01*
X6389486Y-1185499D02*
G01*
X6389486Y-1182496D01*
X6409486Y-1162497D01*
X6511485Y-1162497D01*
X6514485Y-1165499D01*
X6534485Y-1185499D01*
X1262997Y-660499D02*
G01*
X1147998Y-660499D01*
X1147998Y-515500D01*
X1267998Y-515500D01*
X1329997Y-514499D02*
G01*
X1453997Y-514499D01*
X1453997Y-659498D01*
X1329997Y-659498D01*
X1147998Y-660499D02*
G01*
X1144996Y-660499D01*
X1124996Y-640499D01*
X1124996Y-538500D01*
X1127998Y-535500D01*
X1147998Y-515500D01*
X1924497Y-164500D02*
G01*
X2039495Y-164500D01*
X2039495Y-309498D01*
X1919495Y-309498D01*
X1857496Y-310499D02*
G01*
X1733496Y-310499D01*
X1733496Y-165501D01*
X1857496Y-165501D01*
X2039495Y-164500D02*
G01*
X2042497Y-164500D01*
X2062497Y-184500D01*
X2062497Y-286499D01*
X2059495Y-289499D01*
X2039495Y-309498D01*
D12*
X6949975Y-1225014D02*
G01*
X6949975Y-1185819D01*
X6949975Y-964592D02*
G01*
X6949975Y-925012D01*
X6649974Y-925012D02*
G01*
X6649974Y-964592D01*
X6649974Y-1185819D02*
G01*
X6649974Y-1225014D01*
X6949975Y-1225014D02*
G01*
X6910448Y-1225014D01*
X6689374Y-1225014D02*
G01*
X6649974Y-1225014D01*
X6949975Y-925012D02*
G01*
X6910448Y-925012D01*
X6689222Y-925012D02*
G01*
X6649974Y-925012D01*
X6649996Y-374985D02*
G01*
X6649996Y-414182D01*
X6649996Y-635408D02*
G01*
X6649996Y-674989D01*
X6949998Y-674989D02*
G01*
X6949998Y-635408D01*
X6949998Y-414182D02*
G01*
X6949998Y-374985D01*
X6649996Y-374985D02*
G01*
X6689524Y-374985D01*
X6910598Y-374985D02*
G01*
X6949998Y-374985D01*
X6649996Y-674989D02*
G01*
X6689524Y-674989D01*
X6910750Y-674989D02*
G01*
X6949998Y-674989D01*
X3564493Y-235978D02*
G01*
X3564493Y-317500D01*
X3564493Y-82499D02*
G01*
X3564493Y-164020D01*
X3310493Y-268701D02*
G01*
X3310493Y-317500D01*
X3310493Y-82499D02*
G01*
X3310493Y-131297D01*
X3564493Y-317500D02*
G01*
X3310493Y-317500D01*
X3564493Y-82499D02*
G01*
X3310493Y-82499D01*
X6926986Y-210980D02*
G01*
X6926986Y-292501D01*
X6926986Y-57500D02*
G01*
X6926986Y-139021D01*
X6672986Y-243702D02*
G01*
X6672986Y-292501D01*
X6672986Y-57500D02*
G01*
X6672986Y-106298D01*
X6926986Y-292501D02*
G01*
X6672986Y-292501D01*
X6926986Y-57500D02*
G01*
X6672986Y-57500D01*
X6672986Y-1389019D02*
G01*
X6672986Y-1307498D01*
X6672986Y-1542498D02*
G01*
X6672986Y-1460977D01*
X6926986Y-1356296D02*
G01*
X6926986Y-1307498D01*
X6926986Y-1542498D02*
G01*
X6926986Y-1493700D01*
X6672986Y-1307498D02*
G01*
X6926986Y-1307498D01*
X6672986Y-1542498D02*
G01*
X6926986Y-1542498D01*
X3914493Y-235978D02*
G01*
X3914493Y-317500D01*
X3914493Y-82499D02*
G01*
X3914493Y-164020D01*
X3660493Y-268701D02*
G01*
X3660493Y-317500D01*
X3660493Y-82499D02*
G01*
X3660493Y-131297D01*
X3914493Y-317500D02*
G01*
X3660493Y-317500D01*
X3914493Y-82499D02*
G01*
X3660493Y-82499D01*
X235978Y-1072997D02*
G01*
X317500Y-1072997D01*
X82499Y-1072997D02*
G01*
X164020Y-1072997D01*
X268701Y-1326997D02*
G01*
X317500Y-1326997D01*
X82499Y-1326997D02*
G01*
X131297Y-1326997D01*
X317500Y-1072997D02*
G01*
X317500Y-1326997D01*
X82499Y-1072997D02*
G01*
X82499Y-1326997D01*
X422521Y-560997D02*
G01*
X502523Y-560997D01*
X391535Y-671972D02*
G01*
X391535Y-591974D01*
X533501Y-671972D02*
G01*
X533501Y-591974D01*
X390954Y-729561D02*
G01*
X390954Y-809561D01*
X421937Y-840544D02*
G01*
X501934Y-840544D01*
X532914Y-729561D02*
G01*
X532914Y-809561D01*
X876498Y-1185019D02*
G01*
X876498Y-1265021D01*
X765522Y-1154033D02*
G01*
X845520Y-1154033D01*
X765522Y-1295999D02*
G01*
X845520Y-1295999D01*
X707933Y-1153452D02*
G01*
X627933Y-1153452D01*
X596950Y-1184435D02*
G01*
X596950Y-1264432D01*
X707933Y-1295412D02*
G01*
X627933Y-1295412D01*
X422521Y-1060996D02*
G01*
X502523Y-1060996D01*
X391535Y-1171971D02*
G01*
X391535Y-1091973D01*
X533501Y-1171971D02*
G01*
X533501Y-1091973D01*
X390954Y-1229560D02*
G01*
X390954Y-1309560D01*
X421937Y-1340543D02*
G01*
X501934Y-1340543D01*
X532914Y-1229560D02*
G01*
X532914Y-1309560D01*
X4863993Y-1410020D02*
G01*
X4863993Y-1490022D01*
X4753018Y-1379034D02*
G01*
X4833015Y-1379034D01*
X4753018Y-1521000D02*
G01*
X4833015Y-1521000D01*
X4695428Y-1378452D02*
G01*
X4615428Y-1378452D01*
X4584445Y-1409435D02*
G01*
X4584445Y-1489433D01*
X4695428Y-1520413D02*
G01*
X4615428Y-1520413D01*
X6123485Y-452475D02*
G01*
X6123485Y-372473D01*
X6234460Y-483461D02*
G01*
X6154463Y-483461D01*
X6234460Y-341495D02*
G01*
X6154463Y-341495D01*
X6292049Y-484042D02*
G01*
X6372049Y-484042D01*
X6403032Y-453059D02*
G01*
X6403032Y-373062D01*
X6292049Y-342082D02*
G01*
X6372049Y-342082D01*
D13*
X4826622Y-1237637D02*
G01*
X4747613Y-1237637D01*
X4747613Y-1337358D02*
G01*
X4826622Y-1337358D01*
X4841862Y-1322118D02*
G01*
X4841862Y-1252877D01*
X4623361Y-1237637D02*
G01*
X4702370Y-1237637D01*
X4702370Y-1337358D02*
G01*
X4623361Y-1337358D01*
X4608121Y-1322118D02*
G01*
X4608121Y-1252877D01*
X4826622Y-225140D02*
G01*
X4747613Y-225140D01*
X4747613Y-324860D02*
G01*
X4826622Y-324860D01*
X4841862Y-309620D02*
G01*
X4841862Y-240380D01*
X4623361Y-225140D02*
G01*
X4702370Y-225140D01*
X4702370Y-324860D02*
G01*
X4623361Y-324860D01*
X4608121Y-309620D02*
G01*
X4608121Y-240380D01*
X5860856Y-149860D02*
G01*
X5939866Y-149860D01*
X5939866Y-50139D02*
G01*
X5860856Y-50139D01*
X5845616Y-65379D02*
G01*
X5845616Y-134620D01*
X6064117Y-149860D02*
G01*
X5985108Y-149860D01*
X5985108Y-50139D02*
G01*
X6064117Y-50139D01*
X6079357Y-65379D02*
G01*
X6079357Y-134620D01*
X6048357Y-1324858D02*
G01*
X6127366Y-1324858D01*
X6127366Y-1225138D02*
G01*
X6048357Y-1225138D01*
X6033117Y-1240378D02*
G01*
X6033117Y-1309618D01*
X6251618Y-1324858D02*
G01*
X6172608Y-1324858D01*
X6172608Y-1225138D02*
G01*
X6251618Y-1225138D01*
X6266858Y-1240378D02*
G01*
X6266858Y-1309618D01*
X5848357Y-1462356D02*
G01*
X5927366Y-1462356D01*
X5927366Y-1362636D02*
G01*
X5848357Y-1362636D01*
X5833117Y-1377876D02*
G01*
X5833117Y-1447116D01*
X6051618Y-1462356D02*
G01*
X5972609Y-1462356D01*
X5972609Y-1362636D02*
G01*
X6051618Y-1362636D01*
X6066858Y-1377876D02*
G01*
X6066858Y-1447116D01*
X6135857Y-624860D02*
G01*
X6214866Y-624860D01*
X6214866Y-525139D02*
G01*
X6135857Y-525139D01*
X6120617Y-540379D02*
G01*
X6120617Y-609620D01*
X6339118Y-624860D02*
G01*
X6260109Y-624860D01*
X6260109Y-525139D02*
G01*
X6339118Y-525139D01*
X6354358Y-540379D02*
G01*
X6354358Y-609620D01*
X1074115Y-809381D02*
G01*
X1074115Y-1090615D01*
X1074115Y-1090615D02*
G01*
X1057315Y-1090615D01*
X900877Y-809381D02*
G01*
X900877Y-1090615D01*
X900877Y-1090615D02*
G01*
X917676Y-1090615D01*
X1074115Y-845068D02*
G01*
X900877Y-845068D01*
D12*
X585099Y-517646D02*
G01*
X585094Y-657344D01*
X877194Y-545251D02*
G01*
X877194Y-629729D01*
X699399Y-498594D02*
G01*
X775594Y-498594D01*
X1455003Y-1040003D02*
G01*
X1455003Y-860000D01*
X1340004Y-1040003D02*
G01*
X1260002Y-1040003D01*
X1145001Y-1040003D02*
G01*
X1145001Y-860000D01*
X2418994Y-291998D02*
G01*
X3180994Y-291998D01*
X3180994Y-545998D01*
X2418994Y-545998D02*
G01*
X3180994Y-545998D01*
X2418994Y-291998D02*
G01*
X2418994Y-545998D01*
X2677838Y-291998D02*
G01*
X2677838Y-545998D01*
X2418994Y-1053998D02*
G01*
X3180994Y-1053998D01*
X3180994Y-1307998D01*
X2418994Y-1307998D02*
G01*
X3180994Y-1307998D01*
X2418994Y-1053998D02*
G01*
X2418994Y-1307998D01*
X2677838Y-1053998D02*
G01*
X2677838Y-1307998D01*
D10*
X1320497Y-35499D02*
G01*
X1320497Y-289499D01*
X304497Y-289499D01*
X304497Y-35499D01*
X494997Y-35499D01*
D14*
X1320497Y-35499D02*
G01*
X494997Y-35499D01*
D15*
X751398Y-1096660D02*
G01*
X751398Y-1102398D01*
X586298Y-1102398D01*
X751398Y-906665D02*
G01*
X751398Y-993330D01*
X586298Y-898331D02*
G01*
X586298Y-797598D01*
X751398Y-797598D01*
X751398Y-803338D01*
X586298Y-1102398D02*
G01*
X586298Y-1001664D01*
D12*
X5813110Y-1299997D02*
G01*
X5813110Y-1299994D01*
X5899988Y-1213116D01*
X4899990Y-299999D02*
G01*
X4899990Y-386877D01*
X4899990Y-299999D02*
G01*
X4986870Y-299999D01*
X4986870Y-1299997D02*
G01*
X4899990Y-1299997D01*
X4899990Y-1213116D01*
X5899988Y-1213116D02*
G01*
X5899988Y-1299997D01*
X5813110Y-1299997D01*
X5813110Y-299999D02*
G01*
X5899988Y-299999D01*
X5899988Y-386880D01*
D16*
X4974988Y-1224998D02*
G01*
X5824989Y-1224998D01*
X5824989Y-374997D01*
X4974988Y-374997D01*
X4974988Y-1224998D01*
D12*
X6339987Y-760003D02*
G01*
X6209990Y-760003D01*
X6209990Y-1139992D02*
G01*
X6339987Y-1139992D01*
X6209990Y-1021778D02*
G01*
X6209990Y-998105D01*
X6209990Y-901890D02*
G01*
X6209990Y-878217D01*
X6339987Y-1021778D02*
G01*
X6339987Y-998105D01*
X6339987Y-901890D02*
G01*
X6339987Y-878217D01*
X9949980Y-1449997D02*
G01*
X9512480Y-1449997D01*
X9949980Y-149999D02*
G01*
X9512480Y-149999D01*
X7357485Y-1450007D02*
G01*
X7287463Y-1450007D01*
X7287450Y-1449994D02*
G01*
X7287450Y-1330002D01*
X7357483Y-150004D02*
G01*
X7287453Y-150103D01*
X7287453Y-270007D01*
G75*
G01*
X4684441Y-84440D02*
G02*
X4715424Y-53457I30983J0D01*
G75*
G01*
X4715424Y-195423D02*
G02*
X4684441Y-164437I0J30983D01*
G75*
G01*
X4933010Y-54039D02*
G02*
X4963993Y-85024I0J-30982D01*
G75*
G01*
X4963993Y-165021D02*
G02*
X4933010Y-196004I-30983J0D01*
G75*
G01*
X421937Y-840550D02*
G02*
X390954Y-809567I0J30983D01*
G75*
G01*
X532920Y-809567D02*
G02*
X501934Y-840550I-30983J0D01*
G75*
G01*
X391536Y-591980D02*
G02*
X422521Y-560997I30983J0D01*
G75*
G01*
X502519Y-560997D02*
G02*
X533502Y-591980I0J-30983D01*
G75*
G01*
X596946Y-1184435D02*
G02*
X627929Y-1153452I30983J0D01*
G75*
G01*
X627929Y-1295418D02*
G02*
X596946Y-1264432I0J30983D01*
G75*
G01*
X845515Y-1154034D02*
G02*
X876498Y-1185019I0J-30983D01*
G75*
G01*
X876498Y-1265017D02*
G02*
X845515Y-1295999I-30983J0D01*
G75*
G01*
X421937Y-1340549D02*
G02*
X390954Y-1309566I0J30983D01*
G75*
G01*
X532920Y-1309566D02*
G02*
X501934Y-1340549I-30983J0D01*
G75*
G01*
X391536Y-1091979D02*
G02*
X422521Y-1060996I30983J0D01*
G75*
G01*
X502519Y-1060996D02*
G02*
X533502Y-1091979I0J-30983D01*
G75*
G01*
X4584441Y-1409436D02*
G02*
X4615424Y-1378453I30983J0D01*
G75*
G01*
X4615424Y-1520419D02*
G02*
X4584441Y-1489433I0J30983D01*
G75*
G01*
X4833010Y-1379035D02*
G02*
X4863993Y-1410020I0J-30982D01*
G75*
G01*
X4863993Y-1490017D02*
G02*
X4833010Y-1521000I-30983J0D01*
G75*
G01*
X6403038Y-453060D02*
G02*
X6372055Y-484043I-30983J0D01*
G75*
G01*
X6372055Y-342077D02*
G02*
X6403038Y-373062I0J-30983D01*
G75*
G01*
X6154468Y-483461D02*
G02*
X6123485Y-452476I0J30983D01*
G75*
G01*
X6123485Y-372478D02*
G02*
X6154468Y-341495I30983J0D01*
D13*
G75*
G01*
X4826622Y-1337358D02*
G03*
X4841862Y-1322118I0J15240D01*
G75*
G01*
X4841862Y-1252878D02*
G03*
X4826622Y-1237638I-15240J0D01*
G75*
G01*
X4623361Y-1337358D02*
G02*
X4608121Y-1322118I0J15240D01*
G75*
G01*
X4608121Y-1252878D02*
G02*
X4623361Y-1237638I15240J0D01*
G75*
G01*
X4826622Y-324861D02*
G03*
X4841862Y-309621I0J15240D01*
G75*
G01*
X4841862Y-240381D02*
G03*
X4826622Y-225141I-15240J0D01*
G75*
G01*
X4623361Y-324861D02*
G02*
X4608121Y-309621I0J15240D01*
G75*
G01*
X4608121Y-240381D02*
G02*
X4623361Y-225141I15240J0D01*
G75*
G01*
X5860857Y-50140D02*
G03*
X5845617Y-65380I0J-15240D01*
G75*
G01*
X5845617Y-134620D02*
G03*
X5860857Y-149860I15240J0D01*
G75*
G01*
X6064118Y-50140D02*
G02*
X6079358Y-65380I0J-15240D01*
G75*
G01*
X6079358Y-134620D02*
G02*
X6064118Y-149860I-15240J0D01*
G75*
G01*
X6048357Y-1225139D02*
G03*
X6033117Y-1240379I0J-15240D01*
G75*
G01*
X6033117Y-1309619D02*
G03*
X6048357Y-1324859I15240J0D01*
G75*
G01*
X6251618Y-1225139D02*
G02*
X6266858Y-1240379I0J-15240D01*
G75*
G01*
X6266858Y-1309619D02*
G02*
X6251618Y-1324859I-15240J0D01*
G75*
G01*
X5848358Y-1362636D02*
G03*
X5833118Y-1377876I0J-15240D01*
G75*
G01*
X5833118Y-1447117D02*
G03*
X5848358Y-1462357I15240J0D01*
G75*
G01*
X6051619Y-1362636D02*
G02*
X6066859Y-1377876I0J-15240D01*
G75*
G01*
X6066859Y-1447117D02*
G02*
X6051619Y-1462357I-15240J0D01*
G75*
G01*
X6135858Y-525140D02*
G03*
X6120618Y-540380I0J-15240D01*
G75*
G01*
X6120618Y-609620D02*
G03*
X6135858Y-624860I15240J0D01*
G75*
G01*
X6339119Y-525140D02*
G02*
X6354359Y-540380I0J-15240D01*
G75*
G01*
X6354359Y-609620D02*
G02*
X6339119Y-624860I-15240J0D01*
D17*
G75*
G01*
X5702503Y-1129944D02*
G03*
X5702503Y-1129436I29999J254D01*
D18*
G75*
G01*
X5948987Y-1236124D02*
G03*
X5948987Y-1235870I15001J127D01*
D12*
G75*
G01
X6934327Y-890524D02*
G03X6934327Y-890524I-5436J0D01*
G75*
G01
X6676542Y-709473D02*
G03X6676542Y-709473I-5436J0D01*
G75*
G01
X1477797Y-797611D02*
G03X1477797Y-797611I-12700J0D01*
M02*
