G04 Layer: TopLayer*
G04 EasyEDA v6.5.22, 2023-02-02 12:04:13*
G04 e40c6f2ac48d42a8ab01bc531f02f979,d89026aa57f64e8aa15d5895f5b481f1,10*
G04 Gerber Generator version 0.2*
G04 Scale: 100 percent, Rotated: No, Reflected: No *
G04 Dimensions in millimeters *
G04 leading zeros omitted , absolute positions ,4 integer and 5 decimal *
%FSLAX45Y45*%
%MOMM*%

%AMMACRO1*4,1,5,1.05,-0.8,1.05,0.8,-1.05,0.8,-1.05,0.45,0.1999,-0.8,1.05,-0.8,0*%
%AMMACRO2*4,1,5,-1.05,-0.8,-1.05,0.8,1.05,0.8,1.0499,0.45,-0.2001,-0.8,-1.05,-0.8,0*%
%AMMACRO3*21,1,$1,$2,0,0,$3*%
%ADD10C,0.2540*%
%ADD11C,0.2500*%
%ADD12C,0.6000*%
%ADD13C,0.5000*%
%ADD14C,0.3000*%
%ADD15R,0.4000X2.0000*%
%ADD16MACRO1*%
%ADD17MACRO2*%
%ADD18R,0.8000X0.9000*%
%ADD19MACRO3,0.54X0.5656X90.0000*%
%ADD20MACRO3,0.54X0.5656X-90.0000*%
%ADD21MACRO3,0.54X0.5656X0.0000*%
%ADD22R,0.5400X0.5657*%
%ADD23R,1.0000X0.8999*%
%ADD24R,0.8999X1.0000*%
%ADD25R,0.2500X0.6000*%
%ADD26R,0.6000X0.2500*%
%ADD27R,1.5000X1.5000*%
%ADD28R,0.9000X0.8000*%
%ADD29MACRO3,0.54X0.7901X90.0000*%
%ADD30MACRO3,0.54X0.7901X-90.0000*%
%ADD31R,1.1500X0.9500*%
%ADD32R,0.6000X1.0000*%
%ADD33R,1.2500X0.7000*%
%ADD34O,0.2999994X1.9999959999999999*%
%ADD35O,1.9999959999999999X0.2999994*%
%ADD36R,1.7000X0.6500*%
%ADD37R,1.7000X0.5000*%
%ADD38R,0.6000X2.0000*%
%ADD39R,2.0000X0.6000*%
%ADD40O,1.499997X1.9999959999999999*%
%ADD41R,1.0000X1.0000*%
%ADD42C,1.0000*%
%ADD43C,1.5748*%
%ADD44R,1.5748X1.5748*%
%ADD45C,0.6096*%
%ADD46C,0.0168*%

%LPD*%
D10*
X3812491Y-1104999D02*
G01*
X3812491Y-979599D01*
X3800292Y-967399D01*
X3800292Y-865799D01*
X3800292Y-830419D01*
X3811310Y-819401D01*
X4274477Y-819401D01*
X4433173Y-978098D01*
X4475373Y-1020297D01*
X4633716Y-1020297D01*
X4735316Y-1020297D01*
X4740010Y-1024991D01*
X4825009Y-1024991D01*
X3747493Y-1104999D02*
G01*
X3747493Y-979599D01*
X3759692Y-967399D01*
X3759692Y-865799D01*
X3759692Y-813602D01*
X3794493Y-778802D01*
X4291294Y-778802D01*
X4449991Y-937498D01*
X4492190Y-979698D01*
X4633716Y-979698D01*
X4735316Y-979698D01*
X4740010Y-975004D01*
X4825009Y-975004D01*
D11*
X3053994Y-418998D02*
G01*
X3053994Y-246001D01*
X3224994Y-75001D01*
X4587491Y-75001D01*
D12*
X9237512Y-1450022D02*
G01*
X9237477Y-1449992D01*
X9237477Y-1287515D01*
X9437502Y-1450007D02*
G01*
X9437471Y-1449976D01*
X9437471Y-1287500D01*
X7837505Y-1450012D02*
G01*
X7837505Y-1299999D01*
X7537500Y-1450009D02*
G01*
X7537500Y-1299997D01*
D11*
X6824979Y-1181298D02*
G01*
X6824979Y-1274991D01*
X6849986Y-1299997D01*
X7024984Y-1299997D01*
X7049985Y-1324998D01*
D13*
X6182995Y-575005D02*
G01*
X6192494Y-565505D01*
X6192494Y-501848D01*
X6192494Y-501848D02*
G01*
X6192494Y-412495D01*
D14*
X5974968Y-624992D02*
G01*
X5762487Y-624992D01*
D13*
X6332499Y-412495D02*
G01*
X6412486Y-412495D01*
X6291986Y-575005D02*
G01*
X6332499Y-534492D01*
X6332499Y-412495D01*
D14*
X5908040Y-100076D02*
G01*
X5887465Y-100076D01*
X5849874Y-62484D01*
X5700013Y-62484D01*
X5674868Y-87376D01*
X5674868Y-337621D01*
X5624990Y-387499D01*
X5724984Y-225016D02*
G01*
X5724984Y-387502D01*
X5724982Y-387502D01*
D13*
X6005779Y-224993D02*
G01*
X6005779Y-325000D01*
X6017006Y-99999D02*
G01*
X6005779Y-111226D01*
X6005779Y-224993D01*
D14*
X5225034Y-225044D02*
G01*
X5225034Y-337565D01*
X5350002Y-462534D01*
X5750052Y-462534D01*
X5919215Y-293370D01*
X5919215Y-225044D01*
D13*
X4794986Y-1450009D02*
G01*
X4912489Y-1450009D01*
D14*
X5074996Y-225018D02*
G01*
X5074996Y-412498D01*
D13*
X4562490Y-199999D02*
G01*
X4670475Y-199999D01*
X4754981Y-124993D02*
G01*
X4670475Y-209499D01*
X4670475Y-275005D01*
D14*
X4825009Y-1124991D02*
G01*
X4687498Y-1124991D01*
X4624992Y-1187498D01*
D13*
X4670475Y-1287500D02*
G01*
X4670475Y-1232982D01*
X4624992Y-1187498D01*
X4654981Y-1450009D02*
G01*
X4670475Y-1434515D01*
X4670475Y-1287500D01*
X3942486Y-1105001D02*
G01*
X3942486Y-1332504D01*
X3899992Y-1374998D01*
X3500003Y-624994D02*
G01*
X3455797Y-580788D01*
X3455797Y-537507D01*
X737488Y-697509D02*
G01*
X737496Y-587496D01*
X299999Y-699996D02*
G01*
X370004Y-770001D01*
X462508Y-770001D01*
X462508Y-1270000D02*
G01*
X507517Y-1224991D01*
X563293Y-1224991D01*
X563293Y-1224991D02*
G01*
X667486Y-1224991D01*
X1131719Y-1224991D02*
G01*
X1062507Y-1294203D01*
X1062507Y-1350010D01*
X1468272Y-1224991D02*
G01*
X1487497Y-1205765D01*
X1487497Y-1124999D01*
X1587500Y-930782D02*
G01*
X1354226Y-930782D01*
X1205001Y-1080007D01*
D11*
X1394993Y-819988D02*
G01*
X1394993Y-732495D01*
X1250000Y-587502D01*
X1215009Y-587502D01*
X1385003Y-587499D02*
G01*
X1524998Y-587499D01*
X1587497Y-649998D01*
X1587497Y-844217D01*
D13*
X1299994Y-819988D02*
G01*
X1299994Y-737486D01*
X1275003Y-712495D01*
D11*
X6843268Y-799998D02*
G01*
X6843268Y-737615D01*
X6874840Y-924991D02*
G01*
X6924992Y-924991D01*
X7112485Y-737499D01*
X6649986Y-699998D02*
G01*
X6674980Y-675004D01*
X6725132Y-675004D01*
X8937497Y-150012D02*
G01*
X8937497Y-399999D01*
X9037482Y-325000D02*
G01*
X9037497Y-150012D01*
X5662488Y-949998D02*
G01*
X5662488Y-1112497D01*
X6587490Y-712470D02*
G01*
X6587490Y-949960D01*
X6649974Y-599694D02*
G01*
X6600190Y-599694D01*
X6587490Y-612394D01*
X6587490Y-712470D01*
X7031888Y-949960D02*
G01*
X7031888Y-980594D01*
X7012282Y-1000201D01*
X6949998Y-1000201D01*
X9137482Y-949960D02*
G01*
X9137497Y-150012D01*
X6512483Y-1024991D02*
G01*
X6512483Y-562500D01*
X6575188Y-499795D01*
X6649976Y-499795D01*
X8837482Y-1024999D02*
G01*
X8837498Y-150012D01*
X6949998Y-1100201D02*
G01*
X7049782Y-1100201D01*
X7124984Y-1024999D01*
X6649974Y-1150112D02*
G01*
X6587490Y-1150112D01*
X6587490Y-1150112D02*
G01*
X6587490Y-1150112D01*
X6587490Y-1112520D01*
X6600190Y-1100073D01*
X6649974Y-1100073D01*
X6824979Y-1224991D02*
G01*
X6824979Y-1099997D01*
X6799986Y-1075004D01*
X6949998Y-1050213D02*
G01*
X6824776Y-1050213D01*
X6799986Y-1075004D01*
X6774840Y-924991D02*
G01*
X6774840Y-1049858D01*
X6799986Y-1075004D01*
X6775195Y-674878D02*
G01*
X6775195Y-725170D01*
X6787641Y-737615D01*
X6987286Y-737615D01*
X7012431Y-712470D01*
X7012485Y-449999D01*
X6949973Y-499795D02*
G01*
X7012485Y-499795D01*
X7012485Y-449999D02*
G01*
X7012485Y-449999D01*
X6999731Y-449834D01*
X6949947Y-449834D01*
X6875145Y-675004D02*
G01*
X6875145Y-737499D01*
X6825132Y-675004D02*
G01*
X6825132Y-550138D01*
X6799986Y-524992D01*
X6724827Y-924991D02*
G01*
X6724827Y-875156D01*
X6756704Y-843279D01*
X6756704Y-799998D01*
X6824827Y-924991D02*
G01*
X6824827Y-862657D01*
X6843268Y-844217D01*
X6843268Y-799998D01*
X6774992Y-375005D02*
G01*
X6774992Y-499998D01*
X6799986Y-524992D01*
X6649999Y-549782D02*
G01*
X6775195Y-549782D01*
X6799986Y-524992D01*
X6674993Y-287502D02*
G01*
X6737484Y-287502D01*
X6774990Y-325010D01*
X6774990Y-375003D01*
D12*
X7287493Y-349989D02*
G01*
X7287516Y-350012D01*
X7424978Y-350012D01*
D14*
X5662498Y-750011D02*
G01*
X5087475Y-750011D01*
X4962486Y-874996D01*
X4825006Y-875004D01*
X8137499Y-150012D02*
G01*
X8137499Y-874999D01*
X8237474Y-812495D02*
G01*
X8237474Y-150037D01*
X8237499Y-150012D01*
X4825006Y-924991D02*
G01*
X5012494Y-924991D01*
X5124991Y-812495D01*
X5762497Y-812495D01*
X7937500Y-150012D02*
G01*
X8037499Y-150012D01*
X6004483Y-1412496D02*
G01*
X6004483Y-1466977D01*
X6050000Y-1512493D01*
X6204483Y-1275003D02*
G01*
X6204488Y-1274998D01*
X6312486Y-1274998D01*
X5974989Y-1275003D02*
G01*
X5974968Y-1175004D01*
X5895492Y-1354500D02*
G01*
X5875014Y-1374978D01*
X5857976Y-1374978D01*
X5895492Y-1412494D02*
G01*
X5857976Y-1374978D01*
X5774994Y-1374978D01*
X5974989Y-1275003D02*
G01*
X5895492Y-1354500D01*
X5895492Y-1412494D01*
X5724982Y-1374978D02*
G01*
X5724982Y-1524998D01*
X5262499Y-950010D02*
G01*
X5499996Y-950010D01*
X5574990Y-1025004D01*
X5574990Y-1374980D01*
X5974966Y-875004D02*
G01*
X5199989Y-875004D01*
X5199989Y-875004D01*
D13*
X3369198Y-537512D02*
G01*
X3369198Y-204802D01*
X3374003Y-199997D01*
X1893290Y-399999D02*
G01*
X1893290Y-487499D01*
X1972487Y-237489D02*
G01*
X1972487Y-152509D01*
X2024997Y-99999D01*
X1806702Y-399999D02*
G01*
X1806702Y-241706D01*
X1802485Y-237489D01*
X462498Y-477494D02*
G01*
X462508Y-629996D01*
X642493Y-477494D02*
G01*
X462498Y-477494D01*
X6274991Y-950013D02*
G01*
X6392491Y-950013D01*
X6392494Y-950010D01*
D12*
X7437500Y-1450009D02*
G01*
X7349985Y-1450009D01*
X9437497Y-150012D02*
G01*
X9437497Y-312498D01*
D14*
X5974968Y-524992D02*
G01*
X5974961Y-525000D01*
X5762487Y-525000D01*
X5524982Y-1374978D02*
G01*
X5524982Y-1487492D01*
X5562488Y-1524998D01*
X5637489Y-1524998D01*
X5362498Y-1524990D02*
G01*
X5437499Y-1524990D01*
X5474990Y-1487500D01*
X5474990Y-1374980D01*
D11*
X6774992Y-1224991D02*
G01*
X6774992Y-1336497D01*
X6863486Y-1424990D01*
X6724980Y-1224991D02*
G01*
X6724980Y-1413484D01*
X6736486Y-1424990D01*
X6824979Y-375005D02*
G01*
X6824979Y-263499D01*
X6736486Y-175005D01*
X6874992Y-375005D02*
G01*
X6874992Y-186512D01*
X6863486Y-175005D01*
D14*
X4794986Y-1450009D02*
G01*
X4779492Y-1434515D01*
X4779492Y-1287500D01*
X4779492Y-1287500D02*
G01*
X4825009Y-1241983D01*
X4825009Y-1175004D01*
X5974968Y-575005D02*
G01*
X6182995Y-575005D01*
X4779492Y-275005D02*
G01*
X4829479Y-225018D01*
X4954760Y-225018D01*
X4954760Y-225018D02*
G01*
X5024983Y-225018D01*
X5124983Y-225018D02*
G01*
X5124983Y-87492D01*
X5099989Y-62499D01*
X4957480Y-62499D01*
X4894986Y-124993D01*
X5974968Y-924991D02*
G01*
X6137493Y-924991D01*
X6232476Y-830008D01*
X6274988Y-830008D01*
X5974968Y-975004D02*
G01*
X6137493Y-975004D01*
X6232476Y-1069987D01*
X6274988Y-1069987D01*
D13*
X987496Y-1119238D02*
G01*
X1087498Y-1119238D01*
X1126728Y-1080007D01*
X1205001Y-1080007D01*
X1205001Y-819988D02*
G01*
X1074991Y-949998D01*
X537530Y-949998D01*
X199999Y-1136497D02*
G01*
X206502Y-1129995D01*
X462498Y-1129995D01*
X462498Y-1129995D02*
G01*
X537530Y-1054963D01*
X537530Y-949998D01*
X1737367Y-930780D02*
G01*
X3605776Y-930780D01*
X3682494Y-1007498D01*
X3682494Y-1104999D01*
X1587497Y-930780D02*
G01*
X1737367Y-930780D01*
X987496Y-1119238D02*
G01*
X812497Y-1119238D01*
X787466Y-1094206D01*
X787466Y-1044994D01*
X812497Y-1119238D02*
G01*
X812497Y-1219997D01*
X807499Y-1224996D01*
X787466Y-855002D02*
G01*
X832479Y-809988D01*
X832479Y-697496D01*
X987496Y-780757D02*
G01*
X861710Y-780757D01*
X832479Y-809988D01*
X642513Y-697496D02*
G01*
X642513Y-817511D01*
X680003Y-855002D01*
X787466Y-855002D01*
X1218277Y-1224996D02*
G01*
X1218277Y-1174998D01*
X1205001Y-1161722D01*
X1205001Y-1080007D01*
X1381714Y-1224996D02*
G01*
X1381714Y-1174998D01*
X1394993Y-1161719D01*
X1394993Y-1080007D01*
D14*
X5974968Y-1175004D02*
G01*
X6074994Y-1175004D01*
X6095479Y-1195489D01*
X6095479Y-1274998D01*
X6206705Y-1412496D02*
G01*
X6149987Y-1412496D01*
X6095479Y-1357988D01*
X6095479Y-1274998D01*
X6293269Y-1412496D02*
G01*
X6452478Y-1412496D01*
X6462486Y-1422504D01*
X5974968Y-1124991D02*
G01*
X6099980Y-1124991D01*
X6162487Y-1187498D01*
X6397482Y-1187498D01*
X6462486Y-1252501D01*
D15*
G01*
X3682542Y-1104900D03*
G01*
X3747541Y-1104900D03*
G01*
X3812540Y-1104900D03*
G01*
X3877538Y-1104900D03*
G01*
X3942537Y-1104900D03*
D16*
G01*
X4122552Y-1114902D03*
D17*
G01*
X3502540Y-1114902D03*
D18*
G01*
X4894986Y-124993D03*
G01*
X4754981Y-124993D03*
D19*
G01*
X1218279Y-1224996D03*
G01*
X1131713Y-1224996D03*
D20*
G01*
X1381713Y-1224996D03*
G01*
X1468278Y-1224996D03*
D19*
G01*
X1893279Y-400001D03*
G01*
X1806713Y-400001D03*
D20*
G01*
X5919204Y-225000D03*
G01*
X6005770Y-225000D03*
G01*
X6206704Y-1412496D03*
G01*
X6293270Y-1412496D03*
D19*
G01*
X6843269Y-799998D03*
G01*
X6756703Y-799998D03*
D20*
G01*
X3369209Y-537499D03*
G01*
X3455775Y-537499D03*
D21*
G01*
X1587497Y-844215D03*
D22*
G01*
X1587500Y-930782D03*
D23*
G01*
X6462496Y-1252499D03*
G01*
X6462496Y-1422501D03*
D24*
G01*
X1215009Y-587502D03*
G01*
X1385011Y-587502D03*
G01*
X1972487Y-237489D03*
G01*
X1802485Y-237489D03*
D25*
G01*
X6874840Y-924991D03*
G01*
X6824827Y-924991D03*
G01*
X6774840Y-924991D03*
G01*
X6724827Y-924991D03*
D26*
G01*
X6649999Y-1000201D03*
G01*
X6649999Y-1050213D03*
G01*
X6649999Y-1100201D03*
G01*
X6649999Y-1150213D03*
D25*
G01*
X6724980Y-1224991D03*
G01*
X6774992Y-1224991D03*
G01*
X6824979Y-1224991D03*
G01*
X6874840Y-1224991D03*
D26*
G01*
X6949998Y-1150213D03*
G01*
X6949998Y-1100201D03*
G01*
X6949998Y-1050213D03*
G01*
X6949998Y-1000201D03*
D27*
G01*
X6799986Y-1075004D03*
D25*
G01*
X6725132Y-675004D03*
G01*
X6775145Y-675004D03*
G01*
X6825132Y-675004D03*
G01*
X6875145Y-675004D03*
D26*
G01*
X6949998Y-599795D03*
G01*
X6949998Y-549782D03*
G01*
X6949973Y-499795D03*
G01*
X6949998Y-449783D03*
D25*
G01*
X6874992Y-375005D03*
G01*
X6824979Y-375005D03*
G01*
X6774992Y-375005D03*
G01*
X6725132Y-375005D03*
D26*
G01*
X6649999Y-449783D03*
G01*
X6649974Y-499795D03*
G01*
X6649999Y-549782D03*
G01*
X6649999Y-599795D03*
D27*
G01*
X6799986Y-524992D03*
D28*
G01*
X462508Y-629996D03*
G01*
X462508Y-770001D03*
D18*
G01*
X807491Y-1224991D03*
G01*
X667486Y-1224991D03*
D28*
G01*
X462508Y-1129995D03*
G01*
X462508Y-1270000D03*
D18*
G01*
X4794986Y-1450009D03*
G01*
X4654981Y-1450009D03*
G01*
X6192494Y-412495D03*
G01*
X6332499Y-412495D03*
D29*
G01*
X4779497Y-1287498D03*
G01*
X4670485Y-1287498D03*
G01*
X4779497Y-275000D03*
G01*
X4670485Y-275000D03*
D30*
G01*
X5907981Y-99999D03*
G01*
X6016993Y-99999D03*
G01*
X6095481Y-1274998D03*
G01*
X6204493Y-1274998D03*
G01*
X5895482Y-1412496D03*
G01*
X6004493Y-1412496D03*
G01*
X6182982Y-575000D03*
G01*
X6291994Y-575000D03*
D31*
G01*
X987501Y-1119251D03*
G01*
X987501Y-780770D03*
D32*
G01*
X737488Y-697509D03*
G01*
X832485Y-697509D03*
G01*
X642518Y-697509D03*
G01*
X832510Y-477494D03*
G01*
X642493Y-477494D03*
G01*
X1394993Y-1080007D03*
G01*
X1205001Y-1080007D03*
G01*
X1205001Y-819988D03*
G01*
X1299997Y-819988D03*
G01*
X1394993Y-819988D03*
D33*
G01*
X537540Y-950010D03*
G01*
X787476Y-855014D03*
G01*
X787476Y-1044981D03*
D34*
G01*
X5774994Y-1374978D03*
G01*
X5724982Y-1374978D03*
G01*
X5674995Y-1374978D03*
G01*
X5624982Y-1374978D03*
G01*
X5574995Y-1374978D03*
G01*
X5524982Y-1374978D03*
G01*
X5474995Y-1374978D03*
G01*
X5424982Y-1374978D03*
G01*
X5374995Y-1374978D03*
G01*
X5324983Y-1374978D03*
G01*
X5274995Y-1374978D03*
G01*
X5224983Y-1374978D03*
G01*
X5174995Y-1374978D03*
G01*
X5124983Y-1374978D03*
G01*
X5074996Y-1374978D03*
G01*
X5024983Y-1374978D03*
D35*
G01*
X4825009Y-1175004D03*
G01*
X4825009Y-1124991D03*
G01*
X4825009Y-1075004D03*
G01*
X4825009Y-1024991D03*
G01*
X4825009Y-975004D03*
G01*
X4825009Y-924991D03*
G01*
X4825009Y-875004D03*
G01*
X4825009Y-824992D03*
G01*
X4825009Y-775004D03*
G01*
X4825009Y-724992D03*
G01*
X4825009Y-675004D03*
G01*
X4825009Y-624992D03*
G01*
X4825009Y-575005D03*
G01*
X4825009Y-524992D03*
G01*
X4825009Y-475005D03*
G01*
X4825009Y-424992D03*
D34*
G01*
X5024983Y-225018D03*
G01*
X5074996Y-225018D03*
G01*
X5124983Y-225018D03*
G01*
X5174995Y-225018D03*
G01*
X5224983Y-225018D03*
G01*
X5274995Y-225018D03*
G01*
X5324983Y-225018D03*
G01*
X5374995Y-225018D03*
G01*
X5424982Y-225018D03*
G01*
X5474995Y-225018D03*
G01*
X5524982Y-225018D03*
G01*
X5574995Y-225018D03*
G01*
X5624982Y-225018D03*
G01*
X5674995Y-225018D03*
G01*
X5724982Y-225018D03*
G01*
X5774994Y-225018D03*
D35*
G01*
X5974968Y-424992D03*
G01*
X5974968Y-475005D03*
G01*
X5974968Y-524992D03*
G01*
X5974968Y-575005D03*
G01*
X5974968Y-624992D03*
G01*
X5974968Y-675004D03*
G01*
X5974968Y-724992D03*
G01*
X5974968Y-775004D03*
G01*
X5974968Y-824992D03*
G01*
X5974968Y-875004D03*
G01*
X5974968Y-924991D03*
G01*
X5974968Y-975004D03*
G01*
X5974968Y-1024991D03*
G01*
X5974968Y-1075004D03*
G01*
X5974968Y-1124991D03*
G01*
X5974968Y-1175004D03*
D36*
G01*
X6274993Y-1070000D03*
D37*
G01*
X6274993Y-950010D03*
D36*
G01*
X6274993Y-829995D03*
D38*
G01*
X9437497Y-1450009D03*
G01*
X9337497Y-1450009D03*
G01*
X9237497Y-1450009D03*
G01*
X9137497Y-1450009D03*
G01*
X9037497Y-1450009D03*
G01*
X8937497Y-1450009D03*
G01*
X8837498Y-1450009D03*
G01*
X8737498Y-1450009D03*
G01*
X8637498Y-1450009D03*
G01*
X8537498Y-1450009D03*
G01*
X8437499Y-1450009D03*
G01*
X8337499Y-1450009D03*
G01*
X8237499Y-1450009D03*
G01*
X8137499Y-1450009D03*
G01*
X8037499Y-1450009D03*
G01*
X7937500Y-1450009D03*
G01*
X7837500Y-1450009D03*
G01*
X7737500Y-1450009D03*
G01*
X7637500Y-1450009D03*
G01*
X7537500Y-1450009D03*
G01*
X7437500Y-1450009D03*
D39*
G01*
X7287488Y-1249984D03*
G01*
X7287488Y-1149985D03*
G01*
X7287488Y-1050010D03*
G01*
X7287488Y-950010D03*
G01*
X7287488Y-850011D03*
G01*
X7287488Y-750011D03*
G01*
X7287488Y-650011D03*
G01*
X7287488Y-550011D03*
G01*
X7287488Y-450011D03*
G01*
X7287488Y-349986D03*
D38*
G01*
X7437500Y-150012D03*
G01*
X7537500Y-150012D03*
G01*
X7637500Y-150012D03*
G01*
X7737500Y-150012D03*
G01*
X7837500Y-150012D03*
G01*
X7937500Y-150012D03*
G01*
X8037499Y-150012D03*
G01*
X8137499Y-150012D03*
G01*
X8237499Y-150012D03*
G01*
X8337499Y-150012D03*
G01*
X8437499Y-150012D03*
G01*
X8537498Y-150012D03*
G01*
X8637498Y-150012D03*
G01*
X8737498Y-150012D03*
G01*
X8837498Y-150012D03*
G01*
X8937497Y-150012D03*
G01*
X9037497Y-150012D03*
G01*
X9137497Y-150012D03*
G01*
X9237497Y-150012D03*
G01*
X9337497Y-150012D03*
G01*
X9437497Y-150012D03*
G36*
X7899984Y-37490D02*
G01*
X8074990Y-37490D01*
X8074990Y-262483D01*
X7899984Y-262483D01*
G37*
D40*
G01*
X3529533Y-1369898D03*
G01*
X4095546Y-1369898D03*
D41*
G01*
X3373983Y-199999D03*
D42*
G01*
X3501009Y-199999D03*
D41*
G01*
X6736486Y-175005D03*
D42*
G01*
X6863486Y-175005D03*
D41*
G01*
X6863486Y-1424990D03*
D42*
G01*
X6736486Y-1424990D03*
D41*
G01*
X3723995Y-199999D03*
D42*
G01*
X3850995Y-199999D03*
D41*
G01*
X199999Y-1263497D03*
D42*
G01*
X199999Y-1136497D03*
D43*
G01*
X3053994Y-418998D03*
G01*
X2799994Y-418998D03*
D44*
G01*
X2545994Y-418998D03*
G01*
X2545994Y-1180998D03*
D43*
G01*
X2799994Y-1180998D03*
G01*
X3053994Y-1180998D03*
D44*
G01*
X431495Y-162509D03*
D43*
G01*
X685495Y-162509D03*
G01*
X939495Y-162509D03*
G01*
X1193495Y-162509D03*
D45*
G01*
X1737360Y-930782D03*
G01*
X5362498Y-1524990D03*
G01*
X5637479Y-1524990D03*
G01*
X5762497Y-524992D03*
G01*
X9437497Y-312496D03*
G01*
X9437471Y-1287500D03*
G01*
X7349997Y-1450009D03*
G01*
X7537500Y-1299997D03*
G01*
X6392494Y-950010D03*
G01*
X462508Y-477494D03*
G01*
X299999Y-699998D03*
G01*
X2024989Y-99999D03*
G01*
X1893290Y-487502D03*
G01*
X5199989Y-875004D03*
G01*
X5262499Y-950010D03*
G01*
X5724982Y-1524990D03*
G01*
X5974994Y-1275003D03*
G01*
X6312484Y-1275003D03*
G01*
X6050000Y-1512493D03*
G01*
X5762497Y-812495D03*
G01*
X8237474Y-812495D03*
G01*
X8137499Y-875004D03*
G01*
X5662498Y-750011D03*
G01*
X7424978Y-350012D03*
G01*
X6674993Y-287502D03*
G01*
X7012482Y-450011D03*
G01*
X6587490Y-1150112D03*
G01*
X7124979Y-1024991D03*
G01*
X8837472Y-1024991D03*
G01*
X6512483Y-1024991D03*
G01*
X6587490Y-950010D03*
G01*
X9137472Y-949960D03*
G01*
X7031888Y-949960D03*
G01*
X5662498Y-950010D03*
G01*
X5662498Y-1112494D03*
G01*
X4587493Y-75006D03*
G01*
X9037472Y-324993D03*
G01*
X8937497Y-399999D03*
G01*
X6649999Y-699998D03*
G01*
X7112482Y-737488D03*
G01*
X1275003Y-712495D03*
G01*
X1487500Y-1124991D03*
G01*
X1062507Y-1350010D03*
G01*
X563295Y-1224991D03*
G01*
X737488Y-587502D03*
G01*
X3499993Y-624992D03*
G01*
X3899992Y-1375003D03*
G01*
X4624984Y-1187500D03*
G01*
X4562500Y-199999D03*
G01*
X4954752Y-225018D03*
G01*
X5074996Y-412495D03*
G01*
X4912486Y-1450009D03*
G01*
X5724982Y-387502D03*
G01*
X6005779Y-324993D03*
G01*
X5624982Y-387502D03*
G01*
X6412484Y-412495D03*
G01*
X5762497Y-624992D03*
G01*
X6192494Y-501853D03*
G01*
X7049998Y-1324990D03*
G01*
X7837500Y-1299997D03*
G01*
X9237472Y-1287500D03*
M02*
