G04 Layer: TopPasteMaskLayer*
G04 EasyEDA v6.5.22, 2023-02-02 12:04:13*
G04 e40c6f2ac48d42a8ab01bc531f02f979,d89026aa57f64e8aa15d5895f5b481f1,10*
G04 Gerber Generator version 0.2*
G04 Scale: 100 percent, Rotated: No, Reflected: No *
G04 Dimensions in millimeters *
G04 leading zeros omitted , absolute positions ,4 integer and 5 decimal *
%FSLAX45Y45*%
%MOMM*%

%ADD10R,0.8000X0.9000*%
%ADD11R,1.0000X0.8999*%
%ADD12R,0.8999X1.0000*%
%ADD13R,0.9000X0.8000*%
%ADD14R,1.1500X0.9500*%
%ADD15R,0.6000X1.0000*%
%ADD16R,1.2500X0.7000*%
%ADD17O,0.2999994X1.9999959999999999*%
%ADD18O,1.9999959999999999X0.2999994*%
%ADD19R,1.7000X0.6500*%
%ADD20R,1.7000X0.5000*%
%ADD21R,0.6000X2.0000*%
%ADD22R,2.0000X0.6000*%
%ADD23R,0.0116X0.6000*%

%LPD*%
G36*
X3529533Y-1269898D02*
G01*
X3521710Y-1270304D01*
X3513937Y-1271524D01*
X3506368Y-1273556D01*
X3499053Y-1276400D01*
X3492042Y-1279956D01*
X3485438Y-1284224D01*
X3479342Y-1289151D01*
X3473805Y-1294739D01*
X3468878Y-1300835D01*
X3464610Y-1307388D01*
X3461004Y-1314399D01*
X3458210Y-1321714D01*
X3456178Y-1329334D01*
X3454958Y-1337056D01*
X3454552Y-1344930D01*
X3454654Y-1398828D01*
X3455466Y-1406652D01*
X3457092Y-1414322D01*
X3459530Y-1421790D01*
X3462731Y-1428953D01*
X3466642Y-1435760D01*
X3471265Y-1442110D01*
X3476498Y-1447952D01*
X3482340Y-1453184D01*
X3488690Y-1457807D01*
X3495497Y-1461719D01*
X3502660Y-1464919D01*
X3510127Y-1467358D01*
X3517798Y-1468983D01*
X3525621Y-1469796D01*
X3533444Y-1469796D01*
X3541268Y-1468983D01*
X3548938Y-1467358D01*
X3556406Y-1464919D01*
X3560064Y-1463446D01*
X3567023Y-1459839D01*
X3573627Y-1455572D01*
X3579723Y-1450644D01*
X3585260Y-1445107D01*
X3590239Y-1439011D01*
X3594506Y-1432407D01*
X3598062Y-1425397D01*
X3600856Y-1418082D01*
X3602888Y-1410512D01*
X3604107Y-1402740D01*
X3604564Y-1394917D01*
X3604463Y-1340967D01*
X3603599Y-1333195D01*
X3601974Y-1325473D01*
X3599535Y-1318006D01*
X3596386Y-1310843D01*
X3592423Y-1304036D01*
X3587851Y-1297686D01*
X3582568Y-1291894D01*
X3576726Y-1286611D01*
X3570376Y-1281988D01*
X3563569Y-1278077D01*
X3556406Y-1274876D01*
X3548938Y-1272438D01*
X3541268Y-1270812D01*
X3533444Y-1270000D01*
G37*
G36*
X4095546Y-1269898D02*
G01*
X4087723Y-1270304D01*
X4079951Y-1271524D01*
X4072382Y-1273556D01*
X4065066Y-1276400D01*
X4058056Y-1279956D01*
X4051452Y-1284224D01*
X4045356Y-1289151D01*
X4039819Y-1294739D01*
X4034891Y-1300835D01*
X4030624Y-1307388D01*
X4027017Y-1314399D01*
X4024223Y-1321714D01*
X4022191Y-1329334D01*
X4020972Y-1337056D01*
X4020565Y-1344930D01*
X4020667Y-1398828D01*
X4021480Y-1406652D01*
X4023106Y-1414322D01*
X4025544Y-1421790D01*
X4028744Y-1428953D01*
X4032656Y-1435760D01*
X4037279Y-1442110D01*
X4042511Y-1447952D01*
X4048353Y-1453184D01*
X4054703Y-1457807D01*
X4061510Y-1461719D01*
X4068673Y-1464919D01*
X4076141Y-1467358D01*
X4083812Y-1468983D01*
X4091635Y-1469796D01*
X4099458Y-1469796D01*
X4107281Y-1468983D01*
X4114952Y-1467358D01*
X4122420Y-1464919D01*
X4126077Y-1463446D01*
X4133037Y-1459839D01*
X4139641Y-1455572D01*
X4145737Y-1450644D01*
X4151274Y-1445107D01*
X4156252Y-1439011D01*
X4160520Y-1432407D01*
X4164076Y-1425397D01*
X4166870Y-1418082D01*
X4168901Y-1410512D01*
X4170121Y-1402740D01*
X4170578Y-1394917D01*
X4170476Y-1340967D01*
X4169613Y-1333195D01*
X4167987Y-1325473D01*
X4165549Y-1318006D01*
X4162399Y-1310843D01*
X4158437Y-1304036D01*
X4153865Y-1297686D01*
X4148582Y-1291894D01*
X4142740Y-1286611D01*
X4136390Y-1281988D01*
X4129582Y-1278077D01*
X4122420Y-1274876D01*
X4114952Y-1272438D01*
X4107281Y-1270812D01*
X4099458Y-1270000D01*
G37*
G36*
X3662527Y-1004925D02*
G01*
X3662527Y-1204925D01*
X3702558Y-1204925D01*
X3702558Y-1004925D01*
G37*
G36*
X3727551Y-1004925D02*
G01*
X3727551Y-1204925D01*
X3767531Y-1204925D01*
X3767531Y-1004925D01*
G37*
G36*
X3792524Y-1004925D02*
G01*
X3792524Y-1204925D01*
X3832555Y-1204925D01*
X3832555Y-1004925D01*
G37*
G36*
X3857548Y-1004925D02*
G01*
X3857548Y-1204925D01*
X3897528Y-1204925D01*
X3897528Y-1004925D01*
G37*
G36*
X3922522Y-1004925D02*
G01*
X3922522Y-1204925D01*
X3962552Y-1204925D01*
X3962552Y-1004925D01*
G37*
G36*
X4017568Y-1034897D02*
G01*
X4017568Y-1194917D01*
X4227576Y-1194917D01*
X4227576Y-1034897D01*
G37*
G36*
X3397554Y-1034897D02*
G01*
X3397554Y-1194917D01*
X3607562Y-1194917D01*
X3607562Y-1034897D01*
G37*
G36*
X1192479Y-1198016D02*
G01*
X1188516Y-1201978D01*
X1188516Y-1248003D01*
X1192479Y-1252016D01*
X1242568Y-1252016D01*
X1246581Y-1248003D01*
X1246581Y-1201978D01*
X1242568Y-1198016D01*
G37*
G36*
X1107440Y-1198016D02*
G01*
X1103426Y-1201978D01*
X1103426Y-1248003D01*
X1107440Y-1252016D01*
X1157478Y-1252016D01*
X1161491Y-1248003D01*
X1161491Y-1201978D01*
X1157478Y-1198016D01*
G37*
G36*
X1357426Y-1198016D02*
G01*
X1353413Y-1201978D01*
X1353413Y-1248003D01*
X1357426Y-1252016D01*
X1407515Y-1252016D01*
X1411478Y-1248003D01*
X1411478Y-1201978D01*
X1407515Y-1198016D01*
G37*
G36*
X1442516Y-1198016D02*
G01*
X1438503Y-1201978D01*
X1438503Y-1248003D01*
X1442516Y-1252016D01*
X1492554Y-1252016D01*
X1496568Y-1248003D01*
X1496568Y-1201978D01*
X1492554Y-1198016D01*
G37*
G36*
X1867509Y-373024D02*
G01*
X1863496Y-376986D01*
X1863496Y-423011D01*
X1867509Y-427024D01*
X1917547Y-427024D01*
X1921560Y-423011D01*
X1921560Y-376986D01*
X1917547Y-373024D01*
G37*
G36*
X1782419Y-373024D02*
G01*
X1778406Y-376986D01*
X1778406Y-423011D01*
X1782419Y-427024D01*
X1832508Y-427024D01*
X1836470Y-423011D01*
X1836470Y-376986D01*
X1832508Y-373024D01*
G37*
G36*
X5894933Y-198018D02*
G01*
X5890920Y-201980D01*
X5890920Y-248005D01*
X5894933Y-252018D01*
X5944971Y-252018D01*
X5948984Y-248005D01*
X5948984Y-201980D01*
X5944971Y-198018D01*
G37*
G36*
X5979972Y-198018D02*
G01*
X5976010Y-201980D01*
X5976010Y-248005D01*
X5979972Y-252018D01*
X6030061Y-252018D01*
X6034074Y-248005D01*
X6034074Y-201980D01*
X6030061Y-198018D01*
G37*
G36*
X6182410Y-1385519D02*
G01*
X6178397Y-1389481D01*
X6178397Y-1435506D01*
X6182410Y-1439519D01*
X6232499Y-1439519D01*
X6236462Y-1435506D01*
X6236462Y-1389481D01*
X6232499Y-1385519D01*
G37*
G36*
X6267500Y-1385519D02*
G01*
X6263487Y-1389481D01*
X6263487Y-1435506D01*
X6267500Y-1439519D01*
X6317538Y-1439519D01*
X6321552Y-1435506D01*
X6321552Y-1389481D01*
X6317538Y-1385519D01*
G37*
G36*
X6817461Y-772972D02*
G01*
X6813499Y-776986D01*
X6813499Y-823010D01*
X6817461Y-827024D01*
X6867550Y-827024D01*
X6871563Y-823010D01*
X6871563Y-776986D01*
X6867550Y-772972D01*
G37*
G36*
X6732422Y-772972D02*
G01*
X6728409Y-776986D01*
X6728409Y-823010D01*
X6732422Y-827024D01*
X6782511Y-827024D01*
X6786473Y-823010D01*
X6786473Y-776986D01*
X6782511Y-772972D01*
G37*
G36*
X3344926Y-510489D02*
G01*
X3340912Y-514502D01*
X3340912Y-560476D01*
X3344926Y-564489D01*
X3395014Y-564489D01*
X3398977Y-560476D01*
X3398977Y-514502D01*
X3395014Y-510489D01*
G37*
G36*
X3430015Y-510489D02*
G01*
X3426002Y-514502D01*
X3426002Y-560476D01*
X3430015Y-564489D01*
X3480054Y-564489D01*
X3484067Y-560476D01*
X3484067Y-514502D01*
X3480054Y-510489D01*
G37*
G36*
X1564487Y-815949D02*
G01*
X1560474Y-819912D01*
X1560474Y-870000D01*
X1564487Y-874014D01*
X1610512Y-874014D01*
X1614474Y-870000D01*
X1614474Y-819912D01*
X1610512Y-815949D01*
G37*
G36*
X1564487Y-900988D02*
G01*
X1560474Y-905002D01*
X1560474Y-955040D01*
X1564487Y-959053D01*
X1610512Y-959053D01*
X1614474Y-955040D01*
X1614474Y-905002D01*
X1610512Y-900988D01*
G37*
G36*
X6739991Y-1014984D02*
G01*
X6739991Y-1134973D01*
X6859981Y-1134973D01*
X6859981Y-1014984D01*
G37*
G36*
X6862318Y-894994D02*
G01*
X6862318Y-954989D01*
X6887311Y-954989D01*
X6887311Y-894994D01*
G37*
G36*
X6812330Y-894994D02*
G01*
X6812330Y-954989D01*
X6837324Y-954989D01*
X6837324Y-894994D01*
G37*
G36*
X6762343Y-894994D02*
G01*
X6762343Y-954989D01*
X6787337Y-954989D01*
X6787337Y-894994D01*
G37*
G36*
X6712356Y-894994D02*
G01*
X6712356Y-954989D01*
X6737350Y-954989D01*
X6737350Y-894994D01*
G37*
G36*
X6620002Y-987704D02*
G01*
X6620002Y-1012698D01*
X6679996Y-1012698D01*
X6679996Y-987704D01*
G37*
G36*
X6620002Y-1037691D02*
G01*
X6620002Y-1062685D01*
X6679996Y-1062685D01*
X6679996Y-1037691D01*
G37*
G36*
X6620002Y-1087729D02*
G01*
X6620002Y-1112723D01*
X6679996Y-1112723D01*
X6679996Y-1087729D01*
G37*
G36*
X6620002Y-1137716D02*
G01*
X6620002Y-1162710D01*
X6679996Y-1162710D01*
X6679996Y-1137716D01*
G37*
G36*
X6712508Y-1195019D02*
G01*
X6712508Y-1255014D01*
X6737502Y-1255014D01*
X6737502Y-1195019D01*
G37*
G36*
X6762496Y-1195019D02*
G01*
X6762496Y-1255014D01*
X6787489Y-1255014D01*
X6787489Y-1195019D01*
G37*
G36*
X6812483Y-1195019D02*
G01*
X6812483Y-1255014D01*
X6837476Y-1255014D01*
X6837476Y-1195019D01*
G37*
G36*
X6862318Y-1195019D02*
G01*
X6862318Y-1255014D01*
X6887311Y-1255014D01*
X6887311Y-1195019D01*
G37*
G36*
X6919975Y-1137716D02*
G01*
X6919975Y-1162710D01*
X6979970Y-1162710D01*
X6979970Y-1137716D01*
G37*
G36*
X6919975Y-1087729D02*
G01*
X6919975Y-1112723D01*
X6979970Y-1112723D01*
X6979970Y-1087729D01*
G37*
G36*
X6919975Y-1037691D02*
G01*
X6919975Y-1062685D01*
X6979970Y-1062685D01*
X6979970Y-1037691D01*
G37*
G36*
X6919975Y-987704D02*
G01*
X6919975Y-1012698D01*
X6979970Y-1012698D01*
X6979970Y-987704D01*
G37*
G36*
X6739991Y-465023D02*
G01*
X6739991Y-585012D01*
X6859981Y-585012D01*
X6859981Y-465023D01*
G37*
G36*
X6712661Y-645007D02*
G01*
X6712661Y-705002D01*
X6737654Y-705002D01*
X6737654Y-645007D01*
G37*
G36*
X6762648Y-645007D02*
G01*
X6762648Y-705002D01*
X6787642Y-705002D01*
X6787642Y-645007D01*
G37*
G36*
X6812635Y-645007D02*
G01*
X6812635Y-705002D01*
X6837629Y-705002D01*
X6837629Y-645007D01*
G37*
G36*
X6862622Y-645007D02*
G01*
X6862622Y-705002D01*
X6887616Y-705002D01*
X6887616Y-645007D01*
G37*
G36*
X6919975Y-587298D02*
G01*
X6919975Y-612292D01*
X6979970Y-612292D01*
X6979970Y-587298D01*
G37*
G36*
X6919975Y-537311D02*
G01*
X6919975Y-562305D01*
X6979970Y-562305D01*
X6979970Y-537311D01*
G37*
G36*
X6919975Y-487273D02*
G01*
X6919975Y-512267D01*
X6979970Y-512267D01*
X6979970Y-487273D01*
G37*
G36*
X6919975Y-437286D02*
G01*
X6919975Y-462280D01*
X6979970Y-462280D01*
X6979970Y-437286D01*
G37*
G36*
X6862470Y-344982D02*
G01*
X6862470Y-405028D01*
X6887464Y-405028D01*
X6887464Y-344982D01*
G37*
G36*
X6812483Y-344982D02*
G01*
X6812483Y-405028D01*
X6837476Y-405028D01*
X6837476Y-344982D01*
G37*
G36*
X6762496Y-344982D02*
G01*
X6762496Y-405028D01*
X6787489Y-405028D01*
X6787489Y-344982D01*
G37*
G36*
X6712661Y-344982D02*
G01*
X6712661Y-404977D01*
X6737654Y-404977D01*
X6737654Y-344982D01*
G37*
G36*
X6620002Y-437286D02*
G01*
X6620002Y-462280D01*
X6679996Y-462280D01*
X6679996Y-437286D01*
G37*
G36*
X6620002Y-487273D02*
G01*
X6620002Y-512267D01*
X6679996Y-512267D01*
X6679996Y-487273D01*
G37*
G36*
X6620002Y-537311D02*
G01*
X6620002Y-562305D01*
X6679996Y-562305D01*
X6679996Y-537311D01*
G37*
G36*
X6620002Y-587298D02*
G01*
X6620002Y-612292D01*
X6679996Y-612292D01*
X6679996Y-587298D01*
G37*
G36*
X4652010Y-1259992D02*
G01*
X4646980Y-1264970D01*
X4646980Y-1309979D01*
X4652010Y-1315008D01*
X4699965Y-1315008D01*
X4706975Y-1309979D01*
X4706975Y-1264970D01*
X4699965Y-1259992D01*
G37*
G36*
X4750003Y-1259992D02*
G01*
X4742992Y-1264970D01*
X4742992Y-1309979D01*
X4750003Y-1315008D01*
X4798009Y-1315008D01*
X4802987Y-1309979D01*
X4802987Y-1264970D01*
X4798009Y-1259992D01*
G37*
G36*
X4652010Y-247497D02*
G01*
X4646980Y-252475D01*
X4646980Y-297484D01*
X4652010Y-302514D01*
X4699965Y-302514D01*
X4706975Y-297484D01*
X4706975Y-252475D01*
X4699965Y-247497D01*
G37*
G36*
X4750003Y-247497D02*
G01*
X4742992Y-252475D01*
X4742992Y-297484D01*
X4750003Y-302514D01*
X4798009Y-302514D01*
X4802987Y-297484D01*
X4802987Y-252475D01*
X4798009Y-247497D01*
G37*
G36*
X5987491Y-72491D02*
G01*
X5980480Y-77520D01*
X5980480Y-122478D01*
X5987491Y-127508D01*
X6035497Y-127508D01*
X6040475Y-122478D01*
X6040475Y-77520D01*
X6035497Y-72491D01*
G37*
G36*
X5889498Y-72491D02*
G01*
X5884468Y-77520D01*
X5884468Y-122478D01*
X5889498Y-127508D01*
X5937504Y-127508D01*
X5944463Y-122478D01*
X5944463Y-77520D01*
X5937504Y-72491D01*
G37*
G36*
X6174994Y-1247495D02*
G01*
X6167983Y-1252524D01*
X6167983Y-1297482D01*
X6174994Y-1302512D01*
X6223000Y-1302512D01*
X6227978Y-1297482D01*
X6227978Y-1252524D01*
X6223000Y-1247495D01*
G37*
G36*
X6077000Y-1247495D02*
G01*
X6071971Y-1252524D01*
X6071971Y-1297482D01*
X6077000Y-1302512D01*
X6125006Y-1302512D01*
X6131966Y-1297482D01*
X6131966Y-1252524D01*
X6125006Y-1247495D01*
G37*
G36*
X5974994Y-1385011D02*
G01*
X5967984Y-1389989D01*
X5967984Y-1434998D01*
X5974994Y-1439976D01*
X6023000Y-1439976D01*
X6027978Y-1434998D01*
X6027978Y-1389989D01*
X6023000Y-1385011D01*
G37*
G36*
X5877001Y-1385011D02*
G01*
X5871972Y-1389989D01*
X5871972Y-1434998D01*
X5877001Y-1439976D01*
X5925007Y-1439976D01*
X5931966Y-1434998D01*
X5931966Y-1389989D01*
X5925007Y-1385011D01*
G37*
G36*
X6262471Y-547522D02*
G01*
X6255512Y-552500D01*
X6255512Y-597509D01*
X6262471Y-602488D01*
X6310477Y-602488D01*
X6315506Y-597509D01*
X6315506Y-552500D01*
X6310477Y-547522D01*
G37*
G36*
X6164478Y-547522D02*
G01*
X6159500Y-552500D01*
X6159500Y-597509D01*
X6164478Y-602488D01*
X6212484Y-602488D01*
X6219494Y-597509D01*
X6219494Y-552500D01*
X6212484Y-547522D01*
G37*
D10*
G01*
X4894986Y-124993D03*
G01*
X4754981Y-124993D03*
D11*
G01*
X6462496Y-1252499D03*
G01*
X6462496Y-1422501D03*
D12*
G01*
X1215009Y-587502D03*
G01*
X1385011Y-587502D03*
G01*
X1972487Y-237489D03*
G01*
X1802485Y-237489D03*
D13*
G01*
X462508Y-629996D03*
G01*
X462508Y-770001D03*
D10*
G01*
X807491Y-1224991D03*
G01*
X667486Y-1224991D03*
D13*
G01*
X462508Y-1129995D03*
G01*
X462508Y-1270000D03*
D10*
G01*
X4794986Y-1450009D03*
G01*
X4654981Y-1450009D03*
G01*
X6192494Y-412495D03*
G01*
X6332499Y-412495D03*
D14*
G01*
X987501Y-1119251D03*
G01*
X987501Y-780770D03*
D15*
G01*
X737488Y-697509D03*
G01*
X832485Y-697509D03*
G01*
X642518Y-697509D03*
G01*
X832510Y-477494D03*
G01*
X642493Y-477494D03*
G01*
X1394993Y-1080007D03*
G01*
X1205001Y-1080007D03*
G01*
X1205001Y-819988D03*
G01*
X1299997Y-819988D03*
G01*
X1394993Y-819988D03*
D16*
G01*
X537540Y-950010D03*
G01*
X787476Y-855014D03*
G01*
X787476Y-1044981D03*
D17*
G01*
X5774994Y-1374978D03*
G01*
X5724982Y-1374978D03*
G01*
X5674995Y-1374978D03*
G01*
X5624982Y-1374978D03*
G01*
X5574995Y-1374978D03*
G01*
X5524982Y-1374978D03*
G01*
X5474995Y-1374978D03*
G01*
X5424982Y-1374978D03*
G01*
X5374995Y-1374978D03*
G01*
X5324983Y-1374978D03*
G01*
X5274995Y-1374978D03*
G01*
X5224983Y-1374978D03*
G01*
X5174995Y-1374978D03*
G01*
X5124983Y-1374978D03*
G01*
X5074996Y-1374978D03*
G01*
X5024983Y-1374978D03*
D18*
G01*
X4825009Y-1175004D03*
G01*
X4825009Y-1124991D03*
G01*
X4825009Y-1075004D03*
G01*
X4825009Y-1024991D03*
G01*
X4825009Y-975004D03*
G01*
X4825009Y-924991D03*
G01*
X4825009Y-875004D03*
G01*
X4825009Y-824992D03*
G01*
X4825009Y-775004D03*
G01*
X4825009Y-724992D03*
G01*
X4825009Y-675004D03*
G01*
X4825009Y-624992D03*
G01*
X4825009Y-575005D03*
G01*
X4825009Y-524992D03*
G01*
X4825009Y-475005D03*
G01*
X4825009Y-424992D03*
D17*
G01*
X5024983Y-225018D03*
G01*
X5074996Y-225018D03*
G01*
X5124983Y-225018D03*
G01*
X5174995Y-225018D03*
G01*
X5224983Y-225018D03*
G01*
X5274995Y-225018D03*
G01*
X5324983Y-225018D03*
G01*
X5374995Y-225018D03*
G01*
X5424982Y-225018D03*
G01*
X5474995Y-225018D03*
G01*
X5524982Y-225018D03*
G01*
X5574995Y-225018D03*
G01*
X5624982Y-225018D03*
G01*
X5674995Y-225018D03*
G01*
X5724982Y-225018D03*
G01*
X5774994Y-225018D03*
D18*
G01*
X5974968Y-424992D03*
G01*
X5974968Y-475005D03*
G01*
X5974968Y-524992D03*
G01*
X5974968Y-575005D03*
G01*
X5974968Y-624992D03*
G01*
X5974968Y-675004D03*
G01*
X5974968Y-724992D03*
G01*
X5974968Y-775004D03*
G01*
X5974968Y-824992D03*
G01*
X5974968Y-875004D03*
G01*
X5974968Y-924991D03*
G01*
X5974968Y-975004D03*
G01*
X5974968Y-1024991D03*
G01*
X5974968Y-1075004D03*
G01*
X5974968Y-1124991D03*
G01*
X5974968Y-1175004D03*
D19*
G01*
X6274993Y-1070000D03*
D20*
G01*
X6274993Y-950010D03*
D19*
G01*
X6274993Y-829995D03*
D21*
G01*
X9437497Y-1450009D03*
G01*
X9337497Y-1450009D03*
G01*
X9237497Y-1450009D03*
G01*
X9137497Y-1450009D03*
G01*
X9037497Y-1450009D03*
G01*
X8937497Y-1450009D03*
G01*
X8837498Y-1450009D03*
G01*
X8737498Y-1450009D03*
G01*
X8637498Y-1450009D03*
G01*
X8537498Y-1450009D03*
G01*
X8437499Y-1450009D03*
G01*
X8337499Y-1450009D03*
G01*
X8237499Y-1450009D03*
G01*
X8137499Y-1450009D03*
G01*
X8037499Y-1450009D03*
G01*
X7937500Y-1450009D03*
G01*
X7837500Y-1450009D03*
G01*
X7737500Y-1450009D03*
G01*
X7637500Y-1450009D03*
G01*
X7537500Y-1450009D03*
G01*
X7437500Y-1450009D03*
D22*
G01*
X7287488Y-1249984D03*
G01*
X7287488Y-1149985D03*
G01*
X7287488Y-1050010D03*
G01*
X7287488Y-950010D03*
G01*
X7287488Y-850011D03*
G01*
X7287488Y-750011D03*
G01*
X7287488Y-650011D03*
G01*
X7287488Y-550011D03*
G01*
X7287488Y-450011D03*
G01*
X7287488Y-349986D03*
D21*
G01*
X7437500Y-150012D03*
G01*
X7537500Y-150012D03*
G01*
X7637500Y-150012D03*
G01*
X7737500Y-150012D03*
G01*
X7837500Y-150012D03*
G01*
X7937500Y-150012D03*
G01*
X8037499Y-150012D03*
G01*
X8137499Y-150012D03*
G01*
X8237499Y-150012D03*
G01*
X8337499Y-150012D03*
G01*
X8437499Y-150012D03*
G01*
X8537498Y-150012D03*
G01*
X8637498Y-150012D03*
G01*
X8737498Y-150012D03*
G01*
X8837498Y-150012D03*
G01*
X8937497Y-150012D03*
G01*
X9037497Y-150012D03*
G01*
X9137497Y-150012D03*
G01*
X9237497Y-150012D03*
G01*
X9337497Y-150012D03*
G01*
X9437497Y-150012D03*
M02*
