G04 Layer: BottomSilkscreenLayer*
G04 EasyEDA v6.5.22, 2023-02-02 12:04:13*
G04 e40c6f2ac48d42a8ab01bc531f02f979,d89026aa57f64e8aa15d5895f5b481f1,10*
G04 Gerber Generator version 0.2*
G04 Scale: 100 percent, Rotated: No, Reflected: No *
G04 Dimensions in millimeters *
G04 leading zeros omitted , absolute positions ,4 integer and 5 decimal *
%FSLAX45Y45*%
%MOMM*%

%ADD10C,0.1500*%

%LPD*%
D10*
X467636Y-431713D02*
G01*
X427758Y-431713D01*
X449602Y-460923D01*
X438680Y-460923D01*
X431314Y-464479D01*
X427758Y-468035D01*
X424202Y-478957D01*
X424202Y-486323D01*
X427758Y-497245D01*
X435124Y-504611D01*
X445792Y-508167D01*
X456714Y-508167D01*
X467636Y-504611D01*
X471446Y-500801D01*
X475002Y-493689D01*
X400072Y-431713D02*
G01*
X371116Y-508167D01*
X341906Y-431713D02*
G01*
X371116Y-508167D01*
X310664Y-431713D02*
G01*
X270532Y-431713D01*
X292376Y-460923D01*
X281454Y-460923D01*
X274342Y-464479D01*
X270532Y-468035D01*
X266976Y-478957D01*
X266976Y-486323D01*
X270532Y-497245D01*
X277898Y-504611D01*
X288820Y-508167D01*
X299742Y-508167D01*
X310664Y-504611D01*
X314220Y-500801D01*
X318030Y-493689D01*
X420387Y-675017D02*
G01*
X424197Y-667651D01*
X431309Y-660285D01*
X438675Y-656729D01*
X453153Y-656729D01*
X460519Y-660285D01*
X467631Y-667651D01*
X471441Y-675017D01*
X474997Y-685939D01*
X474997Y-703973D01*
X471441Y-714895D01*
X467631Y-722261D01*
X460519Y-729627D01*
X453153Y-733183D01*
X438675Y-733183D01*
X431309Y-729627D01*
X424197Y-722261D01*
X420387Y-714895D01*
X420387Y-703973D01*
X438675Y-703973D02*
G01*
X420387Y-703973D01*
X396511Y-656729D02*
G01*
X396511Y-733183D01*
X396511Y-656729D02*
G01*
X345457Y-733183D01*
X345457Y-656729D02*
G01*
X345457Y-733183D01*
X321581Y-656729D02*
G01*
X321581Y-733183D01*
X321581Y-656729D02*
G01*
X296181Y-656729D01*
X285259Y-660285D01*
X277893Y-667651D01*
X274337Y-675017D01*
X270527Y-685939D01*
X270527Y-703973D01*
X274337Y-714895D01*
X277893Y-722261D01*
X285259Y-729627D01*
X296181Y-733183D01*
X321581Y-733183D01*
X1650006Y-769233D02*
G01*
X1620796Y-845687D01*
X1591840Y-769233D02*
G01*
X1620796Y-845687D01*
X1567710Y-769233D02*
G01*
X1567710Y-845687D01*
X1567710Y-769233D02*
G01*
X1535198Y-769233D01*
X1524276Y-772789D01*
X1520466Y-776599D01*
X1516910Y-783711D01*
X1516910Y-791077D01*
X1520466Y-798443D01*
X1524276Y-801999D01*
X1535198Y-805555D01*
X1567710Y-805555D02*
G01*
X1535198Y-805555D01*
X1524276Y-809365D01*
X1520466Y-812921D01*
X1516910Y-820287D01*
X1516910Y-831209D01*
X1520466Y-838321D01*
X1524276Y-842131D01*
X1535198Y-845687D01*
X1567710Y-845687D01*
X1493034Y-769233D02*
G01*
X1493034Y-823843D01*
X1489224Y-834765D01*
X1482112Y-842131D01*
X1471190Y-845687D01*
X1463824Y-845687D01*
X1452902Y-842131D01*
X1445536Y-834765D01*
X1441980Y-823843D01*
X1441980Y-769233D01*
X1367050Y-780155D02*
G01*
X1374416Y-772789D01*
X1385338Y-769233D01*
X1399816Y-769233D01*
X1410738Y-772789D01*
X1418104Y-780155D01*
X1418104Y-787521D01*
X1414294Y-794633D01*
X1410738Y-798443D01*
X1403372Y-801999D01*
X1381528Y-809365D01*
X1374416Y-812921D01*
X1370860Y-816477D01*
X1367050Y-823843D01*
X1367050Y-834765D01*
X1374416Y-842131D01*
X1385338Y-845687D01*
X1399816Y-845687D01*
X1410738Y-842131D01*
X1418104Y-834765D01*
X474997Y-881712D02*
G01*
X474997Y-958166D01*
X474997Y-881712D02*
G01*
X442231Y-881712D01*
X431309Y-885268D01*
X427753Y-889078D01*
X424197Y-896190D01*
X424197Y-903556D01*
X427753Y-910922D01*
X431309Y-914478D01*
X442231Y-918034D01*
X474997Y-918034D02*
G01*
X442231Y-918034D01*
X431309Y-921844D01*
X427753Y-925400D01*
X424197Y-932766D01*
X424197Y-943688D01*
X427753Y-950800D01*
X431309Y-954610D01*
X442231Y-958166D01*
X474997Y-958166D01*
X371111Y-881712D02*
G01*
X400067Y-958166D01*
X371111Y-881712D02*
G01*
X341901Y-958166D01*
X389145Y-932766D02*
G01*
X352823Y-932766D01*
X292371Y-881712D02*
G01*
X292371Y-958166D01*
X318025Y-881712D02*
G01*
X266971Y-881712D01*
X4637044Y-219270D02*
G01*
X4637044Y-295633D01*
X4662497Y-219270D02*
G01*
X4611588Y-219270D01*
X4587587Y-233814D02*
G01*
X4580315Y-230179D01*
X4569406Y-219270D01*
X4569406Y-295633D01*
M02*
