G04 Layer: TopSolderMaskLayer*
G04 EasyEDA v6.5.22, 2023-02-02 12:04:13*
G04 e40c6f2ac48d42a8ab01bc531f02f979,d89026aa57f64e8aa15d5895f5b481f1,10*
G04 Gerber Generator version 0.2*
G04 Scale: 100 percent, Rotated: No, Reflected: No *
G04 Dimensions in millimeters *
G04 leading zeros omitted , absolute positions ,4 integer and 5 decimal *
%FSLAX45Y45*%
%MOMM*%

%AMMACRO1*1,1,$1,$2,$3*1,1,$1,$4,$5*1,1,$1,0-$2,0-$3*1,1,$1,0-$4,0-$5*20,1,$1,$2,$3,$4,$5,0*20,1,$1,$4,$5,0-$2,0-$3,0*20,1,$1,0-$2,0-$3,0-$4,0-$5,0*20,1,$1,0-$4,0-$5,$2,$3,0*4,1,4,$2,$3,$4,$5,0-$2,0-$3,0-$4,0-$5,$2,$3,0*%
%AMMACRO2*4,1,5,0.1791,-0.8509,-1.1011,0.4267,-1.1011,0.8509,1.1011,0.8509,1.1011,-0.8509,0.1791,-0.8509,0*%
%AMMACRO3*4,1,5,-1.1011,-0.8509,-1.1011,0.8509,1.1011,0.8509,1.1011,0.4267,-0.1791,-0.8509,-1.1011,-0.8509,0*%
%ADD10MACRO1,0.1016X-0.2X1X0.2X1*%
%ADD11MACRO2*%
%ADD12MACRO3*%
%ADD13O,1.6015970000000002X2.1015960000000002*%
%ADD14MACRO1,0.1016X-0.4X0.45X0.4X0.45*%
%ADD15MACRO1,0.1016X-0.2828X-0.27X-0.2828X0.27*%
%ADD16MACRO1,0.1016X0.2828X-0.27X0.2828X0.27*%
%ADD17MACRO1,0.1016X0.2828X0.27X0.2828X-0.27*%
%ADD18MACRO1,0.1016X-0.2828X0.27X-0.2828X-0.27*%
%ADD19MACRO1,0.1016X0.27X-0.2828X-0.27X-0.2828*%
%ADD20MACRO1,0.1016X0.27X0.2828X-0.27X0.2828*%
%ADD21MACRO1,0.1016X-0.5X0.45X0.5X0.45*%
%ADD22MACRO1,0.1016X-0.45X-0.5X-0.45X0.5*%
%ADD23MACRO1,0.1016X0.45X0.5X0.45X-0.5*%
%ADD24MACRO1,0.1016X-0.125X0.3X0.125X0.3*%
%ADD25MACRO1,0.1016X-0.3X-0.125X-0.3X0.125*%
%ADD26MACRO1,0.1016X0.125X-0.3X-0.125X-0.3*%
%ADD27MACRO1,0.1016X0.3X0.125X0.3X-0.125*%
%ADD28MACRO1,0.1016X0.75X0.75X0.75X-0.75*%
%ADD29MACRO1,0.1016X-0.75X-0.75X-0.75X0.75*%
%ADD30MACRO1,0.1016X-0.5X0.5X0.5X0.5*%
%ADD31C,1.1016*%
%ADD32MACRO1,0.1016X0.5X-0.5X-0.5X-0.5*%
%ADD33MACRO1,0.1016X-0.5X-0.5X-0.5X0.5*%
%ADD34MACRO1,0.1016X-0.45X-0.4X-0.45X0.4*%
%ADD35MACRO1,0.1016X0.4X-0.45X-0.4X-0.45*%
%ADD36MACRO1,0.1016X-0.395X-0.27X-0.395X0.27*%
%ADD37MACRO1,0.1016X0.395X-0.27X0.395X0.27*%
%ADD38MACRO1,0.1016X0.395X0.27X0.395X-0.27*%
%ADD39MACRO1,0.1016X-0.395X0.27X-0.395X-0.27*%
%ADD40MACRO1,0.1016X0.575X0.475X0.575X-0.475*%
%ADD41MACRO1,0.1X-0.3X0.5X0.3X0.5*%
%ADD42MACRO1,0.1016X-0.3X-0.5X-0.3X0.5*%
%ADD43C,1.6764*%
%ADD44MACRO1,0.1016X-0.7874X0.7874X0.7874X0.7874*%
%ADD45MACRO1,0.1016X0.625X0.35X0.625X-0.35*%
%ADD46O,0.40159940000000005X2.101596*%
%ADD47O,2.101596X0.40159940000000005*%
%ADD48MACRO1,0.1016X-0.85X-0.325X-0.85X0.325*%
%ADD49MACRO1,0.1016X-0.85X-0.25X-0.85X0.25*%
%ADD50MACRO1,0.1016X-0.3X-1X-0.3X1*%
%ADD51R,0.7016X2.1016*%
%ADD52MACRO1,0.1016X-1X0.3X1X0.3*%
%ADD53MACRO1,0.1016X0.3X1X0.3X-1*%
%ADD54C,0.0119*%

%LPD*%
D10*
G01*
X3682542Y-1104900D03*
G01*
X3747541Y-1104900D03*
G01*
X3812539Y-1104900D03*
G01*
X3877538Y-1104900D03*
G01*
X3942537Y-1104900D03*
D11*
G01*
X4122547Y-1114805D03*
D12*
G01*
X3502532Y-1114805D03*
D13*
G01*
X3529533Y-1369898D03*
G01*
X4095546Y-1369898D03*
D14*
G01*
X4894991Y-125001D03*
G01*
X4754991Y-125001D03*
D15*
G01*
X1218279Y-1224996D03*
D16*
G01*
X1131713Y-1224996D03*
D17*
G01*
X1381713Y-1224996D03*
D18*
G01*
X1468278Y-1224996D03*
D15*
G01*
X1893279Y-400001D03*
D16*
G01*
X1806713Y-400001D03*
D17*
G01*
X5919204Y-225000D03*
D18*
G01*
X6005770Y-225000D03*
D17*
G01*
X6206704Y-1412496D03*
D18*
G01*
X6293270Y-1412496D03*
D15*
G01*
X6843269Y-799998D03*
D16*
G01*
X6756703Y-799998D03*
D17*
G01*
X3369209Y-537499D03*
D18*
G01*
X3455775Y-537499D03*
D19*
G01*
X1587497Y-844215D03*
D20*
G01*
X1587497Y-930781D03*
D21*
G01*
X6462486Y-1252507D03*
G01*
X6462486Y-1422506D03*
D22*
G01*
X1215006Y-587499D03*
G01*
X1385006Y-587499D03*
D23*
G01*
X1972487Y-237500D03*
G01*
X1802488Y-237500D03*
D24*
G01*
X6874835Y-925004D03*
G01*
X6824835Y-925001D03*
G01*
X6774835Y-925004D03*
G01*
X6724835Y-925004D03*
D25*
G01*
X6649986Y-1000206D03*
G01*
X6649986Y-1050206D03*
G01*
X6649989Y-1100206D03*
G01*
X6649986Y-1150205D03*
D26*
G01*
X6724987Y-1224998D03*
G01*
X6774987Y-1224998D03*
G01*
X6824987Y-1224998D03*
G01*
X6874835Y-1225001D03*
D27*
G01*
X6949986Y-1150205D03*
G01*
X6949988Y-1100206D03*
G01*
X6949986Y-1050206D03*
G01*
X6949986Y-1000206D03*
D28*
G01*
X6799986Y-1074999D03*
D26*
G01*
X6725137Y-674997D03*
G01*
X6775137Y-674997D03*
G01*
X6825137Y-674997D03*
G01*
X6875137Y-674997D03*
D27*
G01*
X6949986Y-599794D03*
G01*
X6949986Y-549794D03*
G01*
X6949983Y-499794D03*
G01*
X6949986Y-449795D03*
D24*
G01*
X6874984Y-375003D03*
G01*
X6824985Y-375003D03*
G01*
X6774985Y-375003D03*
G01*
X6725137Y-375000D03*
D25*
G01*
X6649986Y-449795D03*
G01*
X6649984Y-499794D03*
G01*
X6649986Y-549794D03*
G01*
X6649986Y-599794D03*
D29*
G01*
X6799986Y-525002D03*
D30*
G01*
X3373993Y-199999D03*
D31*
G01*
X3501009Y-199999D03*
D30*
G01*
X6736486Y-175000D03*
D31*
G01*
X6863486Y-175005D03*
D32*
G01*
X6863486Y-1424998D03*
D31*
G01*
X6736486Y-1424990D03*
D30*
G01*
X3723993Y-199999D03*
D31*
G01*
X3850995Y-199999D03*
D33*
G01*
X199999Y-1263497D03*
D31*
G01*
X199999Y-1136497D03*
D34*
G01*
X462498Y-629998D03*
G01*
X462498Y-769998D03*
D14*
G01*
X807496Y-1224996D03*
G01*
X667496Y-1224996D03*
D34*
G01*
X462498Y-1129997D03*
G01*
X462498Y-1269997D03*
D14*
G01*
X4794991Y-1449997D03*
G01*
X4654991Y-1449997D03*
D35*
G01*
X6192486Y-412498D03*
G01*
X6332486Y-412498D03*
D36*
G01*
X4779497Y-1287498D03*
D37*
G01*
X4670485Y-1287498D03*
D36*
G01*
X4779497Y-275000D03*
D37*
G01*
X4670485Y-275000D03*
D38*
G01*
X5907981Y-99999D03*
D39*
G01*
X6016993Y-99999D03*
D38*
G01*
X6095481Y-1274998D03*
D39*
G01*
X6204493Y-1274998D03*
D38*
G01*
X5895482Y-1412496D03*
D39*
G01*
X6004493Y-1412496D03*
D38*
G01*
X6182982Y-575000D03*
D39*
G01*
X6291994Y-575000D03*
D40*
G01*
X987496Y-1119238D03*
G01*
X987496Y-780757D03*
D41*
G01*
X737496Y-697506D03*
G01*
X832487Y-697508D03*
G01*
X642505Y-697501D03*
G01*
X832500Y-477492D03*
G01*
X642495Y-477492D03*
D42*
G01*
X1394993Y-1080007D03*
G01*
X1205001Y-1080007D03*
G01*
X1205001Y-819988D03*
G01*
X1299997Y-819988D03*
G01*
X1394993Y-819988D03*
D43*
G01*
X3053994Y-418998D03*
G01*
X2799994Y-418998D03*
D44*
G01*
X2545994Y-418998D03*
G01*
X2545994Y-1180998D03*
D43*
G01*
X2799994Y-1180998D03*
G01*
X3053994Y-1180998D03*
D44*
G01*
X431497Y-162499D03*
D43*
G01*
X685495Y-162509D03*
G01*
X939495Y-162509D03*
G01*
X1193495Y-162509D03*
D45*
G01*
X537530Y-949998D03*
G01*
X787466Y-855002D03*
G01*
X787466Y-1044994D03*
D46*
G01*
X5774994Y-1374978D03*
G01*
X5724982Y-1374978D03*
G01*
X5674995Y-1374978D03*
G01*
X5624982Y-1374978D03*
G01*
X5574995Y-1374978D03*
G01*
X5524982Y-1374978D03*
G01*
X5474995Y-1374978D03*
G01*
X5424982Y-1374978D03*
G01*
X5374995Y-1374978D03*
G01*
X5324983Y-1374978D03*
G01*
X5274995Y-1374978D03*
G01*
X5224983Y-1374978D03*
G01*
X5174995Y-1374978D03*
G01*
X5124983Y-1374978D03*
G01*
X5074996Y-1374978D03*
G01*
X5024983Y-1374978D03*
D47*
G01*
X4825009Y-1175004D03*
G01*
X4825009Y-1124991D03*
G01*
X4825009Y-1075004D03*
G01*
X4825009Y-1024991D03*
G01*
X4825009Y-975004D03*
G01*
X4825009Y-924991D03*
G01*
X4825009Y-875004D03*
G01*
X4825009Y-824992D03*
G01*
X4825009Y-775004D03*
G01*
X4825009Y-724992D03*
G01*
X4825009Y-675004D03*
G01*
X4825009Y-624992D03*
G01*
X4825009Y-575005D03*
G01*
X4825009Y-524992D03*
G01*
X4825009Y-475005D03*
G01*
X4825009Y-424992D03*
D46*
G01*
X5024983Y-225018D03*
G01*
X5074996Y-225018D03*
G01*
X5124983Y-225018D03*
G01*
X5174995Y-225018D03*
G01*
X5224983Y-225018D03*
G01*
X5274995Y-225018D03*
G01*
X5324983Y-225018D03*
G01*
X5374995Y-225018D03*
G01*
X5424982Y-225018D03*
G01*
X5474995Y-225018D03*
G01*
X5524982Y-225018D03*
G01*
X5574995Y-225018D03*
G01*
X5624982Y-225018D03*
G01*
X5674995Y-225018D03*
G01*
X5724982Y-225018D03*
G01*
X5774994Y-225018D03*
D47*
G01*
X5974968Y-424992D03*
G01*
X5974968Y-475005D03*
G01*
X5974968Y-524992D03*
G01*
X5974968Y-575005D03*
G01*
X5974968Y-624992D03*
G01*
X5974968Y-675004D03*
G01*
X5974968Y-724992D03*
G01*
X5974968Y-775004D03*
G01*
X5974968Y-824992D03*
G01*
X5974968Y-875004D03*
G01*
X5974968Y-924991D03*
G01*
X5974968Y-975004D03*
G01*
X5974968Y-1024991D03*
G01*
X5974968Y-1075004D03*
G01*
X5974968Y-1124991D03*
G01*
X5974968Y-1175004D03*
D48*
G01*
X6274988Y-1069987D03*
D49*
G01*
X6274988Y-949998D03*
D48*
G01*
X6274988Y-829998D03*
D50*
G01*
X9437486Y-1449997D03*
G01*
X9337487Y-1449997D03*
D51*
G01*
X9237497Y-1450009D03*
D50*
G01*
X9137487Y-1449997D03*
G01*
X9037487Y-1449997D03*
G01*
X8937487Y-1449997D03*
G01*
X8837488Y-1449997D03*
G01*
X8737488Y-1449997D03*
G01*
X8637488Y-1449997D03*
D51*
G01*
X8537498Y-1450009D03*
D50*
G01*
X8437488Y-1449997D03*
G01*
X8337489Y-1449997D03*
D51*
G01*
X8237499Y-1450009D03*
D50*
G01*
X8137489Y-1449997D03*
G01*
X8037489Y-1449997D03*
G01*
X7937489Y-1449997D03*
G01*
X7837490Y-1449997D03*
G01*
X7737490Y-1449997D03*
G01*
X7637490Y-1449997D03*
D51*
G01*
X7537500Y-1450009D03*
D50*
G01*
X7437490Y-1449997D03*
D52*
G01*
X7287478Y-1249997D03*
G01*
X7287478Y-1149997D03*
G01*
X7287478Y-1049997D03*
G01*
X7287478Y-949998D03*
G01*
X7287478Y-849998D03*
G01*
X7287478Y-749998D03*
G01*
X7287478Y-649998D03*
G01*
X7287478Y-549998D03*
G01*
X7287478Y-449999D03*
G01*
X7287478Y-349999D03*
D53*
G01*
X7437490Y-149999D03*
G01*
X7537490Y-149999D03*
G01*
X7637490Y-149999D03*
G01*
X7737490Y-149999D03*
G01*
X7837490Y-149999D03*
G01*
X7937489Y-149999D03*
G01*
X8037489Y-149999D03*
G01*
X8137489Y-149999D03*
G01*
X8237489Y-149999D03*
G01*
X8337489Y-149999D03*
G01*
X8437488Y-149999D03*
G01*
X8537488Y-149999D03*
G01*
X8637488Y-149999D03*
G01*
X8737488Y-149999D03*
G01*
X8837488Y-149999D03*
G01*
X8937487Y-149999D03*
G01*
X9037487Y-149999D03*
G01*
X9137487Y-149999D03*
G01*
X9237487Y-149999D03*
G01*
X9337487Y-149999D03*
G01*
X9437486Y-149999D03*
M02*
