G04 Layer: InnerLayer2*
G04 EasyEDA v6.5.22, 2023-02-02 12:04:13*
G04 e40c6f2ac48d42a8ab01bc531f02f979,d89026aa57f64e8aa15d5895f5b481f1,10*
G04 Gerber Generator version 0.2*
G04 Scale: 100 percent, Rotated: No, Reflected: No *
G04 Dimensions in millimeters *
G04 leading zeros omitted , absolute positions ,4 integer and 5 decimal *
%FSLAX45Y45*%
%MOMM*%

%ADD10O,1.499997X1.9999959999999999*%
%ADD11R,1.0000X1.0000*%
%ADD12C,1.0000*%
%ADD13C,1.5748*%
%ADD14R,1.5748X1.5748*%
%ADD15C,0.6096*%
%ADD16C,0.0164*%

%LPD*%
G36*
X36068Y-1574088D02*
G01*
X32156Y-1573326D01*
X28905Y-1571091D01*
X26670Y-1567789D01*
X25908Y-1563928D01*
X25908Y-36068D01*
X26670Y-32156D01*
X28905Y-28905D01*
X32156Y-26670D01*
X36068Y-25908D01*
X2007463Y-25908D01*
X2011527Y-26771D01*
X2014880Y-29159D01*
X2017064Y-32715D01*
X2017572Y-36830D01*
X2016455Y-40792D01*
X2013762Y-43992D01*
X2010105Y-45872D01*
X2005736Y-47040D01*
X1996846Y-51206D01*
X1988769Y-56845D01*
X1981809Y-63754D01*
X1976221Y-71831D01*
X1972056Y-80721D01*
X1969516Y-90220D01*
X1968652Y-100025D01*
X1969516Y-109778D01*
X1972056Y-119278D01*
X1976221Y-128168D01*
X1981809Y-136245D01*
X1988769Y-143154D01*
X1996846Y-148793D01*
X2005736Y-152958D01*
X2015236Y-155498D01*
X2024989Y-156362D01*
X2034793Y-155498D01*
X2044293Y-152958D01*
X2053183Y-148793D01*
X2061210Y-143154D01*
X2068169Y-136245D01*
X2073808Y-128168D01*
X2077923Y-119278D01*
X2080514Y-109778D01*
X2081326Y-100025D01*
X2080514Y-90220D01*
X2077923Y-80721D01*
X2073808Y-71831D01*
X2068169Y-63754D01*
X2061210Y-56845D01*
X2053183Y-51206D01*
X2044293Y-47040D01*
X2039924Y-45872D01*
X2036216Y-43992D01*
X2033574Y-40792D01*
X2032406Y-36830D01*
X2032965Y-32715D01*
X2035098Y-29159D01*
X2038502Y-26771D01*
X2042566Y-25908D01*
X4533798Y-25908D01*
X4538116Y-26873D01*
X4541621Y-29514D01*
X4543653Y-33426D01*
X4543806Y-37846D01*
X4542129Y-41910D01*
X4538675Y-46837D01*
X4534560Y-55727D01*
X4532020Y-65227D01*
X4531156Y-74980D01*
X4532020Y-84785D01*
X4534560Y-94284D01*
X4538675Y-103174D01*
X4544314Y-111201D01*
X4551273Y-118160D01*
X4559300Y-123799D01*
X4561281Y-124714D01*
X4564786Y-127406D01*
X4566818Y-131318D01*
X4567021Y-135686D01*
X4565345Y-139750D01*
X4562094Y-142748D01*
X4557877Y-144068D01*
X4552696Y-144526D01*
X4543196Y-147066D01*
X4534306Y-151180D01*
X4526280Y-156819D01*
X4519320Y-163779D01*
X4513681Y-171805D01*
X4509516Y-180746D01*
X4506976Y-190195D01*
X4506163Y-199999D01*
X4506976Y-209804D01*
X4509516Y-219252D01*
X4513681Y-228193D01*
X4519320Y-236220D01*
X4526280Y-243179D01*
X4534306Y-248818D01*
X4543196Y-252933D01*
X4552696Y-255473D01*
X4562500Y-256336D01*
X4572254Y-255473D01*
X4581753Y-252933D01*
X4590643Y-248818D01*
X4598720Y-243179D01*
X4605680Y-236220D01*
X4611268Y-228193D01*
X4615434Y-219252D01*
X4617974Y-209804D01*
X4618837Y-199999D01*
X4617974Y-190195D01*
X4615434Y-180746D01*
X4611268Y-171805D01*
X4605680Y-163779D01*
X4598720Y-156819D01*
X4590643Y-151180D01*
X4588662Y-150266D01*
X4585208Y-147624D01*
X4583176Y-143713D01*
X4582972Y-139293D01*
X4584649Y-135229D01*
X4587900Y-132283D01*
X4592116Y-130962D01*
X4597298Y-130505D01*
X4606747Y-127965D01*
X4615688Y-123799D01*
X4623714Y-118160D01*
X4630674Y-111201D01*
X4636312Y-103174D01*
X4640427Y-94284D01*
X4642967Y-84785D01*
X4643831Y-74980D01*
X4642967Y-65227D01*
X4640427Y-55727D01*
X4636312Y-46837D01*
X4632858Y-41910D01*
X4631131Y-37846D01*
X4631334Y-33426D01*
X4633366Y-29514D01*
X4636871Y-26873D01*
X4641138Y-25908D01*
X9963912Y-25908D01*
X9967823Y-26670D01*
X9971125Y-28905D01*
X9973310Y-32156D01*
X9974072Y-36068D01*
X9974072Y-1563928D01*
X9973310Y-1567789D01*
X9971125Y-1571091D01*
X9967823Y-1573326D01*
X9963912Y-1574088D01*
X6092139Y-1574088D01*
X6087973Y-1573225D01*
X6084570Y-1570685D01*
X6082436Y-1567027D01*
X6082030Y-1562811D01*
X6083350Y-1558798D01*
X6086195Y-1555648D01*
X6093155Y-1548739D01*
X6098794Y-1540662D01*
X6102959Y-1531772D01*
X6105499Y-1522272D01*
X6106312Y-1512519D01*
X6105499Y-1502714D01*
X6102959Y-1493215D01*
X6098794Y-1484325D01*
X6093155Y-1476298D01*
X6086195Y-1469339D01*
X6078169Y-1463700D01*
X6069279Y-1459534D01*
X6059779Y-1456994D01*
X6049975Y-1456131D01*
X6040221Y-1456994D01*
X6030722Y-1459534D01*
X6021832Y-1463700D01*
X6013754Y-1469339D01*
X6006846Y-1476298D01*
X6001207Y-1484325D01*
X5997041Y-1493215D01*
X5994501Y-1502714D01*
X5993638Y-1512519D01*
X5994501Y-1522272D01*
X5997041Y-1531772D01*
X6001207Y-1540662D01*
X6006846Y-1548739D01*
X6013754Y-1555648D01*
X6016599Y-1558798D01*
X6017971Y-1562811D01*
X6017514Y-1567027D01*
X6015431Y-1570685D01*
X6011976Y-1573225D01*
X6007862Y-1574088D01*
X5778652Y-1574088D01*
X5774385Y-1573123D01*
X5770880Y-1570482D01*
X5768848Y-1566570D01*
X5768644Y-1562150D01*
X5770321Y-1558086D01*
X5773775Y-1553159D01*
X5777941Y-1544269D01*
X5780481Y-1534769D01*
X5781344Y-1525016D01*
X5780481Y-1515211D01*
X5777941Y-1505712D01*
X5773775Y-1496822D01*
X5768136Y-1488795D01*
X5761228Y-1481836D01*
X5753150Y-1476197D01*
X5744260Y-1472031D01*
X5734761Y-1469491D01*
X5725007Y-1468628D01*
X5715203Y-1469491D01*
X5705703Y-1472031D01*
X5696813Y-1476197D01*
X5685129Y-1484376D01*
X5681218Y-1485138D01*
X5677357Y-1484376D01*
X5665673Y-1476197D01*
X5656783Y-1472031D01*
X5647283Y-1469491D01*
X5637479Y-1468628D01*
X5627725Y-1469491D01*
X5618226Y-1472031D01*
X5609336Y-1476197D01*
X5601258Y-1481836D01*
X5594299Y-1488795D01*
X5588711Y-1496822D01*
X5584545Y-1505712D01*
X5582005Y-1515211D01*
X5581142Y-1525016D01*
X5582005Y-1534769D01*
X5584545Y-1544269D01*
X5588711Y-1553159D01*
X5592114Y-1558086D01*
X5593842Y-1562150D01*
X5593638Y-1566570D01*
X5591606Y-1570482D01*
X5588101Y-1573123D01*
X5583834Y-1574088D01*
X5416143Y-1574088D01*
X5411876Y-1573123D01*
X5408371Y-1570482D01*
X5406339Y-1566570D01*
X5406136Y-1562150D01*
X5407863Y-1558086D01*
X5411266Y-1553159D01*
X5415432Y-1544269D01*
X5417972Y-1534769D01*
X5418836Y-1525016D01*
X5417972Y-1515211D01*
X5415432Y-1505712D01*
X5411266Y-1496822D01*
X5405678Y-1488795D01*
X5398719Y-1481836D01*
X5390642Y-1476197D01*
X5381752Y-1472031D01*
X5372252Y-1469491D01*
X5362498Y-1468628D01*
X5352694Y-1469491D01*
X5343194Y-1472031D01*
X5334304Y-1476197D01*
X5326278Y-1481836D01*
X5319318Y-1488795D01*
X5313680Y-1496822D01*
X5309514Y-1505712D01*
X5306974Y-1515211D01*
X5306161Y-1525016D01*
X5306974Y-1534769D01*
X5309514Y-1544269D01*
X5313680Y-1553159D01*
X5317134Y-1558086D01*
X5318810Y-1562150D01*
X5318607Y-1566570D01*
X5316575Y-1570482D01*
X5313121Y-1573123D01*
X5308803Y-1574088D01*
G37*

%LPC*%
G36*
X7349998Y-1506372D02*
G01*
X7359751Y-1505508D01*
X7369251Y-1502968D01*
X7378141Y-1498803D01*
X7386218Y-1493164D01*
X7393127Y-1486255D01*
X7398766Y-1478178D01*
X7402931Y-1469288D01*
X7405471Y-1459788D01*
X7406335Y-1450035D01*
X7405471Y-1440230D01*
X7402931Y-1430731D01*
X7398766Y-1421841D01*
X7393127Y-1413764D01*
X7386218Y-1406855D01*
X7378141Y-1401216D01*
X7369251Y-1397050D01*
X7359751Y-1394510D01*
X7349998Y-1393647D01*
X7340193Y-1394510D01*
X7330694Y-1397050D01*
X7321803Y-1401216D01*
X7313777Y-1406855D01*
X7306818Y-1413764D01*
X7301179Y-1421841D01*
X7297013Y-1430731D01*
X7294473Y-1440230D01*
X7293660Y-1450035D01*
X7294473Y-1459788D01*
X7297013Y-1469288D01*
X7301179Y-1478178D01*
X7306818Y-1486255D01*
X7313777Y-1493164D01*
X7321803Y-1498803D01*
X7330694Y-1502968D01*
X7340193Y-1505508D01*
G37*
G36*
X6814058Y-1500886D02*
G01*
X6912914Y-1500886D01*
X6919214Y-1500174D01*
X6924700Y-1498295D01*
X6929577Y-1495196D01*
X6933692Y-1491132D01*
X6936790Y-1486204D01*
X6938670Y-1480769D01*
X6939381Y-1474419D01*
X6939381Y-1375562D01*
X6938670Y-1369263D01*
X6936790Y-1363776D01*
X6933692Y-1358900D01*
X6929577Y-1354785D01*
X6924700Y-1351737D01*
X6919214Y-1349806D01*
X6912914Y-1349095D01*
X6814058Y-1349095D01*
X6807758Y-1349806D01*
X6802272Y-1351737D01*
X6797395Y-1354785D01*
X6790232Y-1362151D01*
X6786321Y-1363726D01*
X6782155Y-1363573D01*
X6767525Y-1355750D01*
X6756603Y-1351838D01*
X6745173Y-1349603D01*
X6733590Y-1349197D01*
X6722059Y-1350518D01*
X6710832Y-1353566D01*
X6700215Y-1358341D01*
X6690512Y-1364640D01*
X6681825Y-1372362D01*
X6674408Y-1381353D01*
X6668465Y-1391310D01*
X6664147Y-1402080D01*
X6661505Y-1413408D01*
X6660591Y-1424990D01*
X6661505Y-1436573D01*
X6664147Y-1447901D01*
X6668465Y-1458671D01*
X6674408Y-1468628D01*
X6681825Y-1477619D01*
X6690512Y-1485341D01*
X6700215Y-1491640D01*
X6710832Y-1496415D01*
X6722059Y-1499463D01*
X6733590Y-1500835D01*
X6745173Y-1500378D01*
X6756603Y-1498142D01*
X6767525Y-1494231D01*
X6782155Y-1486408D01*
X6786321Y-1486306D01*
X6790232Y-1487881D01*
X6797395Y-1495196D01*
X6802272Y-1498295D01*
X6807758Y-1500174D01*
G37*
G36*
X3529482Y-1495907D02*
G01*
X3542639Y-1495044D01*
X3555593Y-1492453D01*
X3568090Y-1488236D01*
X3579926Y-1482394D01*
X3590899Y-1475028D01*
X3600805Y-1466342D01*
X3609492Y-1456436D01*
X3616858Y-1445463D01*
X3622700Y-1433626D01*
X3626916Y-1421130D01*
X3629507Y-1408176D01*
X3630371Y-1394663D01*
X3630371Y-1345336D01*
X3629507Y-1331823D01*
X3626916Y-1318869D01*
X3622700Y-1306372D01*
X3616858Y-1294587D01*
X3609492Y-1283614D01*
X3600805Y-1273657D01*
X3590899Y-1264970D01*
X3579926Y-1257655D01*
X3568090Y-1251813D01*
X3555593Y-1247546D01*
X3542639Y-1245006D01*
X3529482Y-1244142D01*
X3516325Y-1245006D01*
X3503371Y-1247546D01*
X3490874Y-1251813D01*
X3479037Y-1257655D01*
X3468065Y-1264970D01*
X3458159Y-1273657D01*
X3449421Y-1283614D01*
X3442106Y-1294587D01*
X3436264Y-1306372D01*
X3432048Y-1318869D01*
X3429457Y-1331823D01*
X3428542Y-1345336D01*
X3428542Y-1394663D01*
X3429457Y-1408176D01*
X3432048Y-1421130D01*
X3436264Y-1433626D01*
X3442106Y-1445463D01*
X3449421Y-1456436D01*
X3458159Y-1466342D01*
X3468065Y-1475028D01*
X3479037Y-1482394D01*
X3490874Y-1488236D01*
X3503371Y-1492453D01*
X3516325Y-1495044D01*
G37*
G36*
X4095496Y-1495907D02*
G01*
X4108653Y-1495044D01*
X4121607Y-1492453D01*
X4134104Y-1488236D01*
X4145940Y-1482394D01*
X4156913Y-1475028D01*
X4166819Y-1466342D01*
X4175506Y-1456436D01*
X4182872Y-1445463D01*
X4188714Y-1433626D01*
X4192930Y-1421130D01*
X4195521Y-1408176D01*
X4196384Y-1394663D01*
X4196384Y-1345336D01*
X4195521Y-1331823D01*
X4192930Y-1318869D01*
X4188714Y-1306372D01*
X4182872Y-1294587D01*
X4175506Y-1283614D01*
X4166819Y-1273657D01*
X4156913Y-1264970D01*
X4145940Y-1257655D01*
X4134104Y-1251813D01*
X4121607Y-1247546D01*
X4108653Y-1245006D01*
X4095496Y-1244142D01*
X4082338Y-1245006D01*
X4069384Y-1247546D01*
X4056887Y-1251813D01*
X4045051Y-1257655D01*
X4034078Y-1264970D01*
X4024122Y-1273657D01*
X4015435Y-1283614D01*
X4008120Y-1294587D01*
X4002278Y-1306372D01*
X3998010Y-1318869D01*
X3995470Y-1331823D01*
X3994556Y-1345336D01*
X3994556Y-1394663D01*
X3995470Y-1408176D01*
X3998010Y-1421130D01*
X4002278Y-1433626D01*
X4008120Y-1445463D01*
X4015435Y-1456436D01*
X4024122Y-1466342D01*
X4034078Y-1475028D01*
X4045051Y-1482394D01*
X4056887Y-1488236D01*
X4069384Y-1492453D01*
X4082338Y-1495044D01*
G37*
G36*
X3899966Y-1431340D02*
G01*
X3909771Y-1430477D01*
X3919270Y-1427937D01*
X3928160Y-1423822D01*
X3936237Y-1418183D01*
X3943146Y-1411224D01*
X3948785Y-1403197D01*
X3952951Y-1394256D01*
X3955491Y-1384808D01*
X3956354Y-1375003D01*
X3955491Y-1365199D01*
X3952951Y-1355750D01*
X3948785Y-1346809D01*
X3943146Y-1338783D01*
X3936237Y-1331823D01*
X3928160Y-1326184D01*
X3919270Y-1322070D01*
X3909771Y-1319530D01*
X3899966Y-1318666D01*
X3890213Y-1319530D01*
X3880713Y-1322070D01*
X3871823Y-1326184D01*
X3863746Y-1331823D01*
X3856837Y-1338783D01*
X3851198Y-1346809D01*
X3847033Y-1355750D01*
X3844493Y-1365199D01*
X3843629Y-1375003D01*
X3844493Y-1384808D01*
X3847033Y-1394256D01*
X3851198Y-1403197D01*
X3856837Y-1411224D01*
X3863746Y-1418183D01*
X3871823Y-1423822D01*
X3880713Y-1427937D01*
X3890213Y-1430477D01*
G37*
G36*
X1062482Y-1406347D02*
G01*
X1072286Y-1405483D01*
X1081786Y-1402943D01*
X1090676Y-1398778D01*
X1098702Y-1393139D01*
X1105662Y-1386230D01*
X1111300Y-1378153D01*
X1115466Y-1369263D01*
X1118006Y-1359763D01*
X1118870Y-1350010D01*
X1118006Y-1340205D01*
X1115466Y-1330706D01*
X1111300Y-1321816D01*
X1105662Y-1313789D01*
X1098702Y-1306830D01*
X1090676Y-1301191D01*
X1081786Y-1297025D01*
X1072286Y-1294485D01*
X1062482Y-1293672D01*
X1052728Y-1294485D01*
X1043228Y-1297025D01*
X1034338Y-1301191D01*
X1026261Y-1306830D01*
X1019352Y-1313789D01*
X1013714Y-1321816D01*
X1009548Y-1330706D01*
X1007008Y-1340205D01*
X1006144Y-1350010D01*
X1007008Y-1359763D01*
X1009548Y-1369263D01*
X1013714Y-1378153D01*
X1019352Y-1386230D01*
X1026261Y-1393139D01*
X1034338Y-1398778D01*
X1043228Y-1402943D01*
X1052728Y-1405483D01*
G37*
G36*
X7049973Y-1381353D02*
G01*
X7059777Y-1380490D01*
X7069277Y-1377950D01*
X7078167Y-1373784D01*
X7086193Y-1368145D01*
X7093153Y-1361236D01*
X7098792Y-1353159D01*
X7102957Y-1344269D01*
X7105497Y-1334770D01*
X7106310Y-1325016D01*
X7105497Y-1315212D01*
X7102957Y-1305712D01*
X7098792Y-1296822D01*
X7093153Y-1288796D01*
X7086193Y-1281836D01*
X7078167Y-1276197D01*
X7069277Y-1272032D01*
X7059777Y-1269492D01*
X7049973Y-1268628D01*
X7040219Y-1269492D01*
X7030720Y-1272032D01*
X7021830Y-1276197D01*
X7013752Y-1281836D01*
X7006844Y-1288796D01*
X7001205Y-1296822D01*
X6997039Y-1305712D01*
X6994499Y-1315212D01*
X6993636Y-1325016D01*
X6994499Y-1334770D01*
X6997039Y-1344269D01*
X7001205Y-1353159D01*
X7006844Y-1361236D01*
X7013752Y-1368145D01*
X7021830Y-1373784D01*
X7030720Y-1377950D01*
X7040219Y-1380490D01*
G37*
G36*
X9437471Y-1343863D02*
G01*
X9447276Y-1342999D01*
X9456775Y-1340459D01*
X9465665Y-1336294D01*
X9473692Y-1330655D01*
X9480651Y-1323695D01*
X9486290Y-1315669D01*
X9490456Y-1306779D01*
X9492996Y-1297279D01*
X9493808Y-1287475D01*
X9492996Y-1277721D01*
X9490456Y-1268222D01*
X9486290Y-1259332D01*
X9480651Y-1251254D01*
X9473692Y-1244346D01*
X9465665Y-1238707D01*
X9456775Y-1234541D01*
X9447276Y-1232001D01*
X9437471Y-1231138D01*
X9427718Y-1232001D01*
X9418218Y-1234541D01*
X9409328Y-1238707D01*
X9401251Y-1244346D01*
X9394291Y-1251254D01*
X9388703Y-1259332D01*
X9384538Y-1268222D01*
X9381998Y-1277721D01*
X9381134Y-1287475D01*
X9381998Y-1297279D01*
X9384538Y-1306779D01*
X9388703Y-1315669D01*
X9394291Y-1323695D01*
X9401251Y-1330655D01*
X9409328Y-1336294D01*
X9418218Y-1340459D01*
X9427718Y-1342999D01*
G37*
G36*
X9237472Y-1343863D02*
G01*
X9247276Y-1342999D01*
X9256776Y-1340459D01*
X9265666Y-1336294D01*
X9273692Y-1330655D01*
X9280652Y-1323695D01*
X9286290Y-1315669D01*
X9290456Y-1306779D01*
X9292996Y-1297279D01*
X9293809Y-1287475D01*
X9292996Y-1277721D01*
X9290456Y-1268222D01*
X9286290Y-1259332D01*
X9280652Y-1251254D01*
X9273692Y-1244346D01*
X9265666Y-1238707D01*
X9256776Y-1234541D01*
X9247276Y-1232001D01*
X9237472Y-1231138D01*
X9227718Y-1232001D01*
X9218218Y-1234541D01*
X9209328Y-1238707D01*
X9201251Y-1244346D01*
X9194292Y-1251254D01*
X9188704Y-1259332D01*
X9184538Y-1268222D01*
X9181998Y-1277721D01*
X9181134Y-1287475D01*
X9181998Y-1297279D01*
X9184538Y-1306779D01*
X9188704Y-1315669D01*
X9194292Y-1323695D01*
X9201251Y-1330655D01*
X9209328Y-1336294D01*
X9218218Y-1340459D01*
X9227718Y-1342999D01*
G37*
G36*
X150571Y-1339392D02*
G01*
X249428Y-1339392D01*
X255727Y-1338681D01*
X261213Y-1336802D01*
X266090Y-1333703D01*
X270205Y-1329588D01*
X273304Y-1324711D01*
X275183Y-1319225D01*
X275894Y-1312926D01*
X275894Y-1214069D01*
X275183Y-1207770D01*
X273304Y-1202283D01*
X270205Y-1197406D01*
X262890Y-1190244D01*
X261264Y-1186332D01*
X261416Y-1182166D01*
X269240Y-1167536D01*
X273151Y-1156614D01*
X275386Y-1145184D01*
X275844Y-1133602D01*
X274472Y-1122070D01*
X271424Y-1110843D01*
X266649Y-1100226D01*
X260350Y-1090523D01*
X252628Y-1081836D01*
X243636Y-1074420D01*
X233679Y-1068476D01*
X222910Y-1064158D01*
X211582Y-1061516D01*
X199999Y-1060602D01*
X188417Y-1061516D01*
X177088Y-1064158D01*
X166319Y-1068476D01*
X156362Y-1074420D01*
X147370Y-1081836D01*
X139649Y-1090523D01*
X133350Y-1100226D01*
X128574Y-1110843D01*
X125526Y-1122070D01*
X124155Y-1133602D01*
X124612Y-1145184D01*
X126847Y-1156614D01*
X130759Y-1167536D01*
X138582Y-1182166D01*
X138734Y-1186332D01*
X137109Y-1190244D01*
X129794Y-1197406D01*
X126695Y-1202283D01*
X124815Y-1207770D01*
X124104Y-1214069D01*
X124104Y-1312926D01*
X124815Y-1319225D01*
X126695Y-1324711D01*
X129794Y-1329588D01*
X133908Y-1333703D01*
X138785Y-1336802D01*
X144272Y-1338681D01*
G37*
G36*
X6312509Y-1331366D02*
G01*
X6322263Y-1330502D01*
X6331762Y-1327962D01*
X6340652Y-1323797D01*
X6348730Y-1318158D01*
X6355638Y-1311198D01*
X6361277Y-1303172D01*
X6365443Y-1294282D01*
X6367983Y-1284782D01*
X6368846Y-1274978D01*
X6367983Y-1265224D01*
X6365443Y-1255725D01*
X6361277Y-1246835D01*
X6355638Y-1238758D01*
X6348730Y-1231849D01*
X6340652Y-1226210D01*
X6331762Y-1222044D01*
X6322263Y-1219504D01*
X6312509Y-1218641D01*
X6302705Y-1219504D01*
X6293205Y-1222044D01*
X6284315Y-1226210D01*
X6276289Y-1231849D01*
X6269329Y-1238758D01*
X6263690Y-1246835D01*
X6259525Y-1255725D01*
X6256985Y-1265224D01*
X6256121Y-1274978D01*
X6256985Y-1284782D01*
X6259525Y-1294282D01*
X6263690Y-1303172D01*
X6269329Y-1311198D01*
X6276289Y-1318158D01*
X6284315Y-1323797D01*
X6293205Y-1327962D01*
X6302705Y-1330502D01*
G37*
G36*
X3053994Y-1285646D02*
G01*
X3067659Y-1284732D01*
X3081070Y-1282039D01*
X3094024Y-1277670D01*
X3106318Y-1271625D01*
X3117697Y-1264005D01*
X3127959Y-1254963D01*
X3137001Y-1244701D01*
X3144621Y-1233322D01*
X3150666Y-1221028D01*
X3155035Y-1208074D01*
X3157728Y-1194663D01*
X3158642Y-1180998D01*
X3157728Y-1167333D01*
X3155035Y-1153922D01*
X3150666Y-1140968D01*
X3144621Y-1128674D01*
X3137001Y-1117295D01*
X3127959Y-1107033D01*
X3117697Y-1097991D01*
X3106318Y-1090371D01*
X3094024Y-1084326D01*
X3081070Y-1079957D01*
X3067659Y-1077264D01*
X3053994Y-1076350D01*
X3040329Y-1077264D01*
X3026918Y-1079957D01*
X3013964Y-1084326D01*
X3001670Y-1090371D01*
X2990291Y-1097991D01*
X2980029Y-1107033D01*
X2970987Y-1117295D01*
X2963367Y-1128674D01*
X2957322Y-1140968D01*
X2952953Y-1153922D01*
X2950260Y-1167333D01*
X2949346Y-1180998D01*
X2950260Y-1194663D01*
X2952953Y-1208074D01*
X2957322Y-1221028D01*
X2963367Y-1233322D01*
X2970987Y-1244701D01*
X2980029Y-1254963D01*
X2990291Y-1264005D01*
X3001670Y-1271625D01*
X3013964Y-1277670D01*
X3026918Y-1282039D01*
X3040329Y-1284732D01*
G37*
G36*
X2799994Y-1285646D02*
G01*
X2813659Y-1284732D01*
X2827070Y-1282039D01*
X2840024Y-1277670D01*
X2852318Y-1271625D01*
X2863697Y-1264005D01*
X2873959Y-1254963D01*
X2883001Y-1244701D01*
X2890621Y-1233322D01*
X2896666Y-1221028D01*
X2901035Y-1208074D01*
X2903728Y-1194663D01*
X2904642Y-1180998D01*
X2903728Y-1167333D01*
X2901035Y-1153922D01*
X2896666Y-1140968D01*
X2890621Y-1128674D01*
X2883001Y-1117295D01*
X2873959Y-1107033D01*
X2863697Y-1097991D01*
X2852318Y-1090371D01*
X2840024Y-1084326D01*
X2827070Y-1079957D01*
X2813659Y-1077264D01*
X2799994Y-1076350D01*
X2786329Y-1077264D01*
X2772918Y-1079957D01*
X2759964Y-1084326D01*
X2747670Y-1090371D01*
X2736291Y-1097991D01*
X2726029Y-1107033D01*
X2716987Y-1117295D01*
X2709367Y-1128674D01*
X2703322Y-1140968D01*
X2698953Y-1153922D01*
X2696260Y-1167333D01*
X2695346Y-1180998D01*
X2696260Y-1194663D01*
X2698953Y-1208074D01*
X2703322Y-1221028D01*
X2709367Y-1233322D01*
X2716987Y-1244701D01*
X2726029Y-1254963D01*
X2736291Y-1264005D01*
X2747670Y-1271625D01*
X2759964Y-1277670D01*
X2772918Y-1282039D01*
X2786329Y-1284732D01*
G37*
G36*
X2467813Y-1285646D02*
G01*
X2624175Y-1285646D01*
X2630474Y-1284935D01*
X2635961Y-1283004D01*
X2640838Y-1279956D01*
X2644952Y-1275842D01*
X2648000Y-1270965D01*
X2649931Y-1265478D01*
X2650642Y-1259179D01*
X2650642Y-1102817D01*
X2649931Y-1096518D01*
X2648000Y-1091031D01*
X2644952Y-1086154D01*
X2640838Y-1082040D01*
X2635961Y-1078992D01*
X2630474Y-1077061D01*
X2624175Y-1076350D01*
X2467813Y-1076350D01*
X2461514Y-1077061D01*
X2456027Y-1078992D01*
X2451150Y-1082040D01*
X2447036Y-1086154D01*
X2443988Y-1091031D01*
X2442057Y-1096518D01*
X2441346Y-1102817D01*
X2441346Y-1259179D01*
X2442057Y-1265478D01*
X2443988Y-1270965D01*
X2447036Y-1275842D01*
X2451150Y-1279956D01*
X2456027Y-1283004D01*
X2461514Y-1284935D01*
G37*
G36*
X563270Y-1281328D02*
G01*
X573074Y-1280464D01*
X582574Y-1277924D01*
X591464Y-1273810D01*
X599490Y-1268171D01*
X606450Y-1261211D01*
X612089Y-1253185D01*
X616254Y-1244244D01*
X618794Y-1234795D01*
X619658Y-1224991D01*
X618794Y-1215186D01*
X616254Y-1205738D01*
X612089Y-1196797D01*
X606450Y-1188770D01*
X599490Y-1181811D01*
X591464Y-1176172D01*
X582574Y-1172057D01*
X573074Y-1169517D01*
X563270Y-1168654D01*
X553516Y-1169517D01*
X544017Y-1172057D01*
X535127Y-1176172D01*
X527050Y-1181811D01*
X520141Y-1188770D01*
X514502Y-1196797D01*
X510336Y-1205738D01*
X507796Y-1215186D01*
X506933Y-1224991D01*
X507796Y-1234795D01*
X510336Y-1244244D01*
X514502Y-1253185D01*
X520141Y-1261211D01*
X527050Y-1268171D01*
X535127Y-1273810D01*
X544017Y-1277924D01*
X553516Y-1280464D01*
G37*
G36*
X4624984Y-1243838D02*
G01*
X4634788Y-1242974D01*
X4644288Y-1240434D01*
X4653178Y-1236319D01*
X4661204Y-1230680D01*
X4668164Y-1223721D01*
X4673803Y-1215694D01*
X4677918Y-1206754D01*
X4680508Y-1197305D01*
X4681321Y-1187500D01*
X4680508Y-1177696D01*
X4677918Y-1168247D01*
X4673803Y-1159306D01*
X4668164Y-1151280D01*
X4661204Y-1144320D01*
X4653178Y-1138682D01*
X4644288Y-1134567D01*
X4634788Y-1132027D01*
X4624984Y-1131163D01*
X4615230Y-1132027D01*
X4605731Y-1134567D01*
X4596841Y-1138682D01*
X4588764Y-1144320D01*
X4581804Y-1151280D01*
X4576216Y-1159306D01*
X4572050Y-1168247D01*
X4569510Y-1177696D01*
X4568647Y-1187500D01*
X4569510Y-1197305D01*
X4572050Y-1206754D01*
X4576216Y-1215694D01*
X4581804Y-1223721D01*
X4588764Y-1230680D01*
X4596841Y-1236319D01*
X4605731Y-1240434D01*
X4615230Y-1242974D01*
G37*
G36*
X3610203Y-1185824D02*
G01*
X3619296Y-1185418D01*
X3628186Y-1183386D01*
X3636619Y-1179779D01*
X3644188Y-1174750D01*
X3650792Y-1168450D01*
X3656177Y-1161084D01*
X3660089Y-1152855D01*
X3662527Y-1144066D01*
X3663340Y-1135024D01*
X3662527Y-1125931D01*
X3660089Y-1117142D01*
X3656177Y-1108913D01*
X3650792Y-1101547D01*
X3644188Y-1095248D01*
X3636619Y-1090218D01*
X3628186Y-1086612D01*
X3619296Y-1084580D01*
X3610203Y-1084173D01*
X3601161Y-1085392D01*
X3592474Y-1088237D01*
X3584448Y-1092555D01*
X3577336Y-1098245D01*
X3571341Y-1105103D01*
X3566668Y-1112926D01*
X3563467Y-1121460D01*
X3561842Y-1130452D01*
X3561842Y-1139545D01*
X3563467Y-1148537D01*
X3566668Y-1157071D01*
X3571341Y-1164894D01*
X3577336Y-1171752D01*
X3584448Y-1177442D01*
X3592474Y-1181760D01*
X3601161Y-1184605D01*
G37*
G36*
X4010202Y-1185824D02*
G01*
X4019296Y-1185418D01*
X4028186Y-1183386D01*
X4036618Y-1179779D01*
X4044187Y-1174750D01*
X4050792Y-1168450D01*
X4056176Y-1161084D01*
X4060088Y-1152855D01*
X4062526Y-1144066D01*
X4063339Y-1135024D01*
X4062526Y-1125931D01*
X4060088Y-1117142D01*
X4056176Y-1108913D01*
X4050792Y-1101547D01*
X4044187Y-1095248D01*
X4036618Y-1090218D01*
X4028186Y-1086612D01*
X4019296Y-1084580D01*
X4010202Y-1084173D01*
X4001160Y-1085392D01*
X3992473Y-1088237D01*
X3984447Y-1092555D01*
X3977335Y-1098245D01*
X3971340Y-1105103D01*
X3966667Y-1112926D01*
X3963466Y-1121460D01*
X3961841Y-1130452D01*
X3961841Y-1139545D01*
X3963466Y-1148537D01*
X3966667Y-1157071D01*
X3971340Y-1164894D01*
X3977335Y-1171752D01*
X3984447Y-1177442D01*
X3992473Y-1181760D01*
X4001160Y-1184605D01*
G37*
G36*
X1487474Y-1181354D02*
G01*
X1497279Y-1180490D01*
X1506778Y-1177950D01*
X1515668Y-1173784D01*
X1523695Y-1168146D01*
X1530654Y-1161237D01*
X1536293Y-1153160D01*
X1540459Y-1144270D01*
X1542999Y-1134770D01*
X1543862Y-1125016D01*
X1542999Y-1115212D01*
X1540459Y-1105712D01*
X1536293Y-1096822D01*
X1530654Y-1088796D01*
X1523695Y-1081836D01*
X1515668Y-1076198D01*
X1506778Y-1072032D01*
X1497279Y-1069492D01*
X1487474Y-1068628D01*
X1477721Y-1069492D01*
X1468221Y-1072032D01*
X1459331Y-1076198D01*
X1451254Y-1081836D01*
X1444345Y-1088796D01*
X1438706Y-1096822D01*
X1434541Y-1105712D01*
X1432001Y-1115212D01*
X1431137Y-1125016D01*
X1432001Y-1134770D01*
X1434541Y-1144270D01*
X1438706Y-1153160D01*
X1444345Y-1161237D01*
X1451254Y-1168146D01*
X1459331Y-1173784D01*
X1468221Y-1177950D01*
X1477721Y-1180490D01*
G37*
G36*
X5662472Y-1168857D02*
G01*
X5672277Y-1167993D01*
X5681776Y-1165453D01*
X5690666Y-1161288D01*
X5698693Y-1155649D01*
X5705652Y-1148740D01*
X5711291Y-1140663D01*
X5715457Y-1131773D01*
X5717997Y-1122273D01*
X5718860Y-1112520D01*
X5717997Y-1102715D01*
X5715457Y-1093216D01*
X5711291Y-1084326D01*
X5705652Y-1076299D01*
X5698693Y-1069340D01*
X5690666Y-1063701D01*
X5681776Y-1059535D01*
X5672277Y-1056995D01*
X5662472Y-1056132D01*
X5652719Y-1056995D01*
X5643219Y-1059535D01*
X5634329Y-1063701D01*
X5626252Y-1069340D01*
X5619343Y-1076299D01*
X5613704Y-1084326D01*
X5609539Y-1093216D01*
X5606999Y-1102715D01*
X5606135Y-1112520D01*
X5606999Y-1122273D01*
X5609539Y-1131773D01*
X5613704Y-1140663D01*
X5619343Y-1148740D01*
X5626252Y-1155649D01*
X5634329Y-1161288D01*
X5643219Y-1165453D01*
X5652719Y-1167993D01*
G37*
G36*
X8837472Y-1081328D02*
G01*
X8847277Y-1080516D01*
X8856776Y-1077925D01*
X8865666Y-1073810D01*
X8873693Y-1068171D01*
X8880652Y-1061212D01*
X8886291Y-1053185D01*
X8890457Y-1044295D01*
X8892997Y-1034796D01*
X8893810Y-1024991D01*
X8892997Y-1015237D01*
X8890457Y-1005738D01*
X8886291Y-996848D01*
X8880652Y-988771D01*
X8873693Y-981811D01*
X8865666Y-976223D01*
X8856776Y-972058D01*
X8847277Y-969518D01*
X8837472Y-968654D01*
X8827719Y-969518D01*
X8818219Y-972058D01*
X8809329Y-976223D01*
X8801252Y-981811D01*
X8794292Y-988771D01*
X8788704Y-996848D01*
X8784539Y-1005738D01*
X8781999Y-1015237D01*
X8781135Y-1024991D01*
X8781999Y-1034796D01*
X8784539Y-1044295D01*
X8788704Y-1053185D01*
X8794292Y-1061212D01*
X8801252Y-1068171D01*
X8809329Y-1073810D01*
X8818219Y-1077925D01*
X8827719Y-1080516D01*
G37*
G36*
X6512509Y-1081328D02*
G01*
X6522262Y-1080516D01*
X6531762Y-1077925D01*
X6540652Y-1073810D01*
X6548729Y-1068171D01*
X6555638Y-1061212D01*
X6561277Y-1053185D01*
X6565442Y-1044295D01*
X6567982Y-1034796D01*
X6568846Y-1024991D01*
X6568084Y-1016609D01*
X6568694Y-1012240D01*
X6571030Y-1008532D01*
X6574739Y-1006195D01*
X6579108Y-1005636D01*
X6587490Y-1006348D01*
X6597294Y-1005484D01*
X6606743Y-1002944D01*
X6615684Y-998778D01*
X6623710Y-993140D01*
X6630670Y-986231D01*
X6636308Y-978153D01*
X6640423Y-969264D01*
X6642963Y-959764D01*
X6643827Y-950010D01*
X6642963Y-940206D01*
X6640423Y-930706D01*
X6636308Y-921816D01*
X6630670Y-913790D01*
X6623710Y-906830D01*
X6615684Y-901192D01*
X6606743Y-897026D01*
X6597294Y-894486D01*
X6587490Y-893673D01*
X6577685Y-894486D01*
X6568236Y-897026D01*
X6559296Y-901192D01*
X6551269Y-906830D01*
X6544309Y-913790D01*
X6538671Y-921816D01*
X6534556Y-930706D01*
X6532016Y-940206D01*
X6531152Y-950010D01*
X6531864Y-958392D01*
X6531305Y-962761D01*
X6528917Y-966469D01*
X6525209Y-968806D01*
X6520840Y-969365D01*
X6512509Y-968654D01*
X6502704Y-969518D01*
X6493205Y-972058D01*
X6484315Y-976223D01*
X6476288Y-981811D01*
X6469329Y-988771D01*
X6463690Y-996848D01*
X6459524Y-1005738D01*
X6456984Y-1015237D01*
X6456121Y-1024991D01*
X6456984Y-1034796D01*
X6459524Y-1044295D01*
X6463690Y-1053185D01*
X6469329Y-1061212D01*
X6476288Y-1068171D01*
X6484315Y-1073810D01*
X6493205Y-1077925D01*
X6502704Y-1080516D01*
G37*
G36*
X7125004Y-1081328D02*
G01*
X7134758Y-1080516D01*
X7144258Y-1077925D01*
X7153148Y-1073810D01*
X7161225Y-1068171D01*
X7168134Y-1061212D01*
X7173772Y-1053185D01*
X7177938Y-1044295D01*
X7180478Y-1034796D01*
X7181342Y-1024991D01*
X7180478Y-1015237D01*
X7177938Y-1005738D01*
X7173772Y-996848D01*
X7168134Y-988771D01*
X7161225Y-981811D01*
X7153148Y-976223D01*
X7144258Y-972058D01*
X7134758Y-969518D01*
X7125004Y-968654D01*
X7115200Y-969518D01*
X7105700Y-972058D01*
X7100722Y-974344D01*
X7097064Y-975309D01*
X7093254Y-974801D01*
X7089902Y-972921D01*
X7087514Y-969975D01*
X7086346Y-966317D01*
X7086650Y-962507D01*
X7087362Y-959764D01*
X7088225Y-949960D01*
X7087362Y-940155D01*
X7084822Y-930706D01*
X7080707Y-921766D01*
X7075068Y-913739D01*
X7068108Y-906780D01*
X7060082Y-901141D01*
X7051141Y-897026D01*
X7041692Y-894486D01*
X7031888Y-893622D01*
X7022084Y-894486D01*
X7012635Y-897026D01*
X7003694Y-901141D01*
X6995668Y-906780D01*
X6988708Y-913739D01*
X6983069Y-921766D01*
X6978954Y-930706D01*
X6976414Y-940155D01*
X6975551Y-949960D01*
X6976414Y-959764D01*
X6978954Y-969213D01*
X6983069Y-978153D01*
X6988708Y-986180D01*
X6995668Y-993140D01*
X7003694Y-998778D01*
X7012635Y-1002893D01*
X7022084Y-1005433D01*
X7031888Y-1006297D01*
X7041692Y-1005433D01*
X7051141Y-1002893D01*
X7056120Y-1000607D01*
X7059828Y-999642D01*
X7063638Y-1000150D01*
X7066940Y-1002030D01*
X7069378Y-1004976D01*
X7070496Y-1008634D01*
X7070242Y-1012444D01*
X7069480Y-1015237D01*
X7068616Y-1024991D01*
X7069480Y-1034796D01*
X7072020Y-1044295D01*
X7076186Y-1053185D01*
X7081824Y-1061212D01*
X7088784Y-1068171D01*
X7096810Y-1073810D01*
X7105700Y-1077925D01*
X7115200Y-1080516D01*
G37*
G36*
X5662472Y-1006348D02*
G01*
X5672277Y-1005484D01*
X5681776Y-1002944D01*
X5690666Y-998778D01*
X5698693Y-993140D01*
X5705652Y-986231D01*
X5711291Y-978153D01*
X5715457Y-969264D01*
X5717997Y-959764D01*
X5718860Y-950010D01*
X5717997Y-940206D01*
X5715457Y-930706D01*
X5711291Y-921816D01*
X5705652Y-913790D01*
X5698693Y-906830D01*
X5690666Y-901192D01*
X5681776Y-897026D01*
X5672277Y-894486D01*
X5662472Y-893673D01*
X5652719Y-894486D01*
X5643219Y-897026D01*
X5634329Y-901192D01*
X5626252Y-906830D01*
X5619343Y-913790D01*
X5613704Y-921816D01*
X5609539Y-930706D01*
X5606999Y-940206D01*
X5606135Y-950010D01*
X5606999Y-959764D01*
X5609539Y-969264D01*
X5613704Y-978153D01*
X5619343Y-986231D01*
X5626252Y-993140D01*
X5634329Y-998778D01*
X5643219Y-1002944D01*
X5652719Y-1005484D01*
G37*
G36*
X6392468Y-1006348D02*
G01*
X6402273Y-1005484D01*
X6411772Y-1002944D01*
X6420662Y-998778D01*
X6428689Y-993140D01*
X6435648Y-986231D01*
X6441287Y-978153D01*
X6445453Y-969264D01*
X6447993Y-959764D01*
X6448856Y-950010D01*
X6447993Y-940206D01*
X6445453Y-930706D01*
X6441287Y-921816D01*
X6435648Y-913790D01*
X6428689Y-906830D01*
X6420662Y-901192D01*
X6411772Y-897026D01*
X6402273Y-894486D01*
X6392468Y-893673D01*
X6382715Y-894486D01*
X6373215Y-897026D01*
X6364325Y-901192D01*
X6356248Y-906830D01*
X6349339Y-913790D01*
X6343700Y-921816D01*
X6339535Y-930706D01*
X6336995Y-940206D01*
X6336131Y-950010D01*
X6336995Y-959764D01*
X6339535Y-969264D01*
X6343700Y-978153D01*
X6349339Y-986231D01*
X6356248Y-993140D01*
X6364325Y-998778D01*
X6373215Y-1002944D01*
X6382715Y-1005484D01*
G37*
G36*
X5262473Y-1006348D02*
G01*
X5272278Y-1005484D01*
X5281777Y-1002944D01*
X5290667Y-998778D01*
X5298694Y-993140D01*
X5305653Y-986231D01*
X5311292Y-978153D01*
X5315458Y-969264D01*
X5317998Y-959764D01*
X5318861Y-950010D01*
X5317998Y-940206D01*
X5315458Y-930706D01*
X5311292Y-921816D01*
X5305653Y-913790D01*
X5298694Y-906830D01*
X5290667Y-901192D01*
X5281777Y-897026D01*
X5272278Y-894486D01*
X5264912Y-893876D01*
X5261102Y-892759D01*
X5258003Y-890269D01*
X5256072Y-886815D01*
X5255666Y-882853D01*
X5256326Y-874979D01*
X5255463Y-865225D01*
X5252923Y-855726D01*
X5248808Y-846836D01*
X5243169Y-838758D01*
X5236210Y-831850D01*
X5228183Y-826211D01*
X5219242Y-822045D01*
X5209794Y-819505D01*
X5199989Y-818641D01*
X5190185Y-819505D01*
X5180736Y-822045D01*
X5171795Y-826211D01*
X5163769Y-831850D01*
X5156809Y-838758D01*
X5151170Y-846836D01*
X5147056Y-855726D01*
X5144516Y-865225D01*
X5143652Y-874979D01*
X5144516Y-884783D01*
X5147056Y-894283D01*
X5151170Y-903173D01*
X5156809Y-911199D01*
X5163769Y-918159D01*
X5171795Y-923798D01*
X5180736Y-927963D01*
X5190185Y-930503D01*
X5197602Y-931164D01*
X5201412Y-932230D01*
X5204510Y-934719D01*
X5206390Y-938225D01*
X5206847Y-942136D01*
X5206136Y-950010D01*
X5207000Y-959764D01*
X5209540Y-969264D01*
X5213705Y-978153D01*
X5219344Y-986231D01*
X5226253Y-993140D01*
X5234330Y-998778D01*
X5243220Y-1002944D01*
X5252720Y-1005484D01*
G37*
G36*
X9137497Y-1006297D02*
G01*
X9147251Y-1005433D01*
X9156750Y-1002893D01*
X9165640Y-998778D01*
X9173718Y-993140D01*
X9180626Y-986180D01*
X9186265Y-978153D01*
X9190431Y-969213D01*
X9192971Y-959764D01*
X9193834Y-949960D01*
X9192971Y-940155D01*
X9190431Y-930706D01*
X9186265Y-921766D01*
X9180626Y-913739D01*
X9173718Y-906780D01*
X9165640Y-901141D01*
X9156750Y-897026D01*
X9147251Y-894486D01*
X9137497Y-893622D01*
X9127693Y-894486D01*
X9118193Y-897026D01*
X9109303Y-901141D01*
X9101277Y-906780D01*
X9094317Y-913739D01*
X9088678Y-921766D01*
X9084513Y-930706D01*
X9081973Y-940155D01*
X9081109Y-949960D01*
X9081973Y-959764D01*
X9084513Y-969213D01*
X9088678Y-978153D01*
X9094317Y-986180D01*
X9101277Y-993140D01*
X9109303Y-998778D01*
X9118193Y-1002893D01*
X9127693Y-1005433D01*
G37*
G36*
X1737360Y-987145D02*
G01*
X1747164Y-986282D01*
X1756613Y-983742D01*
X1765554Y-979576D01*
X1773580Y-973937D01*
X1780539Y-967028D01*
X1786178Y-958951D01*
X1790293Y-950061D01*
X1792833Y-940562D01*
X1793697Y-930808D01*
X1792833Y-921003D01*
X1790293Y-911504D01*
X1786178Y-902614D01*
X1780539Y-894537D01*
X1773580Y-887628D01*
X1765554Y-881989D01*
X1756613Y-877824D01*
X1747164Y-875284D01*
X1737360Y-874420D01*
X1727555Y-875284D01*
X1718106Y-877824D01*
X1709166Y-881989D01*
X1701139Y-887628D01*
X1694180Y-894537D01*
X1688541Y-902614D01*
X1684426Y-911504D01*
X1681886Y-921003D01*
X1681022Y-930808D01*
X1681886Y-940562D01*
X1684426Y-950061D01*
X1688541Y-958951D01*
X1694180Y-967028D01*
X1701139Y-973937D01*
X1709166Y-979576D01*
X1718106Y-983742D01*
X1727555Y-986282D01*
G37*
G36*
X8137499Y-931367D02*
G01*
X8147303Y-930503D01*
X8156752Y-927963D01*
X8165693Y-923798D01*
X8173720Y-918159D01*
X8180679Y-911199D01*
X8186318Y-903173D01*
X8190433Y-894283D01*
X8192973Y-884783D01*
X8193836Y-874979D01*
X8193481Y-870559D01*
X8193836Y-866800D01*
X8195564Y-863447D01*
X8198459Y-860907D01*
X8202015Y-859637D01*
X8205825Y-859790D01*
X8218220Y-865428D01*
X8227720Y-867968D01*
X8237474Y-868832D01*
X8247278Y-867968D01*
X8256778Y-865428D01*
X8265668Y-861314D01*
X8273694Y-855675D01*
X8280653Y-848715D01*
X8286292Y-840689D01*
X8290458Y-831748D01*
X8292998Y-822299D01*
X8293811Y-812495D01*
X8292998Y-802690D01*
X8290458Y-793242D01*
X8286292Y-784301D01*
X8280653Y-776274D01*
X8273694Y-769315D01*
X8265668Y-763676D01*
X8256778Y-759561D01*
X8247278Y-757021D01*
X8237474Y-756158D01*
X8227720Y-757021D01*
X8218220Y-759561D01*
X8209330Y-763676D01*
X8201253Y-769315D01*
X8194294Y-776274D01*
X8188706Y-784301D01*
X8184540Y-793242D01*
X8182000Y-802690D01*
X8181136Y-812495D01*
X8181543Y-816914D01*
X8181136Y-820724D01*
X8179409Y-824077D01*
X8176514Y-826566D01*
X8172958Y-827836D01*
X8169148Y-827735D01*
X8156752Y-822045D01*
X8147303Y-819505D01*
X8137499Y-818641D01*
X8127695Y-819505D01*
X8118246Y-822045D01*
X8109305Y-826211D01*
X8101279Y-831850D01*
X8094319Y-838758D01*
X8088680Y-846836D01*
X8084566Y-855726D01*
X8082025Y-865225D01*
X8081162Y-874979D01*
X8082025Y-884783D01*
X8084566Y-894283D01*
X8088680Y-903173D01*
X8094319Y-911199D01*
X8101279Y-918159D01*
X8109305Y-923798D01*
X8118246Y-927963D01*
X8127695Y-930503D01*
G37*
G36*
X5762498Y-868832D02*
G01*
X5772251Y-867968D01*
X5781751Y-865428D01*
X5790641Y-861314D01*
X5798718Y-855675D01*
X5805678Y-848715D01*
X5811266Y-840689D01*
X5815431Y-831748D01*
X5817971Y-822299D01*
X5818835Y-812495D01*
X5817971Y-802690D01*
X5815431Y-793242D01*
X5811266Y-784301D01*
X5805678Y-776274D01*
X5798718Y-769315D01*
X5790641Y-763676D01*
X5781751Y-759561D01*
X5772251Y-757021D01*
X5762498Y-756158D01*
X5752693Y-757021D01*
X5743194Y-759561D01*
X5730849Y-765200D01*
X5727039Y-765352D01*
X5723432Y-764082D01*
X5720588Y-761593D01*
X5718810Y-758190D01*
X5718454Y-754430D01*
X5718860Y-750011D01*
X5717997Y-740206D01*
X5715457Y-730707D01*
X5711291Y-721817D01*
X5705652Y-713790D01*
X5698693Y-706831D01*
X5690666Y-701192D01*
X5681776Y-697026D01*
X5672277Y-694486D01*
X5662472Y-693674D01*
X5652719Y-694486D01*
X5643219Y-697026D01*
X5634329Y-701192D01*
X5626252Y-706831D01*
X5619343Y-713790D01*
X5613704Y-721817D01*
X5609539Y-730707D01*
X5606999Y-740206D01*
X5606135Y-750011D01*
X5606999Y-759764D01*
X5609539Y-769264D01*
X5613704Y-778154D01*
X5619343Y-786231D01*
X5626252Y-793140D01*
X5634329Y-798779D01*
X5643219Y-802944D01*
X5652719Y-805484D01*
X5662472Y-806348D01*
X5672277Y-805484D01*
X5681776Y-802944D01*
X5694172Y-797255D01*
X5697931Y-797153D01*
X5701538Y-798423D01*
X5704382Y-800912D01*
X5706160Y-804265D01*
X5706516Y-808075D01*
X5706160Y-812495D01*
X5706973Y-822299D01*
X5709513Y-831748D01*
X5713679Y-840689D01*
X5719318Y-848715D01*
X5726277Y-855675D01*
X5734304Y-861314D01*
X5743194Y-865428D01*
X5752693Y-867968D01*
G37*
G36*
X7112508Y-793851D02*
G01*
X7122261Y-792988D01*
X7131761Y-790448D01*
X7140651Y-786282D01*
X7148728Y-780643D01*
X7155637Y-773734D01*
X7161275Y-765657D01*
X7165441Y-756767D01*
X7167981Y-747268D01*
X7168845Y-737514D01*
X7167981Y-727710D01*
X7165441Y-718210D01*
X7161275Y-709320D01*
X7155637Y-701294D01*
X7148728Y-694334D01*
X7140651Y-688695D01*
X7131761Y-684530D01*
X7122261Y-681990D01*
X7112508Y-681126D01*
X7102703Y-681990D01*
X7093203Y-684530D01*
X7084314Y-688695D01*
X7076287Y-694334D01*
X7069328Y-701294D01*
X7063689Y-709320D01*
X7059523Y-718210D01*
X7056983Y-727710D01*
X7056120Y-737514D01*
X7056983Y-747268D01*
X7059523Y-756767D01*
X7063689Y-765657D01*
X7069328Y-773734D01*
X7076287Y-780643D01*
X7084314Y-786282D01*
X7093203Y-790448D01*
X7102703Y-792988D01*
G37*
G36*
X1274978Y-768858D02*
G01*
X1284782Y-767994D01*
X1294282Y-765454D01*
X1303172Y-761288D01*
X1311198Y-755650D01*
X1318158Y-748741D01*
X1323797Y-740664D01*
X1327962Y-731774D01*
X1330502Y-722274D01*
X1331366Y-712520D01*
X1330502Y-702716D01*
X1327962Y-693216D01*
X1323797Y-684326D01*
X1318158Y-676300D01*
X1311198Y-669340D01*
X1303172Y-663702D01*
X1294282Y-659536D01*
X1284782Y-656996D01*
X1274978Y-656132D01*
X1265224Y-656996D01*
X1255725Y-659536D01*
X1246835Y-663702D01*
X1238758Y-669340D01*
X1231849Y-676300D01*
X1226210Y-684326D01*
X1222044Y-693216D01*
X1219504Y-702716D01*
X1218641Y-712520D01*
X1219504Y-722274D01*
X1222044Y-731774D01*
X1226210Y-740664D01*
X1231849Y-748741D01*
X1238758Y-755650D01*
X1246835Y-761288D01*
X1255725Y-765454D01*
X1265224Y-767994D01*
G37*
G36*
X300024Y-756361D02*
G01*
X309778Y-755497D01*
X319278Y-752957D01*
X328168Y-748792D01*
X336245Y-743153D01*
X343154Y-736193D01*
X348792Y-728167D01*
X352958Y-719277D01*
X355498Y-709777D01*
X356362Y-699973D01*
X355498Y-690219D01*
X352958Y-680720D01*
X348792Y-671830D01*
X343154Y-663752D01*
X336245Y-656844D01*
X328168Y-651205D01*
X319278Y-647039D01*
X309778Y-644499D01*
X300024Y-643636D01*
X290220Y-644499D01*
X280720Y-647039D01*
X271830Y-651205D01*
X263753Y-656844D01*
X256844Y-663752D01*
X251206Y-671830D01*
X247040Y-680720D01*
X244500Y-690219D01*
X243636Y-699973D01*
X244500Y-709777D01*
X247040Y-719277D01*
X251206Y-728167D01*
X256844Y-736193D01*
X263753Y-743153D01*
X271830Y-748792D01*
X280720Y-752957D01*
X290220Y-755497D01*
G37*
G36*
X6649974Y-756361D02*
G01*
X6659778Y-755497D01*
X6669278Y-752957D01*
X6678168Y-748792D01*
X6686194Y-743153D01*
X6693153Y-736244D01*
X6698792Y-728167D01*
X6702958Y-719277D01*
X6705498Y-709777D01*
X6706311Y-700024D01*
X6705498Y-690219D01*
X6702958Y-680720D01*
X6698792Y-671830D01*
X6693153Y-663752D01*
X6686194Y-656844D01*
X6678168Y-651205D01*
X6669278Y-647039D01*
X6659778Y-644499D01*
X6649974Y-643636D01*
X6640220Y-644499D01*
X6630720Y-647039D01*
X6621830Y-651205D01*
X6613753Y-656844D01*
X6606844Y-663752D01*
X6601206Y-671830D01*
X6597040Y-680720D01*
X6594500Y-690219D01*
X6593636Y-700024D01*
X6594500Y-709777D01*
X6597040Y-719277D01*
X6601206Y-728167D01*
X6606844Y-736244D01*
X6613753Y-743153D01*
X6621830Y-748792D01*
X6630720Y-752957D01*
X6640220Y-755497D01*
G37*
G36*
X3500018Y-681329D02*
G01*
X3509772Y-680516D01*
X3519271Y-677926D01*
X3528161Y-673811D01*
X3536238Y-668172D01*
X3543147Y-661212D01*
X3548786Y-653186D01*
X3552951Y-644296D01*
X3555492Y-634796D01*
X3556355Y-624992D01*
X3555492Y-615238D01*
X3552951Y-605739D01*
X3548786Y-596849D01*
X3543147Y-588772D01*
X3536238Y-581812D01*
X3528161Y-576224D01*
X3519271Y-572058D01*
X3509772Y-569518D01*
X3500018Y-568655D01*
X3490214Y-569518D01*
X3480714Y-572058D01*
X3471824Y-576224D01*
X3463747Y-581812D01*
X3456838Y-588772D01*
X3451199Y-596849D01*
X3447034Y-605739D01*
X3444494Y-615238D01*
X3443630Y-624992D01*
X3444494Y-634796D01*
X3447034Y-644296D01*
X3451199Y-653186D01*
X3456838Y-661212D01*
X3463747Y-668172D01*
X3471824Y-673811D01*
X3480714Y-677926D01*
X3490214Y-680516D01*
G37*
G36*
X5762498Y-681329D02*
G01*
X5772251Y-680466D01*
X5781751Y-677926D01*
X5790641Y-673811D01*
X5798718Y-668172D01*
X5805678Y-661212D01*
X5811266Y-653186D01*
X5815431Y-644245D01*
X5817971Y-634796D01*
X5818835Y-624992D01*
X5817971Y-615188D01*
X5815431Y-605739D01*
X5811266Y-596798D01*
X5805678Y-588772D01*
X5799074Y-582168D01*
X5796838Y-578866D01*
X5796076Y-575005D01*
X5796838Y-571093D01*
X5799074Y-567791D01*
X5805678Y-561238D01*
X5811266Y-553161D01*
X5815431Y-544271D01*
X5817971Y-534771D01*
X5818835Y-525018D01*
X5817971Y-515213D01*
X5815431Y-505714D01*
X5811266Y-496824D01*
X5805678Y-488797D01*
X5798718Y-481838D01*
X5790641Y-476199D01*
X5781751Y-472033D01*
X5772251Y-469493D01*
X5762498Y-468630D01*
X5752693Y-469493D01*
X5743194Y-472033D01*
X5734304Y-476199D01*
X5726277Y-481838D01*
X5719318Y-488797D01*
X5713679Y-496824D01*
X5709513Y-505714D01*
X5706973Y-515213D01*
X5706160Y-525018D01*
X5706973Y-534771D01*
X5709513Y-544271D01*
X5713679Y-553161D01*
X5719318Y-561238D01*
X5725922Y-567791D01*
X5728106Y-571093D01*
X5728868Y-575005D01*
X5728106Y-578866D01*
X5725922Y-582168D01*
X5719318Y-588772D01*
X5713679Y-596798D01*
X5709513Y-605739D01*
X5706973Y-615188D01*
X5706160Y-624992D01*
X5706973Y-634796D01*
X5709513Y-644245D01*
X5713679Y-653186D01*
X5719318Y-661212D01*
X5726277Y-668172D01*
X5734304Y-673811D01*
X5743194Y-677926D01*
X5752693Y-680466D01*
G37*
G36*
X737514Y-643839D02*
G01*
X747268Y-642975D01*
X756767Y-640435D01*
X765657Y-636320D01*
X773734Y-630682D01*
X780643Y-623722D01*
X786282Y-615696D01*
X790448Y-606755D01*
X792988Y-597306D01*
X793851Y-587502D01*
X792988Y-577697D01*
X790448Y-568248D01*
X786282Y-559308D01*
X780643Y-551281D01*
X773734Y-544322D01*
X765657Y-538683D01*
X756767Y-534568D01*
X747268Y-532028D01*
X737514Y-531164D01*
X727710Y-532028D01*
X718210Y-534568D01*
X709320Y-538683D01*
X701294Y-544322D01*
X694334Y-551281D01*
X688695Y-559308D01*
X684530Y-568248D01*
X681990Y-577697D01*
X681126Y-587502D01*
X681990Y-597306D01*
X684530Y-606755D01*
X688695Y-615696D01*
X694334Y-623722D01*
X701294Y-630682D01*
X709320Y-636320D01*
X718210Y-640435D01*
X727710Y-642975D01*
G37*
G36*
X3053994Y-523646D02*
G01*
X3067659Y-522732D01*
X3081070Y-520039D01*
X3094024Y-515670D01*
X3106318Y-509625D01*
X3117697Y-502005D01*
X3127959Y-492963D01*
X3137001Y-482701D01*
X3144621Y-471322D01*
X3150666Y-459028D01*
X3155035Y-446074D01*
X3157728Y-432663D01*
X3158642Y-418998D01*
X3157728Y-405333D01*
X3155035Y-391922D01*
X3150666Y-378968D01*
X3144621Y-366674D01*
X3137001Y-355295D01*
X3127959Y-345033D01*
X3117697Y-335991D01*
X3106318Y-328371D01*
X3094024Y-322326D01*
X3081070Y-317957D01*
X3067659Y-315264D01*
X3053994Y-314350D01*
X3040329Y-315264D01*
X3026918Y-317957D01*
X3013964Y-322326D01*
X3001670Y-328371D01*
X2990291Y-335991D01*
X2980029Y-345033D01*
X2970987Y-355295D01*
X2963367Y-366674D01*
X2957322Y-378968D01*
X2952953Y-391922D01*
X2950260Y-405333D01*
X2949346Y-418998D01*
X2950260Y-432663D01*
X2952953Y-446074D01*
X2957322Y-459028D01*
X2963367Y-471322D01*
X2970987Y-482701D01*
X2980029Y-492963D01*
X2990291Y-502005D01*
X3001670Y-509625D01*
X3013964Y-515670D01*
X3026918Y-520039D01*
X3040329Y-522732D01*
G37*
G36*
X2467813Y-523646D02*
G01*
X2624175Y-523646D01*
X2630474Y-522935D01*
X2635961Y-521004D01*
X2640838Y-517956D01*
X2644952Y-513842D01*
X2648000Y-508965D01*
X2649931Y-503478D01*
X2650642Y-497179D01*
X2650642Y-340817D01*
X2649931Y-334518D01*
X2648000Y-329031D01*
X2644952Y-324154D01*
X2640838Y-320040D01*
X2635961Y-316992D01*
X2630474Y-315061D01*
X2624175Y-314350D01*
X2467813Y-314350D01*
X2461514Y-315061D01*
X2456027Y-316992D01*
X2451150Y-320040D01*
X2447036Y-324154D01*
X2443988Y-329031D01*
X2442057Y-334518D01*
X2441346Y-340817D01*
X2441346Y-497179D01*
X2442057Y-503478D01*
X2443988Y-508965D01*
X2447036Y-513842D01*
X2451150Y-517956D01*
X2456027Y-521004D01*
X2461514Y-522935D01*
G37*
G36*
X5075021Y-468833D02*
G01*
X5084775Y-467969D01*
X5094274Y-465429D01*
X5103164Y-461314D01*
X5111242Y-455676D01*
X5118150Y-448716D01*
X5123789Y-440690D01*
X5127955Y-431749D01*
X5130495Y-422300D01*
X5131358Y-412496D01*
X5130495Y-402691D01*
X5127955Y-393242D01*
X5123789Y-384302D01*
X5118150Y-376275D01*
X5111242Y-369316D01*
X5103164Y-363677D01*
X5094274Y-359562D01*
X5084775Y-357022D01*
X5075021Y-356158D01*
X5065217Y-357022D01*
X5055717Y-359562D01*
X5046827Y-363677D01*
X5038750Y-369316D01*
X5031841Y-376275D01*
X5026202Y-384302D01*
X5022037Y-393242D01*
X5019497Y-402691D01*
X5018633Y-412496D01*
X5019497Y-422300D01*
X5022037Y-431749D01*
X5026202Y-440690D01*
X5031841Y-448716D01*
X5038750Y-455676D01*
X5046827Y-461314D01*
X5055717Y-465429D01*
X5065217Y-467969D01*
G37*
G36*
X6412484Y-468833D02*
G01*
X6422288Y-467969D01*
X6431737Y-465429D01*
X6440678Y-461314D01*
X6448704Y-455676D01*
X6455664Y-448716D01*
X6461302Y-440690D01*
X6465417Y-431749D01*
X6467957Y-422300D01*
X6468821Y-412496D01*
X6467957Y-402691D01*
X6465417Y-393242D01*
X6461302Y-384302D01*
X6455664Y-376275D01*
X6448704Y-369316D01*
X6440678Y-363677D01*
X6431737Y-359562D01*
X6422288Y-357022D01*
X6412484Y-356158D01*
X6402679Y-357022D01*
X6393230Y-359562D01*
X6384290Y-363677D01*
X6376263Y-369316D01*
X6369304Y-376275D01*
X6363665Y-384302D01*
X6359550Y-393242D01*
X6357010Y-402691D01*
X6356146Y-412496D01*
X6357010Y-422300D01*
X6359550Y-431749D01*
X6363665Y-440690D01*
X6369304Y-448716D01*
X6376263Y-455676D01*
X6384290Y-461314D01*
X6393230Y-465429D01*
X6402679Y-467969D01*
G37*
G36*
X8937498Y-456336D02*
G01*
X8947302Y-455472D01*
X8956751Y-452932D01*
X8965692Y-448818D01*
X8973718Y-443179D01*
X8980678Y-436219D01*
X8986316Y-428193D01*
X8990431Y-419252D01*
X8992971Y-409803D01*
X8993835Y-399999D01*
X8992971Y-390194D01*
X8991041Y-382930D01*
X8990787Y-378815D01*
X8992209Y-374954D01*
X8995003Y-371957D01*
X8998813Y-370332D01*
X9002877Y-370332D01*
X9006687Y-371957D01*
X9009329Y-373786D01*
X9018219Y-377952D01*
X9027718Y-380492D01*
X9037472Y-381355D01*
X9047276Y-380492D01*
X9056776Y-377952D01*
X9065666Y-373786D01*
X9073692Y-368147D01*
X9080652Y-361238D01*
X9086291Y-353161D01*
X9090456Y-344271D01*
X9092996Y-334772D01*
X9093809Y-325018D01*
X9092996Y-315214D01*
X9090456Y-305714D01*
X9086291Y-296824D01*
X9080652Y-288798D01*
X9073692Y-281838D01*
X9065666Y-276199D01*
X9056776Y-272034D01*
X9047276Y-269494D01*
X9037472Y-268630D01*
X9027718Y-269494D01*
X9018219Y-272034D01*
X9009329Y-276199D01*
X9001252Y-281838D01*
X8994292Y-288798D01*
X8988704Y-296824D01*
X8984538Y-305714D01*
X8981998Y-315214D01*
X8981135Y-325018D01*
X8981998Y-334772D01*
X8983929Y-342087D01*
X8984183Y-346202D01*
X8982760Y-350062D01*
X8979966Y-353060D01*
X8976207Y-354685D01*
X8972092Y-354685D01*
X8968282Y-353060D01*
X8965692Y-351180D01*
X8956751Y-347065D01*
X8947302Y-344525D01*
X8937498Y-343662D01*
X8927693Y-344525D01*
X8918244Y-347065D01*
X8909304Y-351180D01*
X8901277Y-356819D01*
X8894318Y-363778D01*
X8888679Y-371805D01*
X8884564Y-380746D01*
X8882024Y-390194D01*
X8881160Y-399999D01*
X8882024Y-409803D01*
X8884564Y-419252D01*
X8888679Y-428193D01*
X8894318Y-436219D01*
X8901277Y-443179D01*
X8909304Y-448818D01*
X8918244Y-452932D01*
X8927693Y-455472D01*
G37*
G36*
X5725007Y-443839D02*
G01*
X5734761Y-442976D01*
X5744260Y-440435D01*
X5753150Y-436321D01*
X5761228Y-430682D01*
X5768136Y-423722D01*
X5773775Y-415696D01*
X5777941Y-406755D01*
X5780481Y-397306D01*
X5781344Y-387502D01*
X5780481Y-377698D01*
X5777941Y-368249D01*
X5773775Y-359308D01*
X5768136Y-351282D01*
X5761228Y-344322D01*
X5753150Y-338683D01*
X5744260Y-334568D01*
X5734761Y-332028D01*
X5725007Y-331165D01*
X5715203Y-332028D01*
X5705703Y-334568D01*
X5696813Y-338683D01*
X5688787Y-344322D01*
X5681827Y-351282D01*
X5676188Y-359308D01*
X5672023Y-368249D01*
X5669483Y-377698D01*
X5668619Y-387502D01*
X5669483Y-397306D01*
X5672023Y-406755D01*
X5676188Y-415696D01*
X5681827Y-423722D01*
X5688787Y-430682D01*
X5696813Y-436321D01*
X5705703Y-440435D01*
X5715203Y-442976D01*
G37*
G36*
X7424978Y-406349D02*
G01*
X7434783Y-405485D01*
X7444282Y-402945D01*
X7453172Y-398780D01*
X7461199Y-393141D01*
X7468158Y-386232D01*
X7473797Y-378155D01*
X7477912Y-369265D01*
X7480503Y-359765D01*
X7481316Y-350012D01*
X7480503Y-340207D01*
X7477912Y-330708D01*
X7473797Y-321818D01*
X7468158Y-313791D01*
X7461199Y-306832D01*
X7453172Y-301193D01*
X7444282Y-297027D01*
X7434783Y-294487D01*
X7424978Y-293674D01*
X7415225Y-294487D01*
X7405725Y-297027D01*
X7396835Y-301193D01*
X7388758Y-306832D01*
X7381798Y-313791D01*
X7376210Y-321818D01*
X7372045Y-330708D01*
X7369505Y-340207D01*
X7368641Y-350012D01*
X7369505Y-359765D01*
X7372045Y-369265D01*
X7376210Y-378155D01*
X7381798Y-386232D01*
X7388758Y-393141D01*
X7396835Y-398780D01*
X7405725Y-402945D01*
X7415225Y-405485D01*
G37*
G36*
X6005779Y-381355D02*
G01*
X6015583Y-380492D01*
X6025032Y-377952D01*
X6033973Y-373786D01*
X6041999Y-368147D01*
X6048959Y-361238D01*
X6054598Y-353161D01*
X6058712Y-344271D01*
X6061252Y-334772D01*
X6062116Y-325018D01*
X6061252Y-315214D01*
X6058712Y-305714D01*
X6054598Y-296824D01*
X6048959Y-288798D01*
X6041999Y-281838D01*
X6033973Y-276199D01*
X6025032Y-272034D01*
X6015583Y-269494D01*
X6005779Y-268630D01*
X5995974Y-269494D01*
X5986526Y-272034D01*
X5977585Y-276199D01*
X5969558Y-281838D01*
X5962599Y-288798D01*
X5956960Y-296824D01*
X5952845Y-305714D01*
X5950305Y-315214D01*
X5949442Y-325018D01*
X5950305Y-334772D01*
X5952845Y-344271D01*
X5956960Y-353161D01*
X5962599Y-361238D01*
X5969558Y-368147D01*
X5977585Y-373786D01*
X5986526Y-377952D01*
X5995974Y-380492D01*
G37*
G36*
X9437522Y-368858D02*
G01*
X9447276Y-367995D01*
X9456775Y-365455D01*
X9465665Y-361289D01*
X9473742Y-355650D01*
X9480651Y-348742D01*
X9486290Y-340664D01*
X9490456Y-331774D01*
X9492996Y-322275D01*
X9493859Y-312521D01*
X9492996Y-302717D01*
X9490456Y-293217D01*
X9486290Y-284327D01*
X9480651Y-276301D01*
X9473742Y-269341D01*
X9465665Y-263702D01*
X9456775Y-259537D01*
X9447276Y-256997D01*
X9437522Y-256133D01*
X9427718Y-256997D01*
X9418218Y-259537D01*
X9409328Y-263702D01*
X9401251Y-269341D01*
X9394342Y-276301D01*
X9388703Y-284327D01*
X9384538Y-293217D01*
X9381998Y-302717D01*
X9381134Y-312521D01*
X9381998Y-322275D01*
X9384538Y-331774D01*
X9388703Y-340664D01*
X9394342Y-348742D01*
X9401251Y-355650D01*
X9409328Y-361289D01*
X9418218Y-365455D01*
X9427718Y-367995D01*
G37*
G36*
X6674967Y-343865D02*
G01*
X6684772Y-343001D01*
X6694271Y-340461D01*
X6703161Y-336296D01*
X6711188Y-330657D01*
X6718147Y-323697D01*
X6723786Y-315671D01*
X6727952Y-306781D01*
X6730492Y-297281D01*
X6731355Y-287477D01*
X6730492Y-277723D01*
X6727952Y-268224D01*
X6726580Y-265379D01*
X6725666Y-261416D01*
X6726326Y-257403D01*
X6728510Y-254000D01*
X6731863Y-251714D01*
X6735825Y-250901D01*
X6785914Y-250901D01*
X6792214Y-250190D01*
X6797700Y-248310D01*
X6802577Y-245211D01*
X6809740Y-237845D01*
X6813651Y-236270D01*
X6817817Y-236423D01*
X6832447Y-244246D01*
X6843369Y-248158D01*
X6854799Y-250393D01*
X6866381Y-250799D01*
X6877913Y-249478D01*
X6889140Y-246430D01*
X6899757Y-241655D01*
X6909460Y-235356D01*
X6918147Y-227634D01*
X6925564Y-218643D01*
X6931507Y-208686D01*
X6935825Y-197916D01*
X6938467Y-186588D01*
X6939381Y-175006D01*
X6938467Y-163423D01*
X6935825Y-152095D01*
X6931507Y-141325D01*
X6925564Y-131368D01*
X6918147Y-122377D01*
X6909460Y-114655D01*
X6899757Y-108356D01*
X6889140Y-103581D01*
X6877913Y-100533D01*
X6866381Y-99161D01*
X6854799Y-99618D01*
X6843369Y-101854D01*
X6832447Y-105765D01*
X6817817Y-113588D01*
X6813651Y-113741D01*
X6809740Y-112115D01*
X6802577Y-104800D01*
X6797700Y-101701D01*
X6792214Y-99822D01*
X6785914Y-99110D01*
X6687058Y-99110D01*
X6680758Y-99822D01*
X6675272Y-101701D01*
X6670395Y-104800D01*
X6666280Y-108864D01*
X6663181Y-113792D01*
X6661302Y-119227D01*
X6660591Y-125577D01*
X6660591Y-224434D01*
X6660184Y-228803D01*
X6658152Y-232460D01*
X6654800Y-235000D01*
X6646824Y-238709D01*
X6638747Y-244348D01*
X6631838Y-251256D01*
X6626199Y-259334D01*
X6622034Y-268224D01*
X6619494Y-277723D01*
X6618630Y-287477D01*
X6619494Y-297281D01*
X6622034Y-306781D01*
X6626199Y-315671D01*
X6631838Y-323697D01*
X6638747Y-330657D01*
X6646824Y-336296D01*
X6655714Y-340461D01*
X6665214Y-343001D01*
G37*
G36*
X3324555Y-275894D02*
G01*
X3423412Y-275894D01*
X3429762Y-275183D01*
X3435197Y-273304D01*
X3440125Y-270205D01*
X3444189Y-266090D01*
X3447287Y-261213D01*
X3449167Y-255727D01*
X3449878Y-249428D01*
X3449878Y-150571D01*
X3449167Y-144272D01*
X3447287Y-138785D01*
X3444189Y-133908D01*
X3440125Y-129794D01*
X3435197Y-126695D01*
X3429762Y-124815D01*
X3423412Y-124104D01*
X3324555Y-124104D01*
X3318256Y-124815D01*
X3312769Y-126695D01*
X3307892Y-129794D01*
X3303778Y-133908D01*
X3300729Y-138785D01*
X3298799Y-144272D01*
X3298088Y-150571D01*
X3298088Y-249428D01*
X3298799Y-255727D01*
X3300729Y-261213D01*
X3303778Y-266090D01*
X3307892Y-270205D01*
X3312769Y-273304D01*
X3318256Y-275183D01*
G37*
G36*
X3674567Y-275894D02*
G01*
X3773424Y-275894D01*
X3779723Y-275183D01*
X3785209Y-273304D01*
X3790086Y-270205D01*
X3797249Y-262890D01*
X3801160Y-261264D01*
X3805326Y-261416D01*
X3819956Y-269240D01*
X3830878Y-273151D01*
X3842308Y-275386D01*
X3853891Y-275844D01*
X3865422Y-274472D01*
X3876649Y-271424D01*
X3887266Y-266649D01*
X3896969Y-260350D01*
X3905656Y-252628D01*
X3913073Y-243636D01*
X3919016Y-233679D01*
X3923334Y-222910D01*
X3925976Y-211582D01*
X3926890Y-199999D01*
X3925976Y-188417D01*
X3923334Y-177088D01*
X3919016Y-166319D01*
X3913073Y-156362D01*
X3905656Y-147370D01*
X3896969Y-139649D01*
X3887266Y-133350D01*
X3876649Y-128574D01*
X3865422Y-125526D01*
X3853891Y-124155D01*
X3842308Y-124612D01*
X3830878Y-126847D01*
X3819956Y-130759D01*
X3805326Y-138582D01*
X3801160Y-138734D01*
X3797249Y-137109D01*
X3790086Y-129794D01*
X3785209Y-126695D01*
X3779723Y-124815D01*
X3773424Y-124104D01*
X3674567Y-124104D01*
X3668217Y-124815D01*
X3662781Y-126695D01*
X3657904Y-129794D01*
X3653790Y-133908D01*
X3650691Y-138785D01*
X3648811Y-144272D01*
X3648100Y-150571D01*
X3648100Y-249428D01*
X3648811Y-255727D01*
X3650691Y-261213D01*
X3653790Y-266090D01*
X3657904Y-270205D01*
X3662781Y-273304D01*
X3668217Y-275183D01*
G37*
G36*
X353314Y-267157D02*
G01*
X509676Y-267157D01*
X515975Y-266446D01*
X521462Y-264515D01*
X526338Y-261467D01*
X530453Y-257352D01*
X533501Y-252475D01*
X535432Y-246989D01*
X536143Y-240690D01*
X536143Y-84328D01*
X535432Y-78028D01*
X533501Y-72542D01*
X530453Y-67665D01*
X526338Y-63550D01*
X521462Y-60452D01*
X515975Y-58572D01*
X509676Y-57861D01*
X353314Y-57861D01*
X347014Y-58572D01*
X341528Y-60452D01*
X336651Y-63550D01*
X332536Y-67665D01*
X329488Y-72542D01*
X327558Y-78028D01*
X326847Y-84328D01*
X326847Y-240690D01*
X327558Y-246989D01*
X329488Y-252475D01*
X332536Y-257352D01*
X336651Y-261467D01*
X341528Y-264515D01*
X347014Y-266446D01*
G37*
G36*
X1193495Y-267106D02*
G01*
X1207160Y-266242D01*
X1220571Y-263550D01*
X1233525Y-259181D01*
X1245819Y-253085D01*
X1257198Y-245516D01*
X1267460Y-236474D01*
X1276502Y-226212D01*
X1284122Y-214833D01*
X1290167Y-202539D01*
X1294536Y-189585D01*
X1297228Y-176174D01*
X1298143Y-162509D01*
X1297228Y-148844D01*
X1294536Y-135432D01*
X1290167Y-122478D01*
X1284122Y-110185D01*
X1276502Y-98806D01*
X1267460Y-88493D01*
X1257198Y-79502D01*
X1245819Y-71882D01*
X1233525Y-65836D01*
X1220571Y-61417D01*
X1207160Y-58775D01*
X1193495Y-57861D01*
X1179830Y-58775D01*
X1166418Y-61417D01*
X1153464Y-65836D01*
X1141171Y-71882D01*
X1129792Y-79502D01*
X1119530Y-88493D01*
X1110488Y-98806D01*
X1102868Y-110185D01*
X1096822Y-122478D01*
X1092454Y-135432D01*
X1089761Y-148844D01*
X1088847Y-162509D01*
X1089761Y-176174D01*
X1092454Y-189585D01*
X1096822Y-202539D01*
X1102868Y-214833D01*
X1110488Y-226212D01*
X1119530Y-236474D01*
X1129792Y-245516D01*
X1141171Y-253085D01*
X1153464Y-259181D01*
X1166418Y-263550D01*
X1179830Y-266242D01*
G37*
G36*
X939495Y-267106D02*
G01*
X953160Y-266242D01*
X966571Y-263550D01*
X979525Y-259181D01*
X991819Y-253085D01*
X1003198Y-245516D01*
X1013460Y-236474D01*
X1022502Y-226212D01*
X1030122Y-214833D01*
X1036167Y-202539D01*
X1040536Y-189585D01*
X1043228Y-176174D01*
X1044143Y-162509D01*
X1043228Y-148844D01*
X1040536Y-135432D01*
X1036167Y-122478D01*
X1030122Y-110185D01*
X1022502Y-98806D01*
X1013460Y-88493D01*
X1003198Y-79502D01*
X991819Y-71882D01*
X979525Y-65836D01*
X966571Y-61417D01*
X953160Y-58775D01*
X939495Y-57861D01*
X925830Y-58775D01*
X912418Y-61417D01*
X899464Y-65836D01*
X887171Y-71882D01*
X875792Y-79502D01*
X865530Y-88493D01*
X856487Y-98806D01*
X848868Y-110185D01*
X842822Y-122478D01*
X838453Y-135432D01*
X835761Y-148844D01*
X834847Y-162509D01*
X835761Y-176174D01*
X838453Y-189585D01*
X842822Y-202539D01*
X848868Y-214833D01*
X856487Y-226212D01*
X865530Y-236474D01*
X875792Y-245516D01*
X887171Y-253085D01*
X899464Y-259181D01*
X912418Y-263550D01*
X925830Y-266242D01*
G37*

%LPD*%
D10*
G01*
X3529533Y-1369898D03*
G01*
X4095546Y-1369898D03*
D11*
G01*
X3373983Y-199999D03*
D12*
G01*
X3501009Y-199999D03*
D11*
G01*
X6736486Y-175005D03*
D12*
G01*
X6863486Y-175005D03*
D11*
G01*
X6863486Y-1424990D03*
D12*
G01*
X6736486Y-1424990D03*
D11*
G01*
X3723995Y-199999D03*
D12*
G01*
X3850995Y-199999D03*
D11*
G01*
X199999Y-1263497D03*
D12*
G01*
X199999Y-1136497D03*
D13*
G01*
X3053994Y-418998D03*
G01*
X2799994Y-418998D03*
D14*
G01*
X2545994Y-418998D03*
G01*
X2545994Y-1180998D03*
D13*
G01*
X2799994Y-1180998D03*
G01*
X3053994Y-1180998D03*
D14*
G01*
X431495Y-162509D03*
D13*
G01*
X685495Y-162509D03*
G01*
X939495Y-162509D03*
G01*
X1193495Y-162509D03*
D15*
G01*
X1737360Y-930782D03*
G01*
X5362498Y-1524990D03*
G01*
X5637479Y-1524990D03*
G01*
X5762497Y-524992D03*
G01*
X9437497Y-312496D03*
G01*
X9437471Y-1287500D03*
G01*
X7349997Y-1450009D03*
G01*
X7537500Y-1299997D03*
G01*
X6392494Y-950010D03*
G01*
X462508Y-477494D03*
G01*
X299999Y-699998D03*
G01*
X2024989Y-99999D03*
G01*
X1893290Y-487502D03*
G01*
X5199989Y-875004D03*
G01*
X5262499Y-950010D03*
G01*
X5724982Y-1524990D03*
G01*
X5974994Y-1275003D03*
G01*
X6312484Y-1275003D03*
G01*
X6050000Y-1512493D03*
G01*
X5762497Y-812495D03*
G01*
X8237474Y-812495D03*
G01*
X8137499Y-875004D03*
G01*
X5662498Y-750011D03*
G01*
X7424978Y-350012D03*
G01*
X6674993Y-287502D03*
G01*
X7012482Y-450011D03*
G01*
X6587490Y-1150112D03*
G01*
X7124979Y-1024991D03*
G01*
X8837472Y-1024991D03*
G01*
X6512483Y-1024991D03*
G01*
X6587490Y-950010D03*
G01*
X9137472Y-949960D03*
G01*
X7031888Y-949960D03*
G01*
X5662498Y-950010D03*
G01*
X5662498Y-1112494D03*
G01*
X4587493Y-75006D03*
G01*
X9037472Y-324993D03*
G01*
X8937497Y-399999D03*
G01*
X6649999Y-699998D03*
G01*
X7112482Y-737488D03*
G01*
X1275003Y-712495D03*
G01*
X1487500Y-1124991D03*
G01*
X1062507Y-1350010D03*
G01*
X563295Y-1224991D03*
G01*
X737488Y-587502D03*
G01*
X3499993Y-624992D03*
G01*
X3899992Y-1375003D03*
G01*
X4624984Y-1187500D03*
G01*
X4562500Y-199999D03*
G01*
X4954752Y-225018D03*
G01*
X5074996Y-412495D03*
G01*
X4912486Y-1450009D03*
G01*
X5724982Y-387502D03*
G01*
X6005779Y-324993D03*
G01*
X5624982Y-387502D03*
G01*
X6412484Y-412495D03*
G01*
X5762497Y-624992D03*
G01*
X6192494Y-501853D03*
G01*
X7049998Y-1324990D03*
G01*
X7837500Y-1299997D03*
G01*
X9237472Y-1287500D03*
M02*
